SplineFontDB: 3.0
FontName: MuseJazz-Bold
FullName: MuseJazz Bold
FamilyName: MuseJazz
Weight: Bold
Copyright: Created by Werner Schweer
Version: 003.100
DefaultBaseFilename: MuseJazzBold
ItalicAngle: 0
UnderlinePosition: -204
UnderlineWidth: 102
Ascent: 1638
Descent: 410
sfntRevision: 0x00030000
LayerCount: 2
Layer: 0 1 "Back"  1
Layer: 1 1 "Fore"  0
XUID: [1021 983 26586 7056]
BaseHoriz: 0
FSType: 8
OS2Version: 3
OS2_WeightWidthSlopeOnly: 0
OS2_UseTypoMetrics: 1
CreationTime: 1271071127
ModificationTime: 1425327757
PfmFamily: 33
TTFWeight: 700
TTFWidth: 5
LineGap: 0
VLineGap: 0
Panose: 3 0 0 0 0 0 0 0 0 0
OS2TypoAscent: 0
OS2TypoAOffset: 1
OS2TypoDescent: 0
OS2TypoDOffset: 1
OS2TypoLinegap: 0
OS2WinAscent: 0
OS2WinAOffset: 1
OS2WinDescent: 0
OS2WinDOffset: 1
HheadAscent: 0
HheadAOffset: 1
HheadDescent: 0
HheadDOffset: 1
OS2Vendor: 'PfEd'
Lookup: 258 0 0 "Kern Pairs"  {"Kern Pairs-1" [300,30,0] } ['kern' ('DFLT' <'dflt' > 'latn' <'dflt' > ) ]
MarkAttachClasses: 1
DEI: 91125
ShortTable: cvt  2
  68
  1297
EndShort
ShortTable: maxp 16
  1
  0
  95
  298
  10
  0
  0
  2
  0
  1
  1
  0
  64
  46
  0
  0
EndShort

StartChar: parenleft
Encoding: 40 40 0
Width: 452
VWidth: 1597
Flags: W
LayerCount: 2
Fore
SplineSet
224.933 1261.62 m 1,0,1
 221.651 1247.08 221.651 1247.08 208.176 1237.94 c 1,2,3
 206.317 1229.4 206.317 1229.4 204.293 1213.79 c 0,4,5
 201.139 1189.46 201.139 1189.46 196.651 1177.57 c 1,6,7
 194.367 1161.42 194.367 1161.42 183 1151.67 c 1,8,-1
 183 547.993 l 1,9,10
 194.683 538.647 194.683 538.647 196.637 523.018 c 1,11,12
 201.177 509.966 201.177 509.966 204.829 478.921 c 0,13,14
 207.972 452.202 207.972 452.202 209.764 442.454 c 1,15,16
 215.971 430.852 215.971 430.852 225.843 417.031 c 0,17,18
 239.471 397.952 239.471 397.952 248.343 378.274 c 0,19,20
 254.228 366.463 254.228 366.463 259.582 337.552 c 0,21,22
 262.878 319.754 262.878 319.754 264.236 309.573 c 1,23,-1
 274.346 301.99 l 1,24,-1
 287.479 271.348 l 2,25,26
 294.844 254.162 294.844 254.162 303.699 234.976 c 0,27,28
 313.019 214.784 313.019 214.784 320.3 196.061 c 0,29,30
 325.113 183.686 325.113 183.686 327.761 179.311 c 0,31,32
 335.816 169.291 335.816 169.291 346.521 163.42 c 0,33,34
 366.66 152.376 366.66 152.376 390.869 120.673 c 0,35,36
 410.855 94.501 410.855 94.501 421.678 83.6777 c 0,37,38
 441 64.3549 441 64.3549 441 34 c 0,39,40
 441 23.724 441 23.724 438.156 13.0584 c 0,41,42
 437.282 9.77987 437.282 9.77987 437 7.73847 c 2,43,-1
 437 -4.86544 l 1,44,-1
 419.474 -17.3843 l 1,45,46
 414.935 -34.2354 414.935 -34.2354 412.356 -58.1768 c 0,47,48
 408.593 -93.1184 408.593 -93.1184 397.862 -127.457 c 0,49,50
 386.123 -165.021 386.123 -165.021 362.103 -190.241 c 0,51,52
 334.714 -219 334.714 -219 288 -219 c 2,53,-1
 278 -219 l 2,54,55
 272.907 -219 272.907 -219 268.584 -217.782 c 128,-1,56
 264.261 -216.564 264.261 -216.564 261.311 -214.702 c 128,-1,57
 258.361 -212.84 258.361 -212.84 255.93 -210.116 c 128,-1,58
 253.499 -207.392 253.499 -207.392 252.101 -204.902 c 128,-1,59
 250.702 -202.413 250.702 -202.413 249.579 -199.383 c 128,-1,60
 248.457 -196.352 248.457 -196.352 248.024 -194.435 c 128,-1,61
 247.592 -192.518 247.592 -192.518 247.192 -190.381 c 128,-1,62
 246.791 -188.243 246.791 -188.243 246.746 -188.063 c 0,63,64
 245.901 -184.683 245.901 -184.683 244.982 -182.338 c 1,65,-1
 178.322 -115.678 l 2,66,67
 174.459 -111.815 174.459 -111.815 171.908 -107.26 c 128,-1,68
 169.357 -102.705 169.357 -102.705 168.656 -100.928 c 128,-1,69
 167.955 -99.1507 167.955 -99.1507 166.589 -92.3205 c 128,-1,70
 165.223 -85.4902 165.223 -85.4902 165.114 -85.0065 c 0,71,72
 162.916 -75.2738 162.916 -75.2738 161.094 -71.7104 c 2,73,-1
 160.335 -70.5725 l 1,74,-1
 159.639 -69.1803 l 2,75,76
 146.215 -42.3329 146.215 -42.3329 125.908 -10.4219 c 0,77,78
 104.751 22.8263 104.751 22.8263 93.5811 52.509 c 1,79,80
 87.4543 63.1934 87.4543 63.1934 78.6247 101.946 c 0,81,82
 73.6929 123.591 73.6929 123.591 70.4274 133.429 c 1,83,-1
 65 137.5 l 1,84,-1
 65 139.049 l 1,85,86
 51 150.049 51 150.049 51 164 c 0,87,88
 51 167.139 51 167.139 50.0592 180.78 c 128,-1,89
 49.1104 194.538 49.1104 194.538 47.2056 209.301 c 0,90,91
 45.4174 223.159 45.4174 223.159 41.8441 236.558 c 2,92,-1
 41.2753 238.706 l 1,93,-1
 19 222 l 1,94,-1
 19 464.984 l 1,95,-1
 -1 478.984 l 1,96,-1
 -1 870.016 l 1,97,-1
 19 884.016 l 1,98,-1
 19 1098 l 1,99,-1
 39.3739 1098 l 1,100,101
 52.0178 1134.41 52.0178 1134.41 60.3059 1186.9 c 0,102,103
 69.582 1245.65 69.582 1245.65 82.1055 1286.35 c 2,104,-1
 83.3865 1290.52 l 1,105,-1
 94.1429 1304.86 l 1,106,-1
 100.107 1309.33 l 1,107,108
 106.528 1323.3 106.528 1323.3 116.214 1348.1 c 0,109,110
 129.132 1381.17 129.132 1381.17 145.639 1414.18 c 128,-1,111
 162.068 1447.04 162.068 1447.04 177.563 1472.86 c 0,112,113
 199.844 1510 199.844 1510 232 1510 c 0,114,115
 261.023 1510 261.023 1510 276.344 1494.68 c 0,116,117
 285.493 1485.53 285.493 1485.53 288.405 1472.42 c 0,118,119
 293 1451.74 293 1451.74 293 1429 c 2,120,-1
 293 1400.5 l 2,121,122
 293 1381.2 293 1381.2 273.927 1359.74 c 1,123,124
 267.257 1349.89 267.257 1349.89 248.609 1333.31 c 0,125,126
 241.464 1326.96 241.464 1326.96 237.5 1322.74 c 1,127,-1
 235.871 1319.89 l 2,128,129
 233.34 1313.86 233.34 1313.86 229.567 1293.86 c 0,130,131
 225.105 1270.22 225.105 1270.22 224.933 1261.62 c 1,0,1
EndSplineSet
Validated: 1
EndChar

StartChar: parenright
Encoding: 41 41 1
Width: 535
VWidth: 1597
Flags: W
LayerCount: 2
Fore
SplineSet
113.181 1353.93 m 1,0,-1
 123.02 1368.1 l 2,1,2
 125.572 1370.65 125.572 1370.65 127.591 1372.81 c 128,-1,3
 129.609 1374.96 129.609 1374.96 130.139 1375.49 c 0,4,5
 131.92 1379.09 131.92 1379.09 134.207 1386.18 c 0,6,7
 137.083 1395.09 137.083 1395.09 138 1399.29 c 2,8,-1
 138 1403.13 l 1,9,-1
 140.021 1407.85 l 2,10,11
 141.338 1410.92 141.338 1410.92 142.791 1413.56 c 128,-1,12
 144.245 1416.19 144.245 1416.19 146.589 1419 c 128,-1,13
 148.932 1421.8 148.932 1421.8 150.226 1423.39 c 128,-1,14
 151.52 1424.99 151.52 1424.99 155.078 1428.1 c 128,-1,15
 158.637 1431.22 158.637 1431.22 159.788 1432.21 c 128,-1,16
 160.939 1433.2 160.939 1433.2 165.73 1437.06 c 128,-1,17
 170.522 1440.92 170.522 1440.92 171.718 1441.89 c 0,18,19
 193.949 1459.98 193.949 1459.98 217.723 1476.53 c 0,20,21
 241.852 1493.31 241.852 1493.31 266.062 1506.47 c 0,22,23
 294.644 1522 294.644 1522 308 1522 c 2,24,-1
 312.533 1522 l 1,25,-1
 341 1511.32 l 1,26,-1
 341 1495.74 l 1,27,28
 342.145 1490.93 342.145 1490.93 344.926 1481.75 c 0,29,30
 348.435 1470.17 348.435 1470.17 349.93 1463.57 c 1,31,32
 361.613 1444.45 361.613 1444.45 379.167 1429.57 c 0,33,34
 405.236 1407.47 405.236 1407.47 418.332 1386.04 c 2,35,-1
 422 1380.03 l 1,36,-1
 422 1373.67 l 2,37,38
 422.537 1369.93 422.537 1369.93 424.754 1361.06 c 0,39,40
 427.992 1348.11 427.992 1348.11 433.142 1333.13 c 0,41,42
 438.992 1316.11 438.992 1316.11 442.754 1301.06 c 0,43,44
 445.592 1289.71 445.592 1289.71 446.548 1283.04 c 1,45,46
 451.97 1270.87 451.97 1270.87 461.553 1260.26 c 0,47,48
 478.225 1241.8 478.225 1241.8 487.845 1220.15 c 2,49,-1
 490 1215.31 l 1,50,-1
 490 1210 l 2,51,52
 490 1191.03 490 1191.03 492.379 1185.15 c 0,53,54
 509 1150.72 509 1150.72 509 1114 c 0,55,56
 509 1110.42 509 1110.42 508.828 1106.75 c 1,57,-1
 513.344 1101.79 l 1,58,-1
 514.706 1099.4 l 2,59,60
 520.999 1088.39 520.999 1088.39 527.205 1048.33 c 0,61,62
 530.276 1028.5 530.276 1028.5 531.715 1017 c 1,63,-1
 547 1017 l 1,64,-1
 547 513.787 l 1,65,-1
 525 498.787 l 1,66,-1
 525 341.645 l 1,67,-1
 502.782 363.863 l 1,68,69
 500.32 353.007 500.32 353.007 498.807 340.899 c 0,70,71
 496.838 325.15 496.838 325.15 495.368 310.928 c 0,72,73
 494.124 298.912 494.124 298.912 494 295.846 c 2,74,-1
 494 291.596 l 1,75,-1
 492.495 287.456 l 2,76,77
 487.382 273.396 487.382 273.396 469.523 247.723 c 0,78,79
 454.554 226.206 454.554 226.206 448.361 213.82 c 2,80,-1
 448.05 213.199 l 2,81,82
 445.61 208.929 445.61 208.929 437.927 173.676 c 0,83,84
 428.995 132.696 428.995 132.696 423.621 121.346 c 0,85,86
 409.982 92.2462 409.982 92.2462 383.404 69.1349 c 0,87,88
 365.602 53.6544 365.602 53.6544 353.591 40.1288 c 1,89,90
 351.964 32.8728 351.964 32.8728 349.038 22.632 c 0,91,92
 345.934 11.7692 345.934 11.7692 345 6.89716 c 2,93,-1
 345 -2.35534 l 1,94,-1
 337.678 -9.67767 l 2,95,96
 334.159 -13.196 334.159 -13.196 315.609 -29.6852 c 0,97,98
 302.45 -41.382 302.45 -41.382 299.274 -46.354 c 2,99,-1
 296.721 -51.459 l 1,100,-1
 295.771 -52.1721 l 1,101,102
 294.851 -55.0987 294.851 -55.0987 293.923 -59.3424 c 0,103,104
 289.261 -80.6515 289.261 -80.6515 283 -89 c 2,105,-1
 280.857 -91.8571 l 1,106,-1
 278.08 -93.9398 l 2,107,108
 274.569 -96.7863 274.569 -96.7863 260.678 -110.678 c 0,109,110
 249.818 -121.538 249.818 -121.538 246.78 -126.312 c 2,111,-1
 245.082 -130.273 l 1,112,-1
 242.781 -132.574 l 1,113,114
 240.795 -136.411 240.795 -136.411 238.142 -144.127 c 0,115,116
 235.219 -152.631 235.219 -152.631 234 -157.091 c 1,117,-1
 234 -161.478 l 1,118,-1
 230.854 -167.141 l 2,119,120
 217.07 -191.953 217.07 -191.953 163.584 -218.409 c 0,121,122
 120.167 -239.884 120.167 -239.884 102.594 -255.699 c 2,123,-1
 95.089 -262.266 l 1,124,-1
 81.3553 -276 l 1,125,-1
 71 -276 l 2,126,127
 66.0691 -276 66.0691 -276 47.11 -279.16 c 0,128,129
 24.069 -283 24.069 -283 14 -283 c 2,130,-1
 -11 -283 l 1,131,-1
 -11 -258 l 2,132,133
 -11 -249.013 -11 -249.013 -8.68602 -234.55 c 0,134,135
 -7.34295 -226.156 -7.34295 -226.156 -7 -222.598 c 2,136,-1
 -7 -212.645 l 1,137,-1
 12.2577 -193.387 l 1,138,139
 27.245 -168.833 27.245 -168.833 32.1469 -154.498 c 0,140,141
 41.42 -125.225 41.42 -125.225 68.3223 -98.3223 c 0,142,143
 75.2472 -91.3977 75.2472 -91.3977 103.167 -62.9795 c 0,144,145
 126.765 -38.9595 126.765 -38.9595 131.46 -32.3058 c 2,146,-1
 133.861 -28.1043 l 1,147,-1
 135.035 -27.2239 l 1,148,149
 136.581 -23.5264 136.581 -23.5264 138.138 -18.5431 c 0,150,151
 141.042 -9.24924 141.042 -9.24924 142 -4.762 c 2,152,-1
 142 -0.868566 l 1,153,-1
 144.021 3.84798 l 2,154,155
 149.562 16.775 149.562 16.775 172.651 34.7338 c 0,156,157
 181.261 41.43 181.261 41.43 185.207 45.897 c 1,158,159
 186.723 52.0985 186.723 52.0985 190.858 64.127 c 0,160,161
 196.877 81.6368 196.877 81.6368 203.051 89.9141 c 1,162,163
 211.882 106.237 211.882 106.237 225.822 120.178 c 0,164,165
 234.787 129.142 234.787 129.142 239.883 141.519 c 2,166,-1
 241.093 144.457 l 1,167,-1
 241.977 145.636 l 1,168,169
 243.406 149.7 243.406 149.7 245.077 157.342 c 0,170,171
 248.693 173.872 248.693 173.872 254.503 182.996 c 1,172,173
 258.754 191.598 258.754 191.598 267.021 197.504 c 1,174,175
 268.472 207.475 268.472 207.475 272.022 224.58 c 0,176,177
 277.743 252.148 277.743 252.148 281.29 261.331 c 0,178,179
 284.772 272.936 284.772 272.936 298 282.396 c 1,180,-1
 298 407.785 l 1,181,-1
 319 417.785 l 1,182,-1
 319 814.947 l 1,183,184
 315.819 817.825 315.819 817.825 312.322 821.322 c 2,185,-1
 307.276 826.369 l 1,186,-1
 305.654 833.319 l 2,187,188
 291.313 894.778 291.313 894.778 287.648 928.282 c 0,189,190
 284.626 955.915 284.626 955.915 269.119 1003.53 c 1,191,-1
 258.066 1014.58 l 1,192,-1
 257 1016 l 2,193,194
 250.862 1024.18 250.862 1024.18 245.629 1046.42 c 0,195,196
 244.017 1053.68 244.017 1053.68 242.731 1057.73 c 1,197,198
 223.62 1076.69 223.62 1076.69 208.951 1112.32 c 0,199,200
 192.103 1151.63 192.103 1151.63 170.847 1181.2 c 0,201,202
 165.03 1188.96 165.03 1188.96 159.793 1209.25 c 2,203,-1
 156.552 1220.16 l 1,204,-1
 154.854 1223.4 l 2,205,206
 144.68 1242.82 144.68 1242.82 130.221 1262.88 c 0,207,208
 110 1290.93 110 1290.93 110 1323 c 2,209,-1
 110 1337.5 l 2,210,211
 110 1347.57 110 1347.57 113.181 1353.93 c 1,0,-1
EndSplineSet
Validated: 1
EndChar

StartChar: slash
Encoding: 47 47 2
Width: 923
VWidth: 1597
Flags: W
LayerCount: 2
Fore
SplineSet
924.499 1443.63 m 1,0,-1
 925 1439 l 1,1,-1
 925 1428.64 l 1,2,3
 919.927 1423.44 919.927 1423.44 918.008 1421.65 c 1,4,5
 916.281 1417.85 916.281 1417.85 914.706 1415.1 c 0,6,7
 914.124 1414.08 914.124 1414.08 913.446 1411.82 c 0,8,9
 912.059 1407.19 912.059 1407.19 910.156 1400.06 c 0,10,11
 907.857 1391.44 907.857 1391.44 903.959 1380.86 c 0,12,13
 901.073 1373.02 901.073 1373.02 898.445 1360.76 c 0,14,15
 895.509 1347.06 895.509 1347.06 892.572 1331.39 c 2,16,-1
 892.073 1328.73 l 1,17,-1
 891.015 1326.24 l 2,18,19
 878.159 1295.94 878.159 1295.94 869.647 1245.81 c 0,20,21
 860.458 1191.71 860.458 1191.71 854.466 1179.93 c 0,22,23
 793.703 1035.6 793.703 1035.6 748.739 941.6 c 1,24,25
 707.248 846.543 707.248 846.543 496.75 385.635 c 0,26,27
 255.101 -145.591 255.101 -145.591 191.362 -312.9 c 2,28,-1
 190.706 -314.623 l 1,29,-1
 189.804 -316.231 l 2,30,31
 162.434 -365.019 162.434 -365.019 117.122 -382.776 c 0,32,33
 79.5132 -397.514 79.5132 -397.514 63.9057 -402.717 c 0,34,35
 54.0567 -406 54.0567 -406 44 -406 c 2,36,-1
 42.6152 -406 l 1,37,-1
 41.2392 -405.847 l 2,38,39
 28.8653 -404.472 28.8653 -404.472 15.3449 -399.064 c 0,40,41
 -5.93785 -389.753 -5.93785 -389.753 -19.0384 -375.273 c 0,42,43
 -28.528 -364.784 -28.528 -364.784 -43.0247 -348.788 c 0,44,45
 -55.9156 -334.563 -55.9156 -334.563 -62 -330 c 2,46,-1
 -77.4028 -318.448 l 1,47,-1
 622.503 1407.58 l 1,48,49
 653.253 1501.57 653.253 1501.57 687.601 1556.75 c 128,-1,50
 721.949 1611.94 721.949 1611.94 766.411 1631.09 c 0,51,52
 786.188 1639 786.188 1639 804 1639 c 0,53,54
 848.069 1639 848.069 1639 882.87 1595.18 c 1,55,56
 924.22 1538.9 924.22 1538.9 924.499 1443.63 c 1,0,-1
EndSplineSet
Validated: 1
EndChar

StartChar: zero
Encoding: 48 48 3
Width: 1201
VWidth: 1597
Flags: W
LayerCount: 2
Fore
SplineSet
229.321 105.04 m 0,0,1
 136.438 185.764 136.438 185.764 95.3076 272.435 c 0,2,3
 59.667 346.422 59.667 346.422 40.1855 500.084 c 0,4,5
 34 548.924 34 548.924 34 601.642 c 0,6,7
 34 754.36 34 754.36 63.6836 874.109 c 0,8,9
 80.4287 941.904 80.4287 941.904 149.922 1068.37 c 0,10,11
 201.837 1162.85 201.837 1162.85 269.016 1249.46 c 0,12,13
 321.305 1312.33 321.305 1312.33 372.5 1346.34 c 1,14,15
 382.145 1357.7 382.145 1357.7 397.636 1367.01 c 128,-1,16
 413.127 1376.31 413.127 1376.31 449.941 1395.12 c 0,17,18
 503.355 1422.31 503.355 1422.31 534.301 1430.26 c 1,19,20
 555.907 1454.72 555.907 1454.72 614.99 1466.41 c 0,21,22
 652.103 1473.89 652.103 1473.89 710.012 1475.99 c 0,23,24
 728.629 1477.4 728.629 1477.4 744.919 1476.21 c 128,-1,25
 761.211 1475.03 761.211 1475.03 772.981 1468.25 c 0,26,27
 781.875 1463.21 781.875 1463.21 813.73 1459.85 c 0,28,29
 851.381 1456.35 851.381 1456.35 874.214 1449.6 c 128,-1,30
 897.048 1442.85 897.048 1442.85 909.084 1427.05 c 1,31,-1
 963.167 1402.88 l 1,32,-1
 964.642 1401.95 l 2,33,34
 1011.08 1372.72 1011.08 1372.72 1028.44 1351.46 c 0,35,36
 1061.38 1313.03 1061.38 1313.03 1068.62 1275.71 c 0,37,38
 1070.75 1263.36 1070.75 1263.36 1102.61 1218.47 c 2,39,-1
 1105.2 1214.82 l 1,40,-1
 1106.29 1210.52 l 2,41,42
 1115.86 1172.57 1115.86 1172.57 1131.19 1135.53 c 0,43,44
 1145.71 1100.97 1145.71 1100.97 1149.95 1032.29 c 2,45,-1
 1155.95 942.447 l 2,46,47
 1161 866.272 1161 866.272 1161 795.903 c 0,48,49
 1161 727.221 1161 727.221 1155.92 666.362 c 2,50,-1
 1155.79 664.806 l 1,51,-1
 1118.15 493.701 l 1,52,-1
 1117.68 492.364 l 2,53,54
 1070.46 357.428 1070.46 357.428 1034.14 308.891 c 0,55,56
 965.322 219.946 965.322 219.946 950 197.831 c 1,57,-1
 950 195.273 l 1,58,-1
 943.865 188.454 l 2,59,60
 901.45 142.51 901.45 142.51 822.748 84.2637 c 0,61,62
 737.566 20.5381 737.566 20.5381 704.73 10.415 c 0,63,64
 654.844 -6 654.844 -6 543.773 -6 c 0,65,66
 447.53 -6 447.53 -6 409.105 7.7041 c 0,67,68
 299.234 46.0459 299.234 46.0459 229.321 105.04 c 0,0,1
545.434 1100.97 m 0,69,70
 436.683 1017.97 436.683 1017.97 402.152 955.081 c 0,71,72
 318.864 805.176 318.864 805.176 313.648 683.255 c 0,73,74
 312.582 660.032 312.582 660.032 312.582 638.725 c 0,75,76
 312.582 527.099 312.582 527.099 350.534 449.259 c 0,77,78
 426.971 296 426.971 296 556.797 296 c 2,79,-1
 558.968 296 l 2,80,81
 578.766 296 578.766 296 623.985 324.238 c 128,-1,82
 669.203 352.477 669.203 352.477 729.196 407.883 c 0,83,84
 783.055 457.572 783.055 457.572 862.699 590.023 c 0,85,86
 905.211 661.536 905.211 661.536 905.211 816.714 c 0,87,88
 905.211 866.656 905.211 866.656 904.255 874.994 c 0,89,90
 889.885 1004.78 889.885 1004.78 865.581 1049.69 c 1,91,92
 829.733 1093.26 829.733 1093.26 807.416 1139.97 c 0,93,94
 786.112 1185 786.112 1185 743.486 1185 c 0,95,96
 719.75 1185 719.75 1185 686.946 1172.74 c 0,97,98
 591.141 1136.41 591.141 1136.41 545.434 1100.97 c 0,69,70
EndSplineSet
EndChar

StartChar: one
Encoding: 49 49 4
Width: 593
VWidth: 1597
Flags: W
LayerCount: 2
Fore
SplineSet
258.271 916.913 m 1,0,1
 166.989 861 166.989 861 105 861 c 2,2,-1
 100.396 861 l 1,3,-1
 99.792 861.029 l 2,4,5
 62.6221 862.828 62.6221 862.828 38.3115 880.429 c 128,-1,6
 14 898.028 14 898.028 14 931 c 0,7,8
 14 978.029 14 978.029 71.7266 1058.63 c 0,9,10
 202.682 1226.46 202.682 1226.46 214.629 1243.14 c 1,11,12
 258.775 1321.35 258.775 1321.35 304.979 1395.67 c 0,13,14
 310.273 1406.47 310.273 1406.47 313.394 1430.87 c 0,15,16
 319.561 1457.24 319.561 1457.24 335.479 1473 c 0,17,18
 344.342 1487.64 344.342 1487.64 348.962 1509 c 0,19,20
 358.297 1530.09 358.297 1530.09 391.738 1538.92 c 0,21,22
 414.312 1546 414.312 1546 438 1546 c 2,23,-1
 446.893 1546 l 1,24,-1
 447.781 1546 l 2,25,26
 486.468 1544.04 486.468 1544.04 509.784 1524 c 0,27,28
 530.557 1503.41 530.557 1503.41 537.16 1471 c 0,29,30
 543 1437.88 543 1437.88 543 1400 c 0,31,32
 543 1358.41 543 1358.41 536.226 1311.11 c 0,33,34
 529.651 1266.61 529.651 1266.61 522.564 1228.71 c 0,35,36
 515.609 1192.16 515.609 1192.16 509.65 1157.61 c 0,37,38
 503.151 1122.1 503.151 1122.1 502 1114.62 c 1,39,-1
 502 1113.52 l 1,40,-1
 501.515 1111.1 l 2,41,42
 500.124 1104.15 500.124 1104.15 500.969 1087.25 c 0,43,-1
 501 1086 l 1,44,45
 501 1032.4 501 1032.4 514.844 908.793 c 0,46,47
 529.815 777.046 529.815 777.046 535.906 698.182 c 0,48,49
 537.979 676.91 537.979 676.91 545.976 486.103 c 0,50,51
 550.994 376.964 550.994 376.964 552 307.543 c 0,52,53
 552 285.779 552 285.779 550.99 267.479 c 0,54,55
 550.472 247.666 550.472 247.666 508.266 84.082 c 0,56,57
 482.63 -2 482.63 -2 411 -2 c 0,58,59
 383.306 -2 383.306 -2 351.321 13.1064 c 0,60,61
 331.433 23.5557 331.433 23.5557 298.366 66.0234 c 0,62,63
 270.902 100.994 270.902 100.994 265.176 143 c 2,64,-1
 265 144.473 l 1,65,-1
 265 143.759 l 2,66,67
 264.512 153.525 264.512 153.525 257.043 277.045 c 0,68,69
 251 381.64 251 381.64 251 414 c 0,70,71
 251 435.985 251 435.985 260 533.156 c 1,72,-1
 260 552 l 2,73,74
 260 620.14 260 620.14 258.271 916.913 c 1,0,1
EndSplineSet
EndChar

StartChar: two
Encoding: 50 50 5
Width: 1061
VWidth: 1597
Flags: W
LayerCount: 2
Fore
SplineSet
51.1484 1347 m 1,0,-1
 123.578 1393.09 l 2,1,2
 213.334 1450.21 213.334 1450.21 295.615 1485.01 c 0,3,4
 389.92 1521 389.92 1521 499.141 1521 c 0,5,6
 563.953 1521 563.953 1521 642.1 1508.61 c 0,7,8
 703.384 1499.13 703.384 1499.13 793.647 1447.63 c 0,9,10
 879.239 1394.34 879.239 1394.34 908.224 1339.89 c 0,11,12
 973 1220.8 973 1220.8 973 1161.3 c 0,13,14
 973 971.145 973 971.145 891.797 832.549 c 0,15,16
 800.744 677.291 800.744 677.291 723.682 559.335 c 2,17,-1
 722.847 558.089 l 1,18,-1
 721.843 556.938 l 2,19,20
 678.491 507.218 678.491 507.218 598.723 425.202 c 1,21,22
 573.898 390.35 573.898 390.35 472.013 325.733 c 2,23,-1
 471.458 325.373 l 2,24,25
 462.162 319.947 462.162 319.947 453.427 314.565 c 1,26,27
 490.439 315.285 490.439 315.285 506.468 316.885 c 0,28,29
 519.56 317.864 519.56 317.864 685.907 337.785 c 0,30,31
 752.785 345.662 752.785 345.662 888.887 373.472 c 2,32,-1
 891.416 374 l 1,33,-1
 894 374 l 2,34,35
 959 374 959 374 993.5 332.5 c 128,-1,36
 1028 291 1028 291 1028 219 c 0,37,38
 1028 58.8584 1028 58.8584 951.29 24.2158 c 0,39,40
 884.383 -6 884.383 -6 778.632 -6 c 0,41,42
 722.861 -6 722.861 -6 670.685 -1.92578 c 0,43,44
 604.562 2.16992 604.562 2.16992 580.198 6.5459 c 0,45,46
 548.371 13 548.371 13 520.297 13 c 2,47,-1
 406.642 13 l 1,48,49
 208.128 13.9961 208.128 13.9961 134.208 55.7383 c 0,50,51
 54.1777 102.06 54.1777 102.06 53 191.402 c 0,52,53
 53 223.161 53 223.161 98.542 296.026 c 0,54,55
 107.356 310.229 107.356 310.229 118.011 328.222 c 128,-1,56
 128.664 346.216 128.664 346.216 134.104 355.248 c 128,-1,57
 139.545 364.28 139.545 364.28 146.213 374.099 c 128,-1,58
 152.881 383.917 152.881 383.917 158.335 389.137 c 128,-1,59
 163.788 394.356 163.788 394.356 169.857 397.359 c 1,60,61
 189.302 410.914 189.302 410.914 281.94 515.234 c 0,62,63
 334.866 570.38 334.866 570.38 386.252 619.545 c 1,64,-1
 442.292 684.909 l 1,65,-1
 482.14 730.714 l 1,66,-1
 534.958 796.17 l 1,67,68
 609.955 898.45 609.955 898.45 619.251 917.961 c 1,69,70
 636.103 986.827 636.103 986.827 636.103 1034.41 c 0,71,72
 636.103 1056.99 636.103 1056.99 632.132 1074.1 c 0,73,74
 621.723 1124.36 621.723 1124.36 598.22 1162.24 c 0,75,76
 567.14 1212 567.14 1212 513.616 1212 c 0,77,78
 438.56 1212 438.56 1212 358.663 1171.26 c 0,79,80
 275.504 1127.91 275.504 1127.91 208.615 1079.72 c 2,81,-1
 201.706 1074.74 l 1,82,-1
 193.194 1075.01 l 2,83,84
 167.21 1075.85 167.21 1075.85 145.136 1096.28 c 128,-1,85
 123.061 1116.7 123.061 1116.7 97.9795 1155.47 c 0,86,87
 92.2031 1164.49 92.2031 1164.49 80.7021 1182 c 128,-1,88
 69.2002 1199.51 69.2002 1199.51 65.2881 1205.92 c 128,-1,89
 61.376 1212.33 61.376 1212.33 55.5146 1223.06 c 128,-1,90
 49.6543 1233.79 49.6543 1233.79 47.8271 1240.81 c 128,-1,91
 46 1247.83 46 1247.83 46 1255 c 0,92,93
 46 1305.62 46 1305.62 78.6533 1347 c 1,94,-1
 51.1484 1347 l 1,0,-1
EndSplineSet
EndChar

StartChar: three
Encoding: 51 51 6
Width: 892
VWidth: 1597
Flags: W
LayerCount: 2
Fore
SplineSet
325.225 975.575 m 1,0,1
 363.53 1032.21 363.53 1032.21 382.962 1063.99 c 1,2,3
 360.213 1065.75 360.213 1065.75 342.08 1067.03 c 0,4,5
 306.022 1069.59 306.022 1069.59 258.041 1078.15 c 0,6,7
 212.69 1087.1 212.69 1087.1 182.158 1102.25 c 0,8,9
 153.3 1116.57 153.3 1116.57 109.021 1145.67 c 0,10,11
 59.0254 1178.53 59.0254 1178.53 45.3193 1218 c 0,12,13
 30.1719 1261.62 30.1719 1261.62 49.7812 1287.9 c 0,14,15
 59.6182 1301.08 59.6182 1301.08 79.3818 1356.12 c 0,16,17
 90.7705 1388.41 90.7705 1388.41 97.3008 1402.2 c 0,18,19
 103.662 1415.63 103.662 1415.63 115.572 1436.83 c 0,20,21
 128.791 1460.36 128.791 1460.36 145.528 1476.67 c 0,22,23
 173.531 1502.72 173.531 1502.72 213.327 1506.86 c 0,24,25
 223.003 1508 223.003 1508 231 1508 c 0,26,27
 258.222 1508 258.222 1508 286.793 1498.71 c 0,28,29
 324.227 1488.34 324.227 1488.34 361.355 1473.72 c 0,30,31
 396.717 1459.79 396.717 1459.79 436.271 1444.82 c 0,32,33
 459.074 1435.92 459.074 1435.92 495.417 1429.5 c 0,34,35
 498.332 1429 498.332 1429 502.439 1429 c 0,36,37
 524.965 1429 524.965 1429 567.481 1439.95 c 0,38,39
 625.568 1454.9 625.568 1454.9 669.258 1468.77 c 0,40,41
 711.935 1483 711.935 1483 754 1483 c 2,42,-1
 763.595 1483 l 1,43,44
 815.273 1480.62 815.273 1480.62 843.075 1446.81 c 1,45,46
 862.426 1430.32 862.426 1430.32 869.545 1394.74 c 2,47,-1
 869.661 1394.16 l 2,48,49
 870.951 1385.42 870.951 1385.42 872 1347.91 c 1,50,-1
 872 1345.65 l 2,51,52
 872 1305.76 872 1305.76 849.12 1270.81 c 0,53,54
 829.614 1241.02 829.614 1241.02 805 1209.27 c 0,55,56
 781.139 1178.5 781.139 1178.5 757.411 1145.98 c 0,57,58
 725.233 1102.04 725.233 1102.04 718.305 1084.45 c 0,59,60
 700.154 1040.1 700.154 1040.1 698.597 1031.82 c 2,61,-1
 698.482 1031.21 l 1,62,-1
 698.336 1030.6 l 2,63,64
 688.926 991.926 688.926 991.926 681.854 972.739 c 128,-1,65
 674.784 953.553 674.784 953.553 662.848 941.802 c 0,66,67
 637.687 914.881 637.687 914.881 626.844 898.604 c 1,68,69
 675.384 882.411 675.384 882.411 714.727 862.116 c 0,70,71
 776.814 830.323 776.814 830.323 796.709 704.192 c 0,72,73
 812 608.553 812 608.553 812 589.281 c 0,74,75
 812 533.124 812 533.124 808.286 517.757 c 0,76,77
 778.117 388.496 778.117 388.496 748.057 284.794 c 0,78,79
 729.352 221.473 729.352 221.473 645.428 160.462 c 0,80,81
 550.802 99.4502 550.802 99.4502 374.58 33.3291 c 0,82,83
 350.716 24.416 350.716 24.416 299.479 7.30664 c 0,84,85
 247.841 -12 247.841 -12 218 -12 c 2,86,-1
 216 -12 l 2,87,88
 185.305 -12 185.305 -12 153.855 9.38574 c 0,89,90
 146.564 14.209 146.564 14.209 141.9 16.4375 c 1,91,92
 125.872 13.5117 125.872 13.5117 116.507 18.7627 c 128,-1,93
 107.142 24.0146 107.142 24.0146 104.726 32.0811 c 128,-1,94
 102.311 40.1484 102.311 40.1484 103.086 51.3818 c 128,-1,95
 103.861 62.6162 103.861 62.6162 105.047 67.2207 c 128,-1,96
 106.233 71.8252 106.233 71.8252 107.138 74.5859 c 0,97,98
 113.524 129.511 113.524 129.511 131.269 172.153 c 128,-1,99
 148.954 214.654 148.954 214.654 168.853 240.533 c 0,100,101
 188.908 266.616 188.908 266.616 218.651 288.72 c 0,102,103
 247.861 310.428 247.861 310.428 273.925 322.074 c 0,104,105
 300.199 332.159 300.199 332.159 337.773 349.897 c 0,106,107
 347.607 354.378 347.607 354.378 402.781 383.595 c 0,108,109
 493.116 431.034 493.116 431.034 493.116 501.092 c 0,110,111
 493.116 527.939 493.116 527.939 480.638 558.066 c 0,112,113
 465.555 597.706 465.555 597.706 442.881 608.13 c 0,114,115
 433.356 612.478 433.356 612.478 368.659 636.002 c 0,116,117
 365.945 637 365.945 637 359.107 637 c 0,118,119
 339.079 637 339.079 637 303.402 624.753 c 0,120,121
 253.972 607.057 253.972 607.057 231.632 596.373 c 0,122,123
 137.959 553.138 137.959 553.138 121.07 549.52 c 0,124,125
 110.22 547.349 110.22 547.349 102.535 546.251 c 2,126,-1
 100.776 546 l 1,127,-1
 99 546 l 2,128,129
 63 546 63 546 45.5 573.777 c 128,-1,130
 28 601.555 28 601.555 28 644.438 c 2,131,-1
 28 664.771 l 1,132,-1
 28.0596 665.608 l 2,133,134
 35.1934 766.43 35.1934 766.43 113.812 793.189 c 0,135,136
 173.23 813.097 173.23 813.097 225.607 857.765 c 0,137,138
 252.159 880.073 252.159 880.073 273.317 910.56 c 0,139,140
 319.13 966.785 319.13 966.785 325.053 975.287 c 2,141,-1
 325.225 975.575 l 1,0,1
EndSplineSet
EndChar

StartChar: four
Encoding: 52 52 7
Width: 1036
VWidth: 1597
Flags: W
LayerCount: 2
Fore
SplineSet
397.302 785.507 m 1,0,1
 387.417 748.47 387.417 748.47 379.933 709.922 c 1,2,3
 432.844 701.241 432.844 701.241 470.334 698.95 c 0,4,5
 488.701 697.981 488.701 697.981 504.146 697.001 c 1,6,7
 542.046 697.152 542.046 697.152 554.449 703.726 c 1,8,-1
 552.278 748.457 l 1,9,10
 552.278 784.487 552.278 784.487 558.052 827.938 c 0,11,12
 564.555 877.462 564.555 877.462 564.555 924 c 0,13,14
 564.555 955.757 564.555 955.757 561.326 984.689 c 0,15,16
 557.898 1020.53 557.898 1020.53 553.278 1043.75 c 1,17,18
 520.281 995.762 520.281 995.762 452.996 882.218 c 0,19,20
 403.8 800.236 403.8 800.236 397.302 785.507 c 1,0,1
813.178 530.241 m 0,21,22
 789.167 506.998 789.167 506.998 768.491 491.722 c 1,23,24
 774.422 449.944 774.422 449.944 780.965 366.212 c 0,25,26
 781.977 342.722 781.977 342.722 782.975 321.448 c 2,27,-1
 783.116 318.429 l 1,28,-1
 783.09 318.987 l 1,29,-1
 783.049 319.858 l 1,30,-1
 783.024 320.385 l 1,31,-1
 782.997 320.964 l 1,32,-1
 782.937 322.252 l 1,33,-1
 782.903 322.952 l 1,34,-1
 782.833 324.448 l 1,35,-1
 782.796 325.237 l 1,36,-1
 782.758 326.05 l 1,37,-1
 782.719 326.884 l 1,38,-1
 782.678 327.738 l 1,39,-1
 782.637 328.61 l 1,40,-1
 782.553 330.4 l 1,41,-1
 782.51 331.315 l 1,42,-1
 782.466 332.242 l 1,43,-1
 782.422 333.181 l 1,44,-1
 782.377 334.127 l 1,45,-1
 782.332 335.082 l 1,46,-1
 782.247 336.901 l 1,47,-1
 780.548 372.982 l 1,48,-1
 780.572 372.457 l 1,49,-1
 780.601 371.86 l 1,50,-1
 780.632 371.195 l 1,51,-1
 780.648 370.839 l 1,52,-1
 780.685 370.08 l 1,53,-1
 780.723 369.261 l 1,54,-1
 780.743 368.83 l 1,55,-1
 780.786 367.927 l 1,56,-1
 780.831 366.971 l 1,57,-1
 780.878 365.964 l 1,58,-1
 780.928 364.908 l 1,59,-1
 780.953 364.363 l 1,60,-1
 781.007 363.238 l 1,61,-1
 781.062 362.068 l 1,62,-1
 781.09 361.468 l 1,63,-1
 781.147 360.235 l 1,64,-1
 781.208 358.963 l 1,65,-1
 781.238 358.312 l 1,66,-1
 781.301 356.982 l 1,67,-1
 781.333 356.303 l 1,68,-1
 781.365 355.615 l 1,69,-1
 781.432 354.212 l 1,70,-1
 781.465 353.498 l 1,71,-1
 781.499 352.774 l 1,72,-1
 781.533 352.043 l 1,73,-1
 781.568 351.304 l 1,74,-1
 781.604 350.556 l 1,75,-1
 781.64 349.801 l 1,76,-1
 781.712 348.266 l 1,77,-1
 781.748 347.486 l 1,78,-1
 781.785 346.7 l 1,79,-1
 781.822 345.906 l 1,80,-1
 781.898 344.296 l 1,81,-1
 781.937 343.48 l 1,82,-1
 781.976 342.658 l 1,83,-1
 782.015 341.828 l 1,84,-1
 782.054 340.992 l 1,85,-1
 782.094 340.148 l 1,86,-1
 782.174 338.442 l 1,87,-1
 782.215 337.579 l 1,88,-1
 782.256 336.71 l 1,89,-1
 782.297 335.834 l 1,90,-1
 782.338 334.952 l 1,91,-1
 782.38 334.064 l 1,92,-1
 782.422 333.17 l 1,93,-1
 782.465 332.27 l 1,94,-1
 782.508 331.363 l 1,95,-1
 782.551 330.451 l 1,96,-1
 782.594 329.533 l 1,97,-1
 782.681 327.681 l 1,98,-1
 782.725 326.745 l 1,99,-1
 782.77 325.805 l 1,100,-1
 782.813 324.858 l 1,101,-1
 782.858 323.907 l 1,102,-1
 782.903 322.95 l 1,103,-1
 782.949 321.988 l 1,104,-1
 783 320.9 l 1,105,-1
 783 320.35 l 2,106,107
 783 246.65 783 246.65 762.949 194.685 c 1,108,109
 738.712 128.623 738.712 128.623 703.256 74.1836 c 0,110,111
 664.809 15.1494 664.809 15.1494 616.343 -2.17773 c 0,112,113
 600.257 -8.1377 600.257 -8.1377 584.455 -7.00195 c 0,114,115
 543.529 -5.79297 543.529 -5.79297 503.991 28.8867 c 1,116,117
 476.907 54.2686 476.907 54.2686 468.353 100.019 c 0,118,119
 460.753 140.658 460.753 140.658 460.753 184.636 c 0,120,121
 460.753 229.186 460.753 229.186 478.046 299.565 c 0,122,123
 486.425 335.975 486.425 335.975 486.425 361.131 c 0,124,125
 486.425 379.287 486.425 379.287 482.127 390.947 c 0,126,127
 471.99 418.166 471.99 418.166 454.543 426.795 c 0,128,129
 439.865 434 439.865 434 420.572 434 c 0,130,131
 411.926 434 411.926 434 402.292 432.431 c 0,132,133
 363.436 425.662 363.436 425.662 313.197 412.942 c 0,134,135
 264.062 399.468 264.062 399.468 227.033 389.008 c 0,136,137
 200.721 381 200.721 381 175 381 c 0,138,139
 157.525 381 157.525 381 139.837 384.537 c 0,140,141
 92.1406 395.114 92.1406 395.114 69.585 438.809 c 0,142,143
 58.7197 461.222 58.7197 461.222 55.1787 487.742 c 0,144,145
 54 498.112 54 498.112 54 510.213 c 0,146,147
 54 526.391 54 526.391 56.2207 543.745 c 0,148,149
 60.4619 572.753 60.4619 572.753 66.8438 596.14 c 128,-1,150
 73.2402 619.575 73.2402 619.575 86.3145 651.255 c 0,151,152
 98.8594 681.654 98.8594 681.654 105.782 698.081 c 0,153,154
 118.113 729.205 118.113 729.205 126.64 745.867 c 2,155,-1
 142.882 777.609 l 1,156,157
 199.149 938.296 199.149 938.296 419.699 1294.1 c 0,158,159
 424.996 1302.45 424.996 1302.45 446.047 1337.85 c 0,160,161
 467.69 1374.24 467.69 1374.24 477.641 1388.59 c 128,-1,162
 487.488 1402.79 487.488 1402.79 509.098 1430.67 c 0,163,164
 532.235 1460.52 532.235 1460.52 550.436 1474.75 c 0,165,166
 569.156 1489.38 569.156 1489.38 595.794 1500.18 c 0,167,168
 624.259 1512 624.259 1512 652.731 1512 c 2,169,-1
 653.527 1512 l 1,170,171
 708.302 1509.29 708.302 1509.29 740.42 1461.81 c 0,172,173
 768.162 1420.8 768.162 1420.8 774.287 1359.7 c 0,174,175
 779.938 1303.31 779.938 1303.31 781.99 1232.91 c 0,176,177
 783.989 1163.26 783.989 1163.26 785.983 1111.65 c 0,178,179
 787.891 1062.25 787.891 1062.25 800.815 1009.89 c 0,180,181
 814.583 954.12 814.583 954.12 819.748 919.113 c 2,182,-1
 820 917.41 l 1,183,-1
 820 912.787 l 2,184,185
 820 861.929 820 861.929 841.271 861.48 c 0,186,187
 857.869 861.48 857.869 861.48 892.74 846.987 c 1,188,189
 902.01 845.719 902.01 845.719 928.507 849.483 c 0,190,191
 962.729 854.972 962.729 854.972 996.498 823.59 c 0,192,193
 1026 795.03 1026 795.03 1026 759.837 c 0,194,195
 1026 741.222 1026 741.222 1016.74 720.74 c 0,196,197
 994.661 675.851 994.661 675.851 967.986 650.578 c 0,198,199
 943.029 626.933 943.029 626.933 890.877 591.445 c 0,200,201
 842.155 558.293 842.155 558.293 813.178 530.241 c 0,21,22
EndSplineSet
EndChar

StartChar: five
Encoding: 53 53 8
Width: 853
VWidth: 1597
Flags: W
LayerCount: 2
Fore
SplineSet
713.725 1526 m 1,0,1
 710.963 1526 l 2,2,3
 704.025 1526 704.025 1526 685.991 1524.98 c 0,4,5
 597.928 1520.28 597.928 1520.28 592.668 1518.38 c 0,6,7
 535.725 1498.05 535.725 1498.05 492.935 1483.42 c 0,8,9
 451.001 1468.13 451.001 1468.13 388.673 1465.54 c 0,10,11
 374.745 1464.96 374.745 1464.96 222.405 1430.97 c 0,12,13
 213.098 1428.89 213.098 1428.89 195.117 1424.99 c 0,14,15
 164.751 1418.39 164.751 1418.39 150.117 1414.94 c 128,-1,16
 135.484 1411.49 135.484 1411.49 113.81 1404.95 c 128,-1,17
 92.1348 1398.42 92.1348 1398.42 81.7822 1392.46 c 128,-1,18
 71.4307 1386.5 71.4307 1386.5 62.4316 1377.35 c 128,-1,19
 53.4326 1368.2 53.4326 1368.2 51.3467 1357.06 c 0,20,21
 36.9805 1280.32 36.9805 1280.32 36.9805 1173.25 c 0,22,23
 36.9805 1129.77 36.9805 1129.77 40.0244 1082.47 c 0,24,25
 45.9805 979.318 45.9805 979.318 45.9805 922.699 c 0,26,27
 45.9805 892.968 45.9805 892.968 44.0869 876.415 c 0,28,29
 42.9805 862.449 42.9805 862.449 42.9805 847.922 c 0,30,31
 42.9805 796.376 42.9805 796.376 59.7471 731.245 c 0,32,33
 69.4639 694.246 69.4639 694.246 89.7256 655.61 c 0,34,35
 120.675 595 120.675 595 196.98 595 c 0,36,37
 210.342 595 210.342 595 227.267 597.508 c 0,38,39
 232.396 598.297 232.396 598.297 237.146 600.575 c 128,-1,40
 241.896 602.854 241.896 602.854 244.926 605.086 c 128,-1,41
 247.956 607.317 247.956 607.317 254.994 613.035 c 128,-1,42
 262.163 618.752 262.163 618.752 267.309 622.487 c 0,43,44
 273.87 627.25 273.87 627.25 303.725 642.674 c 0,45,46
 325.946 654.153 325.946 654.153 338.018 660.899 c 0,47,48
 343.967 664.224 343.967 664.224 372.108 671.962 c 0,49,50
 390.429 677 390.429 677 402.376 677 c 0,51,52
 413.855 677 413.855 677 429.169 672.584 c 0,53,54
 441.928 668.904 441.928 668.904 449.786 661.336 c 0,55,56
 463.097 648.516 463.097 648.516 467.719 641.343 c 1,57,58
 466.795 617.542 466.795 617.542 466.795 598.232 c 0,59,60
 466.795 560.69 466.795 560.69 472.218 524.295 c 2,61,-1
 472.329 523.553 l 1,62,-1
 472.494 522.818 l 2,63,64
 472.974 520.687 472.974 520.687 473.03 517.473 c 0,65,66
 473.594 485.031 473.594 485.031 424.652 419.476 c 1,67,68
 405.148 395.103 405.148 395.103 395.504 378.386 c 1,69,70
 384.231 374 384.231 374 360.526 374 c 2,71,-1
 351.465 374 l 2,72,73
 325.541 374 325.541 374 295.004 377.735 c 1,74,75
 257.897 383.701 257.897 383.701 226.588 389.572 c 0,76,77
 193.222 395.828 193.222 395.828 164.827 397.932 c 0,78,79
 129.021 400.584 129.021 400.584 109.852 385.912 c 0,80,81
 91.3125 371.789 91.3125 371.789 58.0088 333.282 c 0,82,83
 30.0371 300.445 30.0371 300.445 27.1514 275.921 c 0,84,85
 25.3486 260.594 25.3486 260.594 16.7471 227.146 c 0,86,87
 13.1289 212.672 13.1289 212.672 12.9795 196.547 c 0,88,89
 12.0225 167.014 12.0225 167.014 25.6201 139.819 c 0,90,91
 44.4346 102.19 44.4346 102.19 77.3027 69.3223 c 2,92,-1
 77.9951 68.6299 l 1,93,-1
 78.7393 67.9941 l 2,94,95
 140.769 15 140.769 15 214.98 15 c 0,96,97
 241.059 15 241.059 15 268.249 21.708 c 0,98,99
 376.049 48.3026 376.049 48.3026 470.87 120.868 c 0,100,101
 568.886 195.879 568.886 195.879 646.595 292.53 c 128,-1,102
 724.358 389.248 724.358 389.248 762.934 474.629 c 0,103,104
 792.728 539.031 792.728 539.031 798.193 623.089 c 0,105,106
 799.279 639.198 799.279 639.198 799.279 655.351 c 0,107,108
 799.279 722.063 799.279 722.063 780.719 785.789 c 0,109,110
 756.888 867.803 756.888 867.803 704.375 911.044 c 0,111,112
 693.899 919.754 693.899 919.754 673.561 935.026 c 128,-1,113
 653.224 950.3 653.224 950.3 641.138 960.009 c 128,-1,114
 629.053 969.718 629.053 969.718 628.752 972.5 c 0,115,116
 625.375 1003.79 625.375 1003.79 580.048 1003.79 c 0,117,118
 557.126 1003.79 557.126 1003.79 513.696 994.896 c 1,119,120
 469.777 990.982 469.777 990.982 410.938 958.073 c 0,121,122
 380.824 941.8 380.824 941.8 357.208 936.624 c 1,123,124
 355.609 967.534 355.609 967.534 349.203 1017.24 c 0,125,126
 335.31 1125.82 335.31 1125.82 333.085 1153.37 c 1,127,128
 358.088 1167.29 358.088 1167.29 447.737 1179.24 c 0,129,130
 500.87 1186.73 500.87 1186.73 540.823 1209.59 c 1,131,132
 551.842 1214.63 551.842 1214.63 615.736 1238.48 c 0,133,134
 667.582 1257.92 667.582 1257.92 692.937 1297.85 c 0,135,136
 697.841 1305.9 697.841 1305.9 702.946 1307.85 c 0,137,138
 708.706 1310.13 708.706 1310.13 721.059 1307.56 c 2,139,-1
 723.772 1307 l 1,140,-1
 726.548 1307 l 2,141,142
 742.673 1307 742.673 1307 751.193 1314.74 c 128,-1,143
 759.713 1322.49 759.713 1322.49 765.508 1339.43 c 128,-1,144
 771.304 1356.37 771.304 1356.37 772.211 1358.02 c 0,145,146
 787.571 1384.18 787.571 1384.18 792.516 1407.97 c 0,147,148
 797.767 1431.98 797.767 1431.98 791.975 1458.62 c 0,149,150
 785.71 1487.43 785.71 1487.43 763.618 1508.68 c 2,151,-1
 762.312 1509.93 l 1,152,-1
 760.836 1511 l 2,153,154
 742.064 1524.56 742.064 1524.56 713.725 1526 c 1,0,1
EndSplineSet
EndChar

StartChar: six
Encoding: 54 54 9
Width: 1016
VWidth: 1597
Flags: W
LayerCount: 2
Fore
SplineSet
419.583 573.738 m 0,0,1
 388.377 520.861 388.377 520.861 419.327 496.3 c 0,2,3
 400.7 446.554 400.7 446.554 400.7 411.76 c 0,4,5
 400.7 370.688 400.7 370.688 439.086 342.02 c 0,6,7
 449.066 334 449.066 334 471.971 334 c 0,8,9
 508.015 334 508.015 334 566.824 353.497 c 1,10,-1
 681.812 424.568 l 1,11,12
 734.555 483.065 734.555 483.065 708.809 573.914 c 0,13,14
 716.096 603.392 716.096 603.392 716.096 625.366 c 0,15,16
 716.096 657.05 716.096 657.05 701.125 666.809 c 0,17,18
 641.32 705 641.32 705 614.86 705 c 0,19,20
 612.874 705 612.874 705 611.746 704.779 c 0,21,22
 497.534 668.665 497.534 668.665 466.411 633.834 c 0,23,24
 434.157 598.016 434.157 598.016 419.583 573.738 c 0,0,1
340.172 841.851 m 0,25,26
 336.403 815.465 336.403 815.465 334.19 787.927 c 1,27,28
 335.111 788.986 335.111 788.986 335.643 789.48 c 0,29,30
 371.669 828.015 371.669 828.015 398.158 856.072 c 0,31,32
 428.48 888.19 428.48 888.19 464.303 903.525 c 0,33,34
 491.104 914.997 491.104 914.997 519.771 937.752 c 0,35,36
 553.083 963.546 553.083 963.546 580.897 973.009 c 1,37,38
 599.16 991.348 599.16 991.348 651.515 996.775 c 0,39,40
 660.531 998 660.531 998 668.852 998 c 0,41,42
 715.714 998 715.714 998 765.769 975.136 c 0,43,44
 765.627 974.847 765.627 974.847 778.157 970.018 c 128,-1,45
 790.688 965.188 790.688 965.188 807.178 957.276 c 128,-1,46
 823.668 949.364 823.668 949.364 830.888 942.516 c 1,47,48
 886.777 911.018 886.777 911.018 900.003 897.131 c 1,49,50
 938.313 869.953 938.313 869.953 944.733 829.865 c 0,51,52
 949.692 795.036 949.692 795.036 955.597 763.355 c 0,53,54
 963.703 719.864 963.703 719.864 965.773 704.709 c 0,55,56
 970 674.824 970 674.824 970 657.537 c 0,57,58
 970 642.849 970 642.849 966.717 633.24 c 2,59,-1
 966.389 632.278 l 1,60,-1
 965.979 631.346 l 2,61,62
 960.919 619.829 960.919 619.829 951.404 577.127 c 0,63,64
 986.465 512.997 986.465 512.997 984.404 507.485 c 0,65,66
 981.928 501.414 981.928 501.414 947.316 434.854 c 0,67,68
 869.301 283.621 869.301 283.621 851.88 261.314 c 0,69,70
 789.874 181.981 789.874 181.981 718.783 120.33 c 0,71,72
 642.524 56.5254 642.524 56.5254 555.805 25.4307 c 0,73,74
 488.516 1 488.516 1 423 1 c 2,75,-1
 419 1 l 2,76,77
 396.29 1 396.29 1 373.584 2.06348 c 0,78,-1
 371.713 2.18164 l 1,79,80
 263.533 10.9258 263.533 10.9258 193.462 77.7529 c 0,81,82
 125.881 142.205 125.881 142.205 74.9004 260.141 c 1,83,84
 28 371.215 28 371.215 28 468.984 c 2,85,-1
 28 493.854 l 1,86,87
 40.5049 719.721 40.5049 719.721 42.7041 745.736 c 1,88,89
 41.8721 750.062 41.8721 750.062 41.251 754.271 c 2,90,-1
 41 755.976 l 1,91,-1
 41 757.697 l 2,92,93
 41 804.692 41 804.692 80.501 994.073 c 0,94,95
 99.6191 1084.63 99.6191 1084.63 212.969 1232.39 c 0,96,97
 274.093 1311.3 274.093 1311.3 368.259 1380.81 c 1,98,99
 376.772 1388.72 376.772 1388.72 428.55 1438.47 c 0,100,101
 449.141 1458.29 449.141 1458.29 511.618 1502.14 c 0,102,103
 562.635 1537.9 562.635 1537.9 608.359 1556.56 c 0,104,105
 646.678 1573 646.678 1573 687.975 1573 c 2,106,-1
 708.535 1573 l 1,107,-1
 709.967 1572.87 l 2,108,109
 760.555 1568.05 760.555 1568.05 795.134 1529 c 0,110,111
 819.83 1500.6 819.83 1500.6 823.866 1460.52 c 0,112,113
 825 1451.25 825 1451.25 825 1442.66 c 0,114,115
 825 1415.14 825 1415.14 816.908 1389.66 c 0,116,117
 807.512 1360.39 807.512 1360.39 781.539 1329.01 c 0,118,119
 773.783 1319.77 773.783 1319.77 765.884 1309.36 c 128,-1,120
 757.983 1298.95 757.983 1298.95 754.435 1294.34 c 128,-1,121
 750.885 1289.74 750.885 1289.74 745.621 1285.09 c 128,-1,122
 740.357 1280.45 740.357 1280.45 733.768 1277.29 c 0,123,124
 724.421 1273.22 724.421 1273.22 689.564 1252.5 c 2,125,-1
 624.423 1212.86 l 1,126,-1
 621.864 1211.89 l 2,127,128
 566.059 1190.57 566.059 1190.57 555.333 1181.85 c 1,129,130
 547.879 1174.42 547.879 1174.42 488.68 1136.83 c 0,131,132
 443.604 1108.91 443.604 1108.91 415.045 1068.93 c 0,133,134
 382.42 1022.59 382.42 1022.59 366.016 965.027 c 0,135,136
 348.969 903.433 348.969 903.433 340.172 841.851 c 0,25,26
EndSplineSet
EndChar

StartChar: seven
Encoding: 55 55 10
Width: 992
VWidth: 1597
Flags: W
LayerCount: 2
Fore
SplineSet
502.674 851.92 m 0,1,2
 559.803 993.689 559.803 993.689 586.43 1066.69 c 1,3,4
 536.926 1059.97 536.926 1059.97 479.594 1058.65 c 2,5,-1
 362.968 1054.79 l 2,6,7
 295.048 1052.84 295.048 1052.84 260 1052.84 c 0,8,9
 254.698 1052.84 254.698 1052.84 245.857 1052.54 c 128,-1,10
 237.017 1052.25 237.017 1052.25 233.308 1052.33 c 128,-1,11
 229.599 1052.41 229.599 1052.41 223.978 1053.53 c 128,-1,12
 218.356 1054.65 218.356 1054.65 213.119 1057.18 c 0,13,14
 199.346 1063.4 199.346 1063.4 111.295 1094.96 c 0,15,16
 25 1125.95 25 1125.95 25 1179.5 c 0,17,18
 25 1184.64 25 1184.64 26.459 1190.99 c 0,19,20
 31.3018 1221.05 31.3018 1221.05 35.1797 1251.05 c 0,21,22
 40.5205 1295.46 40.5205 1295.46 56.8203 1332.64 c 0,23,24
 58.2744 1336.6 58.2744 1336.6 61.5371 1350.8 c 0,25,26
 62.9023 1357.4 62.9023 1357.4 68.666 1371.89 c 128,-1,27
 74.4961 1386.54 74.4961 1386.54 79.709 1394.73 c 0,28,29
 84.6074 1402.43 84.6074 1402.43 92.7021 1411.94 c 0,30,31
 99.8477 1420.33 99.8477 1420.33 106.019 1427.29 c 2,32,-1
 106.644 1427.99 l 1,33,-1
 107.322 1428.65 l 2,34,35
 135.308 1455.71 135.308 1455.71 175.681 1456.99 c 0,36,37
 211.465 1458.16 211.465 1458.16 242.714 1444.05 c 1,38,39
 269.349 1437.9 269.349 1437.9 307.602 1428.29 c 0,40,41
 350.207 1417.78 350.207 1417.78 362.736 1415.24 c 1,42,43
 419.686 1407 419.686 1407 488.776 1407 c 0,44,45
 630.16 1407 630.16 1407 754.095 1432.69 c 0,46,47
 764.321 1435.01 764.321 1435.01 791.651 1443.97 c 1,48,49
 821.027 1454.64 821.027 1454.64 843.156 1460.38 c 0,50,51
 863.47 1468 863.47 1468 883 1468 c 0,52,53
 892.07 1468 892.07 1468 900.51 1466.59 c 0,54,55
 936.848 1459.56 936.848 1459.56 955.79 1428.56 c 1,56,57
 974 1395.69 974 1395.69 974 1352.87 c 0,58,59
 974 1329.14 974 1329.14 975 1304.01 c 1,60,-1
 975 1276.47 l 2,61,62
 975 1230.93 975 1230.93 957.205 1197.66 c 0,63,64
 944.326 1173.58 944.326 1173.58 939.844 1134.99 c 0,65,66
 934.008 1084.75 934.008 1084.75 899.205 1044.36 c 0,67,68
 870.622 1011.19 870.622 1011.19 851.768 979.283 c 0,69,70
 833.61 947.861 833.61 947.861 826.18 929.896 c 0,71,72
 784.194 830.315 784.194 830.315 757.304 763.373 c 0,73,74
 730.949 697.767 730.949 697.767 713.636 632.657 c 0,75,76
 687.264 537.04 687.264 537.04 684.035 485.068 c 0,77,78
 677.443 378.138 677.443 378.138 677.342 365.779 c 2,79,-1
 678.462 333.916 l 1,80,81
 678.462 285.405 678.462 285.405 673.914 223.663 c 0,82,83
 669.086 161.286 669.086 161.286 643.401 111.757 c 0,84,85
 614.078 57.0146 614.078 57.0146 577.451 27.6318 c 0,86,87
 539.056 -3 539.056 -3 473.062 -3 c 2,88,-1
 461.101 -3 l 1,89,90
 379.646 0.693359 379.646 0.693359 353.151 49.0254 c 1,91,92
 332.762 90.7402 332.762 90.7402 332.762 161.371 c 0,93,94
 332.762 367.666 332.762 367.666 398.864 575.801 c 0,95,96
 427.163 664.534 427.163 664.534 502.674 851.92 c 0,1,2
EndSplineSet
EndChar

StartChar: eight
Encoding: 56 56 11
Width: 841
VWidth: 1597
Flags: W
LayerCount: 2
Fore
SplineSet
152.345 817.179 m 0,0,1
 78.7246 855.026 78.7246 855.026 57.8848 928.968 c 0,2,3
 40 992.086 40 992.086 40 1026.31 c 0,4,5
 40 1036.05 40 1036.05 41.374 1044.03 c 0,6,7
 57.5225 1129 57.5225 1129 61.6943 1146.15 c 0,8,9
 78.6934 1212.99 78.6934 1212.99 92.9795 1234.87 c 0,10,11
 105.861 1253.87 105.861 1253.87 107.319 1262.28 c 1,12,-1
 105.86 1268.87 l 1,13,-1
 133.006 1328.57 l 1,14,-1
 164.859 1359.39 l 1,15,-1
 188.825 1391.86 l 2,16,17
 193.058 1397.32 193.058 1397.32 230.322 1433.38 c 0,18,19
 246.624 1449.16 246.624 1449.16 268.674 1461.23 c 1,20,21
 278.12 1467.22 278.12 1467.22 326.121 1487.89 c 2,22,-1
 386.749 1514.33 l 1,23,-1
 390.027 1515.09 l 2,24,25
 415.607 1521 415.607 1521 456.97 1521 c 2,26,-1
 514.668 1521 l 2,27,28
 542.119 1521 542.119 1521 584.642 1518.45 c 0,29,30
 622.263 1515.97 622.263 1515.97 637.472 1508.17 c 1,31,32
 654.859 1504.67 654.859 1504.67 670.285 1493.37 c 128,-1,33
 685.711 1482.06 685.711 1482.06 708.855 1459.14 c 0,34,35
 733.501 1434.88 733.501 1434.88 743.99 1423.64 c 128,-1,36
 754.479 1412.39 754.479 1412.39 764.239 1396.11 c 128,-1,37
 774 1379.82 774 1379.82 774 1365.77 c 2,38,-1
 773.814 1361.81 l 1,39,40
 788 1314.36 788 1314.36 788 1273.84 c 2,41,-1
 788 1236.11 l 2,42,43
 788 1130.17 788 1130.17 755.454 1044.85 c 0,44,45
 726.88 969.941 726.88 969.941 683.212 901.767 c 1,46,47
 701.865 879.849 701.865 879.849 720.438 849.896 c 0,48,49
 743.896 812.063 743.896 812.063 766.301 781.899 c 2,50,-1
 767.467 780.329 l 1,51,-1
 768.36 778.6 l 2,52,53
 779.389 757.258 779.389 757.258 783.842 716.319 c 0,54,55
 787.796 684.764 787.796 684.764 787.994 655.892 c 1,56,-1
 800.586 591.222 l 2,57,58
 810 540.607 810 540.607 810 474.594 c 0,59,60
 810 409.386 810 409.386 800.841 328.658 c 0,61,62
 789.934 238.931 789.934 238.931 687.897 124.931 c 2,63,-1
 685.836 122.627 l 1,64,-1
 683.247 120.89 l 2,65,66
 621.17 79.2305 621.17 79.2305 556.852 37.5723 c 2,67,-1
 553.578 35.7744 l 1,68,-1
 477.398 14.3105 l 1,69,-1
 424.468 0 l 1,70,-1
 340.254 0 l 1,71,72
 331.84 -2 331.84 -2 321.14 -2 c 0,73,74
 308.561 -2 308.561 -2 285.88 0.219727 c 0,75,76
 248.53 5.3916 248.53 5.3916 214.812 12.5439 c 2,77,-1
 198.142 16.0801 l 1,78,-1
 197.821 18.0049 l 1,79,80
 174.025 18.8379 174.025 18.8379 152.778 33.0908 c 128,-1,81
 131.531 47.3438 131.531 47.3438 105.511 75.2598 c 0,82,83
 58.9219 124.349 58.9219 124.349 50.8037 139.433 c 0,84,85
 48.2832 144.043 48.2832 144.043 46.1172 151.633 c 128,-1,86
 43.9502 159.223 43.9502 159.223 41.2588 174.047 c 128,-1,87
 38.5674 188.871 38.5674 188.871 36.3672 202.638 c 128,-1,88
 34.166 216.405 34.166 216.405 29.6729 244.88 c 128,-1,89
 25.1797 273.354 25.1797 273.354 21.3145 296.736 c 2,90,-1
 21 298.636 l 1,91,-1
 21 309.268 l 2,92,93
 21 335.513 21 335.513 29.1045 422.761 c 0,94,95
 38.377 518.465 38.377 518.465 53.2832 561.736 c 2,96,-1
 53.5557 562.527 l 1,97,-1
 53.8828 563.298 l 2,98,99
 82.7227 631.071 82.7227 631.071 97.8965 654.146 c 0,100,101
 145.138 726.275 145.138 726.275 187.841 759.121 c 1,102,-1
 225.271 785.59 l 1,103,104
 190.502 797.864 190.502 797.864 152.345 817.179 c 0,0,1
336.295 1210.49 m 0,105,106
 279.069 1150.3 279.069 1150.3 279.069 1091.14 c 0,107,108
 280.126 1015.48 280.126 1015.48 329.054 974.771 c 0,109,110
 376.672 936 376.672 936 402.879 936 c 0,111,112
 410.03 936 410.03 936 416.328 940.366 c 0,113,114
 450.147 962.874 450.147 962.874 480.592 993.831 c 0,115,-1
 481.475 994.688 l 2,116,117
 508.511 1019.78 508.511 1019.78 529.432 1072.9 c 0,118,119
 551.931 1128.12 551.931 1128.12 551.931 1170 c 0,120,121
 551.931 1193.78 551.931 1193.78 543.977 1212.8 c 0,122,123
 531.859 1241.83 531.859 1241.83 508.924 1254.92 c 128,-1,124
 485.988 1268 485.988 1268 446.152 1268 c 0,125,126
 390.977 1268 390.977 1268 336.295 1210.49 c 0,105,106
356.331 635.889 m 1,127,128
 308.415 588.044 308.415 588.044 278.095 493.683 c 0,129,130
 264 445.864 264 445.864 264 409 c 0,131,132
 264 359.719 264 359.719 289.474 332.448 c 0,133,134
 331.031 288 331.031 288 410.091 288 c 0,135,136
 441.365 288 441.365 288 504.727 338.075 c 0,137,138
 559.008 381.498 559.008 381.498 567.078 465.982 c 0,139,140
 571 518.916 571 518.916 571 555.5 c 0,141,142
 571 590.639 571 590.639 567.479 609.124 c 0,143,144
 545.497 700 545.497 700 489.425 700 c 0,145,146
 437.36 700 437.36 700 356.331 635.889 c 1,127,128
EndSplineSet
EndChar

StartChar: nine
Encoding: 57 57 12
Width: 945
VWidth: 1597
Flags: W
LayerCount: 2
Fore
SplineSet
525.323 1208 m 0,0,1
 484.261 1208 484.261 1208 375.195 1167.28 c 0,2,3
 329.278 1151.05 329.278 1151.05 291.371 1049.53 c 0,4,5
 284.156 1029.99 284.156 1029.99 285 1010.38 c 0,6,7
 285 974.549 285 974.549 310.551 940.021 c 0,8,9
 357.77 876 357.77 876 409.574 876 c 0,10,11
 420.768 876 420.768 876 432.252 879.295 c 0,12,-1
 433.669 879.669 l 2,13,14
 455.535 884.939 455.535 884.939 528.206 908.662 c 0,15,16
 599.857 932.65 599.857 932.65 630.094 997.432 c 0,17,18
 646.787 1035.15 646.787 1035.15 648.018 1073.41 c 0,19,20
 647.86 1103.58 647.86 1103.58 636.547 1133.32 c 2,21,-1
 635.912 1134.99 l 1,22,-1
 635.595 1136.72 l 2,23,24
 627.742 1179.49 627.742 1179.49 534.501 1207.38 c 0,25,26
 531.624 1208 531.624 1208 525.323 1208 c 0,0,1
371.395 213.421 m 0,27,28
 379.039 455.337 379.039 455.337 480.134 641.457 c 1,29,30
 463.287 639.171 463.287 639.171 443.184 636.328 c 0,31,32
 379.729 627.356 379.729 627.356 343.085 625.115 c 0,33,34
 333.307 624 333.307 624 322.763 624 c 0,35,36
 288.561 624 288.561 624 251.945 631.301 c 0,37,38
 203.203 640.984 203.203 640.984 163.133 666.932 c 2,39,-1
 162.35 667.438 l 1,40,41
 125.367 695.503 125.367 695.503 101.854 739.006 c 0,42,43
 90.832 759.444 90.832 759.444 72.6104 793.858 c 0,44,45
 59.4863 820.418 59.4863 820.418 44.8916 872.061 c 2,46,-1
 44.6582 872.887 l 1,47,-1
 44.4854 873.727 l 2,48,49
 43.0215 880.838 43.0215 880.838 42 996.887 c 1,50,-1
 42 1001.85 l 2,51,52
 42 1126.38 42 1126.38 98.083 1251.47 c 0,53,54
 153.366 1374.67 153.366 1374.67 293.166 1423.88 c 0,55,56
 446.082 1471 446.082 1471 546.158 1471 c 0,57,58
 585.019 1471 585.019 1471 616.552 1463.05 c 0,59,60
 705.56 1440.79 705.56 1440.79 772.942 1397 c 0,61,62
 843.162 1351.38 843.162 1351.38 865.555 1299.74 c 0,63,64
 886.146 1252.25 886.146 1252.25 897.662 1188.46 c 0,65,66
 901 1168.02 901 1168.02 901 1144.85 c 0,67,68
 901 1095.05 901 1095.05 884.017 1037.57 c 0,69,70
 859.826 957.642 859.826 957.642 831.099 878.194 c 128,-1,71
 802.404 798.839 802.404 798.839 774.165 731.548 c 0,72,73
 746.695 666.088 746.695 666.088 722.865 595.148 c 1,74,75
 705.207 538.057 705.207 538.057 693.584 479.979 c 0,76,77
 687.926 448.975 687.926 448.975 685.978 394.36 c 0,78,79
 685.027 376.899 685.027 376.899 685 361.961 c 0,80,81
 685.977 334.692 685.977 334.692 687.66 324.926 c 0,82,83
 688.93 317.559 688.93 317.559 689.001 305.017 c 0,84,85
 689.978 281.299 689.978 281.299 683.736 241.055 c 0,86,87
 671.176 156.025 671.176 156.025 659.271 133.003 c 0,88,89
 628.522 82.582 628.522 82.582 603.843 55.7783 c 0,90,91
 550.56 -2.43652 550.56 -2.43652 481.284 -2.99609 c 0,92,93
 461.371 -4.07129 461.371 -4.07129 441.288 0.885742 c 0,94,95
 399.228 10.0352 399.228 10.0352 385.044 53.8008 c 128,-1,96
 370.862 97.5654 370.862 97.5654 370.22 175.894 c 0,97,98
 370.22 193.417 370.22 193.417 371.395 213.421 c 0,27,28
EndSplineSet
EndChar

StartChar: A
Encoding: 65 65 13
Width: 1378
VWidth: 1597
Flags: W
LayerCount: 2
Fore
SplineSet
722.985 427 m 1,0,-1
 721.966 427.073 l 2,1,2
 642.587 432.814 642.587 432.814 628.763 434.033 c 0,3,4
 591.355 435 591.355 435 568.737 435 c 0,5,6
 551.224 435 551.224 435 543.418 434.424 c 1,7,-1
 434.737 403.598 l 1,8,9
 410.758 379.172 410.758 379.172 392.509 343.231 c 0,10,11
 371.7 302.244 371.7 302.244 361.645 266.111 c 0,12,13
 350.786 227.088 350.786 227.088 333.48 179.581 c 0,14,15
 315.55 130.356 315.55 130.356 293.754 97.7832 c 0,16,17
 272.105 66.1436 272.105 66.1436 223.585 40.0078 c 0,18,19
 177.291 14.5234 177.291 14.5234 128.228 8.20996 c 0,20,21
 118.331 6.97363 118.331 6.97363 108.258 8.00879 c 0,22,23
 64.8652 8.81738 64.8652 8.81738 32.8398 35.915 c 2,24,-1
 32.375 36.3086 l 1,25,-1
 31.9307 36.7236 l 2,26,27
 9.44629 57.708 9.44629 57.708 8.98242 95.7656 c 0,28,29
 8.07227 128.966 8.07227 128.966 21.1934 166.696 c 1,30,31
 31.709 202.178 31.709 202.178 50.1426 243.653 c 0,32,33
 68.4053 284.743 68.4053 284.743 85.1963 317.817 c 0,34,35
 101.662 350.25 101.662 350.25 117.628 382.181 c 0,36,37
 132.664 412.255 132.664 412.255 137.383 425.234 c 0,38,39
 163.02 499.868 163.02 499.868 311.507 827.09 c 0,40,41
 406.767 1031.12 406.767 1031.12 500.235 1254.78 c 0,42,43
 505.644 1269.03 505.644 1269.03 517.048 1299.74 c 0,44,45
 528.696 1331.1 528.696 1331.1 535.006 1348.91 c 0,46,47
 541.714 1367.83 541.714 1367.83 555.423 1398.25 c 0,48,49
 569.255 1428.95 569.255 1428.95 581.094 1449.09 c 128,-1,50
 592.856 1469.11 592.856 1469.11 610.569 1493.57 c 0,51,52
 629.11 1519.18 629.11 1519.18 648.079 1536.46 c 0,53,54
 666.731 1553.45 666.731 1553.45 692.012 1569.66 c 0,55,56
 718.058 1586.35 718.058 1586.35 747.036 1596.57 c 1,57,58
 779.717 1606.82 779.717 1606.82 806.815 1607.97 c 0,59,-1
 815.466 1608 l 2,60,61
 839.399 1608 839.399 1608 857.777 1603.06 c 0,62,63
 882.593 1596.58 882.593 1596.58 903.069 1579.89 c 0,64,65
 920.948 1565.32 920.948 1565.32 934.213 1549.45 c 0,66,67
 947.657 1533.35 947.657 1533.35 960.062 1509.47 c 0,68,69
 971.77 1486.93 971.77 1486.93 979.649 1467.35 c 128,-1,70
 987.538 1447.74 987.538 1447.74 995.311 1421.12 c 0,71,72
 1003.01 1394.76 1003.01 1394.76 1006.91 1376.4 c 0,73,74
 1010.57 1359.18 1010.57 1359.18 1016.35 1334.98 c 0,75,76
 1021.98 1311.4 1021.98 1311.4 1025.15 1299.41 c 0,77,78
 1042.39 1241.56 1042.39 1241.56 1085.89 1070.94 c 1,79,80
 1111.35 970.646 1111.35 970.646 1152.19 814.263 c 0,81,82
 1174.03 728.885 1174.03 728.885 1211.08 594.66 c 0,83,84
 1261.73 412.923 1261.73 412.923 1284.32 353.975 c 0,85,86
 1289.58 340.314 1289.58 340.314 1298.29 313.136 c 0,87,88
 1306.77 286.694 1306.77 286.694 1311.71 271.905 c 0,89,90
 1316.89 256.356 1316.89 256.356 1324.06 230.741 c 0,91,92
 1331.55 203.995 1331.55 203.995 1333.78 186.699 c 0,93,94
 1335.84 170.741 1335.84 170.741 1337.89 148.264 c 2,95,-1
 1337.99 147.134 l 1,96,-1
 1337.99 135 l 2,97,98
 1337.99 116.655 1337.99 116.655 1334.12 102.484 c 0,99,100
 1329.6 85.5176 1329.6 85.5176 1320.72 66.1064 c 0,101,102
 1310.95 44.7305 1310.95 44.7305 1295 28.1592 c 0,103,104
 1279.92 12.498 1279.92 12.498 1256.88 -2.1123 c 0,105,106
 1234.28 -16.4424 1234.28 -16.4424 1205.96 -27.334 c 2,107,-1
 1205.43 -27.5371 l 1,108,109
 1183.04 -35 1183.04 -35 1162.99 -35 c 0,110,111
 1139.84 -35 1139.84 -35 1119.35 -25.1514 c 0,112,113
 1084.02 -9.38184 1084.02 -9.38184 1061.57 28.3301 c 0,114,115
 1041.79 61.5625 1041.79 61.5625 1026.7 104.899 c 0,116,117
 1011.89 147.427 1011.89 147.427 1001.5 196.616 c 0,118,119
 991.536 243.827 991.536 243.827 981.94 286.606 c 1,120,121
 971.475 328.396 971.475 328.396 959.217 362.983 c 0,122,123
 947.351 396.329 947.351 396.329 934.919 407.405 c 0,124,125
 929.663 412.09 929.663 412.09 923.468 416.427 c 0,126,127
 920.207 418.709 920.207 418.709 915.762 419.81 c 0,128,129
 905.541 422.34 905.541 422.34 898.518 424.426 c 0,130,131
 895.16 425.423 895.16 425.423 885.575 426.134 c 0,132,133
 873.915 427 873.915 427 870.236 427 c 2,134,-1
 722.985 427 l 1,0,-1
800.797 1027.6 m 0,135,136
 786.383 1083.38 786.383 1083.38 764.589 1123.61 c 1,137,-1
 654.845 937.864 l 1,138,-1
 577.202 720.538 l 1,139,-1
 717.722 733.122 l 1,140,-1
 855.287 719.854 l 1,141,142
 850.798 781.124 850.798 781.124 838.673 851.502 c 0,143,144
 823.419 940.039 823.419 940.039 800.797 1027.6 c 0,135,136
EndSplineSet
EndChar

StartChar: B
Encoding: 66 66 14
Width: 1081
VWidth: 1597
Flags: W
LayerCount: 2
Fore
SplineSet
370.988 1359.51 m 0,0,1
 364.733 1359.36 364.733 1359.36 357.867 1358.7 c 1,2,3
 374.677 1257.42 374.677 1257.42 374.677 1080 c 0,4,5
 374.677 1065.93 374.677 1065.93 370.44 1042.89 c 0,6,7
 366.598 1022 366.598 1022 363.863 1006.14 c 0,8,9
 361.609 993.068 361.609 993.068 363 977.521 c 0,10,11
 364.078 965.478 364.078 965.478 369.045 958.725 c 0,12,13
 374.024 951.752 374.024 951.752 389.957 950.39 c 0,14,15
 414.548 948.287 414.548 948.287 443.674 954.776 c 0,16,17
 475.59 961.889 475.59 961.889 510.9 974.307 c 0,18,19
 546.658 986.882 546.658 986.882 571.989 998.36 c 0,20,21
 596.936 1009.67 596.936 1009.67 612.501 1019.07 c 0,22,23
 661.843 1046.45 661.843 1046.45 684.957 1077.87 c 0,24,25
 704.598 1104.57 704.598 1104.57 704.598 1128 c 2,26,-1
 704.598 1132.21 l 1,27,28
 702.566 1159.63 702.566 1159.63 686.696 1187.55 c 0,29,30
 670.18 1216.61 670.18 1216.61 639.585 1242.1 c 0,31,32
 607.185 1269.09 607.185 1269.09 568.433 1291.4 c 128,-1,33
 529.516 1313.8 529.516 1313.8 487.118 1330.13 c 0,34,35
 461.867 1340.62 461.867 1340.62 445.895 1345.14 c 0,36,37
 428.766 1349.99 428.766 1349.99 406.7 1355.35 c 0,38,39
 387.947 1359.91 387.947 1359.91 370.988 1359.51 c 0,0,1
438.675 732 m 0,40,41
 408.75 732 408.75 732 376.917 724.388 c 0,42,43
 361.899 720.232 361.899 720.232 353.186 707.504 c 0,44,45
 341.867 690.971 341.867 690.971 338.652 665.596 c 0,46,47
 334.954 636.409 334.954 636.409 334.954 609.607 c 0,48,49
 334.954 582.383 334.954 582.383 337.638 550.872 c 0,50,51
 340.415 518.28 340.415 518.28 339.362 502.503 c 0,52,53
 339.196 490.554 339.196 490.554 334.901 423.814 c 0,54,55
 331.643 383.524 331.643 383.524 331.643 351.012 c 0,56,57
 331.643 329.704 331.643 329.704 332.707 311.348 c 0,58,59
 335.57 269.319 335.57 269.319 349.304 251.537 c 0,60,61
 359.563 237.368 359.563 237.368 384.858 233.515 c 0,62,63
 402.339 231 402.339 231 422.124 231 c 0,64,65
 439.929 231 439.929 231 460.057 233.606 c 0,66,67
 505.086 239.159 505.086 239.159 539.016 246.481 c 128,-1,68
 573.037 253.823 573.037 253.823 604.512 262.227 c 0,69,70
 664.119 279.861 664.119 279.861 697.226 310.606 c 128,-1,71
 730.334 341.351 730.334 341.351 741.648 388.491 c 0,72,73
 747.632 410.872 747.632 410.872 747.632 433.876 c 0,74,75
 747.632 498.368 747.632 498.368 703.455 569.311 c 0,76,77
 647.658 659.397 647.658 659.397 556.513 703.6 c 0,78,79
 497.689 732 497.689 732 438.675 732 c 0,40,41
808.617 925.158 m 2,80,81
 802.588 920.476 802.588 920.476 796.947 916.061 c 1,82,83
 851.016 895.222 851.016 895.222 893.65 865.338 c 0,84,85
 953.858 823.138 953.858 823.138 987.011 768.885 c 0,86,87
 1019.68 715.422 1019.68 715.422 1032.51 653.224 c 0,88,89
 1040 616.946 1040 616.946 1040 578.688 c 0,90,91
 1040 552.162 1040 552.162 1035.76 524.916 c 0,92,93
 1027.14 460.276 1027.14 460.276 998.95 397.046 c 128,-1,94
 970.704 333.681 970.704 333.681 924.816 276.062 c 0,95,96
 845.651 176.118 845.651 176.118 697.934 101.885 c 1,97,98
 546.077 30.2168 546.077 30.2168 370.708 2.39062 c 0,99,100
 281.105 -12 281.105 -12 205 -12 c 0,101,102
 134.604 -12 134.604 -12 70.1729 0.470703 c 0,103,104
 38.7607 6.55957 38.7607 6.55957 28.1465 25.0781 c 0,105,106
 20.7939 37.9053 20.7939 37.9053 18.2207 57.8604 c 0,107,108
 15 79.709 15 79.709 15 89.1846 c 0,109,110
 15 103.466 15 103.466 18.0283 153.362 c 1,111,112
 20 203.052 20 203.052 20 214.217 c 2,113,-1
 20 222.939 l 2,114,115
 20 271.773 20 271.773 30.1465 360.284 c 0,116,117
 35 404.504 35 404.504 35 442.957 c 2,118,-1
 35 455.558 l 2,119,120
 35 487.725 35 487.725 32.1738 514.71 c 0,121,122
 24 573.717 24 573.717 24 653.283 c 2,123,-1
 24 671.83 l 1,124,125
 25.0107 762.001 25.0107 762.001 30.585 827.32 c 0,126,127
 36.0664 891.56 36.0664 891.56 42.0527 981.001 c 0,128,129
 48 1069.87 48 1069.87 48 1134.03 c 0,130,131
 48 1151.75 48 1151.75 40.7334 1202.93 c 0,132,133
 33 1257.4 33 1257.4 33 1301.22 c 0,134,135
 33 1349.87 33 1349.87 51.5225 1380.99 c 1,136,137
 94.5518 1448.76 94.5518 1448.76 164.56 1494.34 c 0,138,139
 233.806 1539.43 233.806 1539.43 319.177 1557.89 c 0,140,141
 405.633 1576 405.633 1576 496.604 1576 c 0,142,143
 588.183 1576 588.183 1576 674.683 1554.22 c 0,144,145
 761.554 1532.35 761.554 1532.35 824.696 1493.54 c 0,146,147
 853.691 1475.47 853.691 1475.47 878.765 1455.72 c 128,-1,148
 903.86 1435.96 903.86 1435.96 928.362 1411.71 c 0,149,150
 953.619 1386.71 953.619 1386.71 971.489 1359.95 c 128,-1,151
 989.308 1333.26 989.308 1333.26 1002.26 1301.86 c 0,152,153
 1015.84 1267.86 1015.84 1267.86 1017 1234.28 c 1,154,-1
 1017 1226.12 l 2,155,156
 1017 1197.87 1017 1197.87 1011.64 1167.72 c 2,157,-1
 1011.51 1167.03 l 1,158,-1
 1011.35 1166.34 l 2,159,160
 1003.58 1134.07 1003.58 1134.07 986.462 1103.57 c 0,161,162
 969.87 1074 969.87 1074 951.431 1051.92 c 0,163,164
 933.449 1030.39 933.449 1030.39 906.328 1005.12 c 0,165,166
 879.508 980.123 879.508 980.123 858.617 963.927 c 2,167,-1
 808.617 925.158 l 2,80,81
EndSplineSet
EndChar

StartChar: C
Encoding: 67 67 15
Width: 1374
VWidth: 1597
Flags: W
LayerCount: 2
Fore
SplineSet
558.057 1535.98 m 0,0,1
 669.73 1585.68 669.73 1585.68 784.295 1599.75 c 0,2,3
 814.734 1604 814.734 1604 845.387 1604 c 0,4,5
 1024.07 1604 1024.07 1604 1225.44 1480.08 c 0,6,7
 1243.1 1468.66 1243.1 1468.66 1256.11 1459.29 c 128,-1,8
 1269.15 1449.9 1269.15 1449.9 1284.62 1437.52 c 0,9,10
 1301.94 1423.67 1301.94 1423.67 1313.19 1407.75 c 0,11,12
 1325.16 1391.93 1325.16 1391.93 1332.1 1374.57 c 0,13,14
 1340 1356.13 1340 1356.13 1340 1335 c 0,15,16
 1340 1311.77 1340 1311.77 1330.42 1287.24 c 0,17,18
 1312.38 1236.03 1312.38 1236.03 1281.68 1205.32 c 0,19,20
 1249.5 1173.14 1249.5 1173.14 1210.44 1164.6 c 0,21,22
 1185.81 1159 1185.81 1159 1158 1159 c 0,23,24
 1145.97 1159 1145.97 1159 1132.97 1160.08 c 0,25,26
 1091.61 1163.34 1091.61 1163.34 1044.76 1178.93 c 0,27,28
 1001.07 1193.47 1001.07 1193.47 954.424 1210.12 c 0,29,30
 907.558 1226.86 907.558 1226.86 860.982 1246.23 c 0,31,32
 817.038 1265.47 817.038 1265.47 773.517 1276.9 c 0,33,34
 728.242 1288.52 728.242 1288.52 688.948 1294.36 c 0,35,36
 674.003 1297 674.003 1297 660.532 1297 c 0,37,38
 640.428 1297 640.428 1297 621.863 1292.85 c 0,39,40
 540.574 1277.58 540.574 1277.58 475.425 1237.08 c 128,-1,41
 410.125 1196.48 410.125 1196.48 369.949 1141 c 0,42,43
 328.87 1084.26 328.87 1084.26 304.478 1015.13 c 0,44,45
 280.147 945.281 280.147 945.281 279.136 874.741 c 2,46,-1
 279.136 859.853 l 2,47,48
 280.161 795.66 280.161 795.66 294.543 731.307 c 0,49,50
 310.796 660.406 310.796 660.406 346.324 598.636 c 0,51,52
 385.25 530.752 385.25 530.752 459.637 475.88 c 0,53,54
 536.076 419.494 536.076 419.494 628.087 376.939 c 0,55,56
 723.283 333 723.283 333 819.89 333 c 0,57,58
 925.246 333 925.246 333 1033.83 388.59 c 0,59,60
 1042.77 393.869 1042.77 393.869 1060.56 404.567 c 0,61,62
 1080.41 416.501 1080.41 416.501 1096.42 424.89 c 0,63,64
 1112.04 433.506 1112.04 433.506 1133.22 442.508 c 0,65,66
 1156.02 452.196 1156.02 452.196 1174.52 455.181 c 0,67,68
 1196.57 458.737 1196.57 458.737 1218.78 450.408 c 0,69,70
 1241.76 441.79 1241.76 441.79 1257.38 420.478 c 0,71,72
 1283.79 382.073 1283.79 382.073 1285 338.347 c 1,73,74
 1285 299.151 1285 299.151 1265.61 266.422 c 0,75,76
 1247.78 235.216 1247.78 235.216 1214.41 204.584 c 0,77,78
 1182.34 175.145 1182.34 175.145 1148.07 153.002 c 0,79,80
 1114.56 131.354 1114.56 131.354 1072.75 110.311 c 0,81,82
 1030.08 89.4639 1030.08 89.4639 1000.66 77.1543 c 128,-1,83
 971.203 64.832 971.203 64.832 941.848 54.5986 c 0,84,85
 834.474 16.0459 834.474 16.0459 723.346 15 c 1,86,-1
 710.464 15 l 2,87,88
 606.093 15 606.093 15 513.8 44.4248 c 1,89,90
 415.794 74.5703 415.794 74.5703 325.036 132.289 c 0,91,92
 234.907 189.921 234.907 189.921 170.731 265.178 c 128,-1,93
 106.697 340.269 106.697 340.269 62.8486 431.287 c 0,94,95
 18.791 522.737 18.791 522.737 4.26758 619.288 c 0,96,97
 -3 666.59 -3 666.59 -3 715.123 c 0,98,99
 -1.96582 774.259 -1.96582 774.259 8.31641 836.062 c 0,100,101
 26.8203 947.672 26.8203 947.672 73.0908 1050.34 c 0,102,103
 119.201 1152.66 119.201 1152.66 190.837 1247.4 c 0,104,105
 263.74 1342.18 263.74 1342.18 355.272 1414.28 c 0,106,107
 447.097 1486.6 447.097 1486.6 558.057 1535.98 c 0,0,1
EndSplineSet
EndChar

StartChar: D
Encoding: 68 68 16
Width: 1132
VWidth: 1597
Flags: W
LayerCount: 2
Fore
SplineSet
319.875 512.975 m 0,0,1
 316.62 371.391 316.62 371.391 316.135 283.93 c 1,2,3
 401.214 294.972 401.214 294.972 477.091 332.098 c 0,4,5
 566.765 375.02 566.765 375.02 631.137 441.501 c 0,6,7
 695.21 508.76 695.21 508.76 739.502 595.572 c 0,8,9
 783.669 682.144 783.669 682.144 797.302 772.299 c 0,10,11
 802.529 809.604 802.529 809.604 802.529 849 c 0,12,13
 802.529 902.781 802.529 902.781 792.034 956.549 c 0,14,15
 773.323 1049.72 773.323 1049.72 721.407 1124.76 c 0,16,17
 705.454 1148.47 705.454 1148.47 668.83 1182.45 c 0,18,19
 631.024 1217.52 631.024 1217.52 580.783 1255.16 c 0,20,21
 531.508 1292.08 531.508 1292.08 478.27 1317.86 c 0,22,23
 426.04 1342.67 426.04 1342.67 380.411 1349.19 c 0,24,25
 371.091 1350 371.091 1350 363.063 1350 c 0,26,27
 334.521 1350 334.521 1350 313.286 1335.36 c 0,28,29
 299.89 1325.22 299.89 1325.22 294.996 1295.38 c 0,30,31
 292.005 1276.22 292.005 1276.22 292.005 1258 c 0,32,33
 292.005 1240.86 292.005 1240.86 293.99 1224.04 c 0,34,35
 299.472 1185.99 299.472 1185.99 307.005 1140.22 c 0,36,37
 314.835 1092.64 314.835 1092.64 316.006 1075.5 c 0,38,39
 323.708 952.707 323.708 952.707 323.708 816 c 0,40,41
 323.708 679.679 323.708 679.679 319.875 512.975 c 0,0,1
365.74 1597.87 m 0,42,43
 408.016 1601.84 408.016 1601.84 424.075 1603.8 c 0,44,45
 460.845 1608 460.845 1608 496.433 1608 c 0,46,47
 564.3 1608 564.3 1608 628.859 1593.24 c 0,48,49
 728.223 1570.7 728.223 1570.7 805.289 1519.33 c 0,50,51
 877.643 1468.96 877.643 1468.96 934.173 1399.09 c 128,-1,52
 990.767 1329.14 990.767 1329.14 1025.58 1248.06 c 0,53,54
 1060.09 1167.69 1060.09 1167.69 1076.56 1081.89 c 0,55,56
 1089 1019.6 1089 1019.6 1089 960.097 c 0,57,58
 1089 937.727 1089 937.727 1086.93 914.603 c 0,59,60
 1079.7 812.591 1079.7 812.591 1039.53 704.261 c 0,61,62
 999.57 596.521 999.57 596.521 935.547 499.718 c 0,63,64
 871.689 403.165 871.689 403.165 778.95 316.116 c 0,65,66
 683.574 229.082 683.574 229.082 577.979 165.18 c 0,67,68
 471.894 100.98 471.894 100.98 350.106 61.1729 c 0,69,70
 229.804 21.0293 229.804 21.0293 119.354 18 c 1,71,-1
 114 18 l 2,72,73
 90.5088 18 90.5088 18 72.5234 26.0439 c 2,74,-1
 71.8701 26.3359 l 1,75,-1
 71.2354 26.6641 l 2,76,77
 51.1631 37.0371 51.1631 37.0371 39.7812 52.2012 c 0,78,79
 28.7236 66.9346 28.7236 66.9346 23.5957 89.2949 c 0,80,81
 19.1885 108.511 19.1885 108.511 18.0596 124.375 c 0,82,83
 17 139.258 17 139.258 17 160.44 c 2,84,-1
 17 171.1 l 2,85,86
 17 227.225 17 227.225 26.0635 346.268 c 0,87,88
 33.0127 444.396 33.0127 444.396 34 507.52 c 0,89,90
 34 527.012 34 527.012 33.0322 543.884 c 0,91,92
 17 873.043 17 873.043 17 1212.75 c 0,93,94
 17 1234.21 17 1234.21 14.5586 1268.75 c 0,95,96
 12.0352 1304.45 12.0352 1304.45 11 1328.53 c 1,97,-1
 11 1340.66 l 2,98,99
 11 1361.14 11 1361.14 13.1133 1383.66 c 0,100,101
 16.542 1416.89 16.542 1416.89 30.3008 1445.77 c 0,102,103
 43.7158 1473.94 43.7158 1473.94 68.25 1500.1 c 0,104,105
 88.3506 1522.7 88.3506 1522.7 117.143 1538.56 c 0,106,107
 144.379 1553.56 144.379 1553.56 170.222 1562.95 c 128,-1,108
 196.022 1572.33 196.022 1572.33 233.901 1579.97 c 0,109,110
 272.072 1587.66 272.072 1587.66 297.685 1590.78 c 0,111,112
 322.634 1593.82 322.634 1593.82 365.74 1597.87 c 0,42,43
EndSplineSet
EndChar

StartChar: E
Encoding: 69 69 17
Width: 1291
VWidth: 1597
Flags: W
LayerCount: 2
Fore
SplineSet
300.1 1023.22 m 0,1,2
 301.377 1002.55 301.377 1002.55 302.086 988.421 c 1,3,4
 372.187 982.719 372.187 982.719 490.132 981.498 c 0,5,6
 631.547 979.992 631.547 979.992 655.546 978.975 c 2,7,-1
 656.271 978.943 l 2,8,9
 666.005 978.035 666.005 978.035 681.706 978 c 0,10,11
 711.742 979.006 711.742 979.006 757.984 980.968 c 0,12,13
 833.383 984.989 833.383 984.989 896.301 986 c 1,14,-1
 937.255 986 l 2,15,16
 981.716 986 981.716 986 1026.08 980.811 c 0,17,18
 1094 972.044 1094 972.044 1125.71 950.904 c 0,19,20
 1165.61 925.163 1165.61 925.163 1177.61 860.421 c 0,21,22
 1182 835.163 1182 835.163 1182 809 c 0,23,24
 1182 774.721 1182 774.721 1173.16 741.561 c 0,25,26
 1156 676.61 1156 676.61 1110.4 657.835 c 0,27,28
 1086.51 648.276 1086.51 648.276 1056.44 646.541 c 0,29,30
 1028.31 644.918 1028.31 644.918 1004.18 647.66 c 0,31,32
 980.982 650.202 980.982 650.202 947.812 654.767 c 0,33,34
 916.175 659.122 916.175 659.122 901.197 660.055 c 0,35,36
 690.995 673 690.995 673 497.864 673 c 0,37,38
 487.286 673 487.286 673 447.271 675.559 c 0,39,40
 409.084 678 409.084 678 385.336 678 c 0,41,42
 364.503 678 364.503 678 338.7 671.128 c 0,43,44
 318.228 665.938 318.228 665.938 310.491 656.391 c 0,45,46
 297.827 641.909 297.827 641.909 295.239 613.36 c 0,47,48
 294.243 601.209 294.243 601.209 294.243 586.167 c 0,49,50
 294.243 562.921 294.243 562.921 297.349 532.246 c 0,51,52
 302.817 480.803 302.817 480.803 302.817 468.522 c 0,53,54
 302.817 454.041 302.817 454.041 298.335 421.83 c 0,55,56
 294.2 392.112 294.2 392.112 293.698 375.474 c 0,57,58
 293.267 361.189 293.267 361.189 298.59 338.812 c 1,59,60
 301.849 332.091 301.849 332.091 311.541 327.399 c 0,61,62
 325.903 320.312 325.903 320.312 349.226 318.394 c 0,63,64
 376.638 316.025 376.638 316.025 399.758 316.494 c 0,65,66
 423.783 316.981 423.783 316.981 454.225 318.94 c 0,67,68
 486.216 321 486.216 321 497.864 321 c 2,69,-1
 981.194 321 l 2,70,71
 996.384 321 996.384 321 1021.79 324.293 c 0,72,73
 1049.3 327.858 1049.3 327.858 1072.29 329.901 c 0,74,75
 1096.14 332.022 1096.14 332.022 1122.5 331.495 c 0,76,77
 1151.71 330.911 1151.71 330.911 1171.98 322.351 c 0,78,79
 1201.01 310.192 1201.01 310.192 1216.95 280.972 c 0,80,81
 1231.01 255.195 1231.01 255.195 1235.71 225.833 c 0,82,83
 1239 203.861 1239 203.861 1239 182 c 2,84,-1
 1239 170.519 l 1,85,86
 1237.88 141.289 1237.88 141.289 1232.18 119.655 c 0,87,88
 1225.11 92.542 1225.11 92.542 1211.21 71.9922 c 0,89,90
 1196.9 50.8389 1196.9 50.8389 1178.2 38.5889 c 0,91,92
 1161.1 27.3809 1161.1 27.3809 1143.65 21.3652 c 128,-1,93
 1126.03 15.29 1126.03 15.29 1101.24 13.5605 c 0,94,95
 1078.47 11.9717 1078.47 11.9717 1061.69 12.5127 c 0,96,97
 1045.85 13.0244 1045.85 13.0244 1020.5 14.5449 c 0,98,99
 996.25 16 996.25 16 981.194 16 c 2,100,-1
 301.745 16 l 2,101,102
 287.461 16 287.461 16 253.335 11.7227 c 0,103,104
 218.526 7.11523 218.526 7.11523 188.75 5.06152 c 0,105,106
 173.892 4 173.892 4 157 4 c 0,107,108
 142.22 4 142.22 4 125.44 5.04883 c 0,109,110
 88.1426 7.37988 88.1426 7.37988 60.4355 21.835 c 0,111,112
 30.0146 37.2139 30.0146 37.2139 16.0879 68.4834 c 0,113,114
 0 102.557 0 102.557 0 152.797 c 2,115,-1
 0 158.61 l 2,116,117
 0 203.398 0 203.398 7.35742 243.114 c 0,118,119
 14.2812 284.325 14.2812 284.325 21.2354 332.451 c 0,120,121
 27 373.413 27 373.413 27 397.929 c 2,122,-1
 27 405.359 l 2,123,124
 26 442.715 26 442.715 26 487.067 c 0,125,126
 26 612.429 26 612.429 32.0127 804.671 c 0,127,128
 40 1035.87 40 1035.87 40 1148.83 c 2,129,-1
 40 1174.02 l 2,130,131
 40 1192.66 40 1192.66 36.0469 1255.85 c 0,132,133
 32 1318.6 32 1318.6 32 1361.99 c 2,134,-1
 32 1371.67 l 2,135,136
 32 1412.48 32 1412.48 40.3154 1459.81 c 0,137,138
 49.1113 1516.27 49.1113 1516.27 72.084 1549.66 c 0,139,140
 84.2334 1567.97 84.2334 1567.97 104.946 1579.62 c 0,141,142
 124.234 1590.82 124.234 1590.82 150.314 1595.56 c 0,143,144
 171.249 1599.75 171.249 1599.75 190.773 1600.91 c 0,145,146
 200.109 1602 200.109 1602 211 1602 c 0,147,148
 224.168 1602 224.168 1602 240.569 1599.88 c 0,149,150
 268.266 1597.95 268.266 1597.95 278.907 1597.47 c 0,151,152
 291.191 1596.92 291.191 1596.92 317.87 1593.81 c 0,153,154
 404.981 1584.02 404.981 1584.02 504.561 1582 c 0,155,156
 532.657 1581.98 532.657 1581.98 562.646 1581 c 0,157,158
 641.632 1581.02 641.632 1581.02 737.043 1583.99 c 0,159,160
 868.447 1588 868.447 1588 928.682 1588 c 0,161,162
 939.776 1588 939.776 1588 980.34 1589.97 c 0,163,164
 1020.61 1592.01 1020.61 1592.01 1046.5 1591.5 c 0,165,166
 1074.37 1590.94 1074.37 1590.94 1106.66 1582.73 c 0,167,168
 1143.69 1573.32 1143.69 1573.32 1163.04 1551.2 c 0,169,170
 1192.84 1515.2 1192.84 1515.2 1194 1451.23 c 1,171,172
 1194 1393.09 1194 1393.09 1168.36 1341.82 c 0,173,174
 1139.92 1284.95 1139.92 1284.95 1088.97 1274.5 c 0,175,176
 1016.49 1260 1016.49 1260 915.821 1260 c 0,177,178
 814.317 1260 814.317 1260 700.042 1266.04 c 0,179,180
 615.063 1270 615.063 1270 558.95 1270 c 2,181,-1
 523.584 1270 l 2,182,183
 500.794 1270 500.794 1270 454.462 1277.91 c 0,184,185
 412.911 1285 412.911 1285 379.442 1285 c 0,186,187
 351.505 1285 351.505 1285 333.367 1274.81 c 0,188,189
 321.099 1268.14 321.099 1268.14 312.808 1245.71 c 0,190,191
 302.548 1217.94 302.548 1217.94 299.535 1178.16 c 0,192,193
 296.513 1144.33 296.513 1144.33 296.389 1113.29 c 1,194,195
 297.458 1106.74 297.458 1106.74 297.458 1101.36 c 0,196,197
 297.458 1065.96 297.458 1065.96 300.1 1023.22 c 0,1,2
EndSplineSet
EndChar

StartChar: F
Encoding: 70 70 18
Width: 1197
VWidth: 1597
Flags: W
LayerCount: 2
Fore
SplineSet
458.257 962.936 m 0,0,1
 556.788 970 556.788 970 635.882 970 c 2,2,-1
 638.051 970 l 2,3,4
 673.844 970 673.844 970 772.589 960.918 c 0,5,6
 788.194 960 788.194 960 819.144 960 c 0,7,8
 851.273 960 851.273 960 898.773 960.991 c 2,9,-1
 903.248 961.087 l 1,10,-1
 907.496 959.85 l 2,11,12
 952.616 945.67 952.616 945.67 973.36 904.181 c 0,13,14
 988.926 873.051 988.926 873.051 988 836.519 c 2,15,-1
 988 824 l 2,16,17
 988 793.284 988 793.284 968.232 742.766 c 0,18,19
 967.433 740.794 967.433 740.794 963.979 732.103 c 128,-1,20
 960.523 723.41 960.523 723.41 959.561 721.202 c 128,-1,21
 958.597 718.993 958.597 718.993 955.457 711.775 c 128,-1,22
 952.316 704.558 952.316 704.558 950.739 702.163 c 128,-1,23
 949.162 699.77 949.162 699.77 945.979 694.302 c 128,-1,24
 942.797 688.834 942.797 688.834 940.248 686.529 c 128,-1,25
 937.699 684.226 937.699 684.226 934.118 680.785 c 128,-1,26
 930.537 677.344 930.537 677.344 926.66 675.406 c 128,-1,27
 922.783 673.469 922.783 673.469 918.353 672.105 c 0,28,-1
 916.647 671.646 l 1,29,30
 839.594 655 839.594 655 766.009 655 c 2,31,-1
 746.043 655 l 1,32,33
 618.655 658.881 618.655 658.881 607.975 658.998 c 2,34,-1
 529.988 657 l 2,35,36
 491.557 657 491.557 657 477.408 661.578 c 1,37,38
 467.543 662.54 467.543 662.54 441.616 665.196 c 0,39,40
 427.627 667.039 427.627 667.039 404.318 667.506 c 0,41,42
 382.359 667.946 382.359 667.946 369.017 665.485 c 0,43,44
 356.137 663.11 356.137 663.11 342.434 656.996 c 0,45,46
 332.047 652.534 332.047 652.534 326.137 644.954 c 0,47,48
 305.79 620.318 305.79 620.318 298.182 582.321 c 0,49,50
 292.13 554.561 292.13 554.561 292.13 525.093 c 0,51,52
 292.13 513.21 292.13 513.21 294.136 499.853 c 0,53,54
 296.369 478.039 296.369 478.039 302.905 400.685 c 0,55,56
 306.093 359.174 306.093 359.174 315.714 301.268 c 0,57,58
 320.309 271.689 320.309 271.689 319.24 243.501 c 0,59,60
 319.185 221.078 319.185 221.078 316.931 201.063 c 0,61,62
 311.126 151.581 311.126 151.581 294.624 113.907 c 0,63,64
 276.441 72.3926 276.441 72.3926 233.322 44.1699 c 0,65,66
 202.043 22.9766 202.043 22.9766 130.866 9.47852 c 0,67,68
 123.476 8 123.476 8 117 8 c 0,69,70
 107.418 8 107.418 8 74.4053 20.5215 c 0,71,72
 49.8457 28.9199 49.8457 28.9199 36.9229 49.8857 c 128,-1,73
 24 70.8516 24 70.8516 24 98.2988 c 0,74,75
 23 159.335 23 159.335 23 191.499 c 0,76,77
 23 222.811 23 222.811 24.3281 230.529 c 0,78,79
 26 245.226 26 245.226 26 262.224 c 0,80,81
 26 295.419 26 295.419 20.2148 335.585 c 0,82,83
 19 345.004 19 345.004 19 370.732 c 0,84,85
 19 424.463 19 424.463 24.0156 556.647 c 0,86,87
 29.0195 695.295 29.0195 695.295 33.0244 779.685 c 0,88,89
 39 914.764 39 914.764 39 1285.31 c 0,90,91
 39 1295.74 39 1295.74 38.5039 1322.17 c 128,-1,92
 38.0068 1348.68 38.0068 1348.68 37.5098 1365.51 c 0,93,94
 36.9746 1383.68 36.9746 1383.68 39.0635 1412.01 c 128,-1,95
 41.1436 1440.22 41.1436 1440.22 44.3223 1459.21 c 0,96,97
 47.6445 1479.06 47.6445 1479.06 55.7832 1502.72 c 0,98,99
 64.5645 1528.24 64.5645 1528.24 77.5 1544.95 c 128,-1,100
 90.458 1561.69 90.458 1561.69 109.837 1574.6 c 0,101,102
 130.163 1588.58 130.163 1588.58 156.298 1593.55 c 0,103,104
 210.619 1604 210.619 1604 295.383 1604 c 2,105,-1
 326.831 1604 l 2,106,107
 389.51 1604 389.51 1604 443.496 1600.95 c 0,108,109
 509.562 1596.95 509.562 1596.95 595.665 1592.46 c 0,110,111
 681.101 1588 681.101 1588 736.73 1588 c 0,112,113
 767.406 1588 767.406 1588 840.154 1591.95 c 0,114,115
 901.637 1596 901.637 1596 948 1596 c 2,116,-1
 968.238 1596 l 1,117,118
 1024.54 1594.93 1024.54 1594.93 1068.46 1583.15 c 0,119,120
 1113.31 1571.75 1113.31 1571.75 1135.36 1529.37 c 0,121,122
 1153 1495.48 1153 1495.48 1153 1456.18 c 2,123,-1
 1153 1448.49 l 2,124,125
 1153 1409.22 1153 1409.22 1134.21 1364.63 c 0,126,127
 1116.62 1321.81 1116.62 1321.81 1087.81 1301.35 c 0,128,129
 1068.7 1287.89 1068.7 1287.89 1042.79 1281.96 c 0,130,131
 1018.93 1276.5 1018.93 1276.5 1000 1276.5 c 0,132,133
 983.509 1276.5 983.509 1276.5 957.521 1277.48 c 0,134,135
 932.509 1278.42 932.509 1278.42 921 1278.42 c 2,136,-1
 878.786 1278.42 l 2,137,138
 806.738 1278.42 806.738 1278.42 696.56 1282.29 c 0,139,140
 551.601 1288.03 551.601 1288.03 493.827 1288.03 c 0,141,142
 478.536 1288.03 478.536 1288.03 446.456 1290.53 c 0,143,144
 416.08 1292.89 416.08 1292.89 395.385 1293.83 c 0,145,146
 376.696 1294.68 376.696 1294.68 354.193 1292.08 c 0,147,148
 338.393 1290.25 338.393 1290.25 329.734 1282.58 c 0,149,150
 320.86 1274.71 320.86 1274.71 317.861 1260.43 c 0,151,152
 313.648 1230.36 313.648 1230.36 310.487 1193.02 c 0,153,154
 305.143 1130.5 305.143 1130.5 305.143 1107.4 c 2,155,-1
 305.143 1092.02 l 2,156,157
 305.143 1053.03 305.143 1053.03 312.246 1020.65 c 0,158,159
 319.368 987.522 319.368 987.522 331.903 976.416 c 0,160,161
 339.508 969.563 339.508 969.563 359.513 965.236 c 0,162,163
 388.103 958.205 388.103 958.205 400.826 958.938 c 0,164,165
 442.065 961.94 442.065 961.94 458.257 962.936 c 0,0,1
EndSplineSet
EndChar

StartChar: G
Encoding: 71 71 19
Width: 1481
VWidth: 1597
Flags: W
LayerCount: 2
Fore
SplineSet
646.154 1539.26 m 0,0,1
 765.056 1578.75 765.056 1578.75 893.466 1594.7 c 0,2,3
 907.536 1597 907.536 1597 923.999 1597 c 0,4,5
 959.169 1597 959.169 1597 1006.86 1588.6 c 0,6,7
 1075.34 1577.29 1075.34 1577.29 1148.08 1553.65 c 0,8,9
 1219.83 1529.71 1219.83 1529.71 1278.25 1493.2 c 0,10,11
 1340.01 1454.6 1340.01 1454.6 1366.26 1404.38 c 0,12,13
 1379 1378.91 1379 1378.91 1379 1351 c 0,14,15
 1379 1318.91 1379 1318.91 1361 1284.12 c 1,16,17
 1331.61 1231.86 1331.61 1231.86 1297.72 1202.97 c 0,18,19
 1261.42 1172.03 1261.42 1172.03 1223.35 1167.66 c 0,20,21
 1188.64 1163.68 1188.64 1163.68 1151.65 1171.61 c 0,22,23
 1115.26 1179.39 1115.26 1179.39 1075.53 1200.1 c 0,24,25
 1038.71 1219.29 1038.71 1219.29 1005.17 1237.94 c 0,26,27
 972.846 1255.92 972.846 1255.92 933.16 1273.97 c 0,28,29
 894.911 1291.36 894.911 1291.36 863.717 1298.75 c 0,30,31
 824.617 1308 824.617 1308 780.328 1308 c 0,32,33
 719.439 1308 719.439 1308 653.048 1291.68 c 0,34,35
 535.303 1263.31 535.303 1263.31 449.519 1205.99 c 0,36,37
 382.433 1161.51 382.433 1161.51 339.891 1090.15 c 0,38,39
 297.623 1017.57 297.623 1017.57 283.516 935.817 c 0,40,41
 274.311 880.49 274.311 880.49 274.311 824.168 c 0,42,43
 274.311 793.48 274.311 793.48 276.363 763.887 c 0,44,45
 283.48 677.719 283.48 677.719 315.018 598.38 c 0,46,47
 346.427 519.37 346.427 519.37 394.62 461.438 c 1,48,49
 442.158 406.08 442.158 406.08 512.889 367.908 c 0,50,51
 584.036 329.512 584.036 329.512 662.281 315.041 c 0,52,53
 701.918 307 701.918 307 743.354 307 c 2,54,-1
 751.525 307 l 1,55,-1
 821.872 313.323 l 1,56,57
 901.868 327.55 901.868 327.55 963.836 370.446 c 0,58,59
 978.969 380.7 978.969 380.7 993.662 398.196 c 0,60,61
 1009.4 416.934 1009.4 416.934 1016.39 428.506 c 2,62,-1
 1039.67 467.006 l 2,63,64
 1043.73 475.025 1043.73 475.025 1056.61 496.026 c 0,65,66
 1070 517.855 1070 517.855 1079.69 532.641 c 0,67,68
 1088.24 545.682 1088.24 545.682 1098.08 567.491 c 128,-1,69
 1107.85 589.139 1107.85 589.139 1111.61 604.128 c 0,70,71
 1114.98 617.576 1114.98 617.576 1113.7 632.358 c 0,72,73
 1112.76 643.163 1112.76 643.163 1107.33 648.939 c 0,74,75
 1103.31 653.502 1103.31 653.502 1088.75 658.25 c 128,-1,76
 1074.2 662.999 1074.2 662.999 1042.14 667.242 c 128,-1,77
 1010.08 671.484 1010.08 671.484 968.553 672.073 c 0,78,79
 947.629 673 947.629 673 902.87 673 c 2,80,-1
 883.855 673 l 2,81,82
 752.13 673 752.13 673 702.973 687.066 c 0,83,84
 669.172 696.726 669.172 696.726 648.689 716.83 c 128,-1,85
 628.206 736.934 628.206 736.934 628.206 766 c 0,86,87
 628.206 799.304 628.206 799.304 656.797 841.666 c 0,88,89
 665.72 854.337 665.72 854.337 677.671 869.763 c 0,90,91
 714.583 917.514 714.583 917.514 813.885 945.931 c 0,92,93
 907.923 972.841 907.923 972.841 1010.52 976.976 c 0,94,95
 1034.32 978 1034.32 978 1059.22 978 c 2,96,-1
 1070.84 978 l 2,97,98
 1141.75 978 1141.75 978 1210.04 966.956 c 1,99,100
 1305.74 952.445 1305.74 952.445 1352.29 916.372 c 1,101,102
 1432 858.043 1432 858.043 1432 752.787 c 0,103,104
 1432 652.439 1432 652.439 1358.27 509.666 c 1,105,106
 1312.51 423.429 1312.51 423.429 1265.71 355.977 c 0,107,108
 1218.58 288.06 1218.58 288.06 1156.6 225.671 c 0,109,110
 1092.21 162.718 1092.21 162.718 1020.48 118.754 c 128,-1,111
 948.564 74.6748 948.564 74.6748 857.264 44.9053 c 128,-1,112
 766.104 15.1826 766.104 15.1826 661.442 5.12109 c 0,113,114
 626.272 2 626.272 2 593.344 2 c 0,115,116
 533.685 2 533.685 2 478.236 12.4971 c 0,117,118
 391.468 28.8291 391.468 28.8291 322.183 66.2568 c 0,119,120
 253.564 103.326 253.564 103.326 200.482 156.614 c 0,121,122
 147.611 209.896 147.611 209.896 110.988 275.826 c 0,123,124
 74.9902 340.631 74.9902 340.631 49.3486 414.204 c 0,125,126
 23.5322 486.276 23.5322 486.276 13.2041 564.372 c 0,127,128
 4 633.766 4 633.766 4 705.112 c 2,129,-1
 4 718.839 l 1,130,131
 5.03027 796.722 5.03027 796.722 19.4189 870.447 c 0,132,133
 42.0518 991.115 42.0518 991.115 97.6816 1097.96 c 128,-1,134
 153.285 1204.76 153.285 1204.76 233.176 1288.19 c 0,135,136
 316.25 1371.25 316.25 1371.25 421.317 1435.35 c 128,-1,137
 526.453 1499.5 526.453 1499.5 646.154 1539.26 c 0,0,1
EndSplineSet
EndChar

StartChar: H
Encoding: 72 72 20
Width: 1263
VWidth: 1597
Flags: W
LayerCount: 2
Fore
SplineSet
47.5625 30.1914 m 2,0,-1
 44 35.9492 l 1,1,-1
 44 78.0576 l 2,2,3
 44 104.156 44 104.156 42.5273 134.619 c 0,4,5
 41 166.216 41 166.216 41 192.966 c 2,6,-1
 41 278.783 l 2,7,8
 41 308.955 41 308.955 42.5303 339.125 c 0,9,10
 44 368.104 44 368.104 44 391.267 c 2,11,-1
 44 417.934 l 2,12,13
 44 434.205 44 434.205 47.5488 489.264 c 0,14,15
 51.0479 543.546 51.0479 543.546 55.0469 607.046 c 0,16,17
 59.0674 670.887 59.0674 670.887 64.0977 726.008 c 0,18,19
 69 779.729 69 779.729 69 792.233 c 2,20,-1
 69 1217.93 l 2,21,22
 69 1233.47 69 1233.47 72.084 1269.85 c 0,23,24
 75.1123 1305.58 75.1123 1305.58 79.6455 1346.12 c 0,25,26
 84.1123 1386.05 84.1123 1386.05 87.0859 1420.67 c 0,27,28
 90.1924 1456.81 90.1924 1456.81 93.4277 1473.54 c 2,29,-1
 94.3682 1478.41 l 1,30,-1
 97.1992 1482.52 l 2,31,32
 105.277 1494.27 105.277 1494.27 135.669 1518.38 c 0,33,34
 164.082 1540.92 164.082 1540.92 197.058 1562.41 c 0,35,36
 229.21 1583.36 229.21 1583.36 254.919 1599.49 c 0,37,38
 259.213 1602.27 259.213 1602.27 265.833 1607.16 c 128,-1,39
 272.453 1612.05 272.453 1612.05 275.78 1614.15 c 128,-1,40
 279.107 1616.26 279.107 1616.26 285.039 1618.13 c 0,41,42
 291.309 1620 291.309 1620 298.904 1620 c 0,43,44
 321.032 1620 321.032 1620 339.857 1616.51 c 0,45,46
 371.436 1610.67 371.436 1610.67 383.954 1575.91 c 2,47,-1
 384.979 1573.06 l 1,48,-1
 385.248 1570.08 l 2,49,50
 387.442 1545.7 387.442 1545.7 390.707 1487.29 c 0,51,52
 393.932 1429.57 393.932 1429.57 399.308 1364.4 c 0,53,54
 404.734 1298.61 404.734 1298.61 407.996 1239.27 c 0,55,56
 411.271 1179.64 411.271 1179.64 411.271 1154 c 2,57,-1
 411.271 1099 l 2,58,59
 411.271 1058.59 411.271 1058.59 409.635 1014.15 c 0,60,61
 408.024 970.375 408.024 970.375 406.39 930.552 c 0,62,63
 405.732 914.521 405.732 914.521 405.327 902.034 c 1,64,65
 520.023 902.326 520.023 902.326 633.701 904.992 c 0,66,67
 748.37 907.682 748.37 907.682 861.663 940.441 c 1,68,69
 868.179 1062.58 868.179 1062.58 880.283 1195.6 c 0,70,71
 893.347 1339.15 893.347 1339.15 917.308 1469.2 c 2,72,-1
 918.7 1476.76 l 1,73,-1
 951.42 1508.36 l 1,74,-1
 954.003 1509.92 l 2,75,76
 1005.57 1543.43 1005.57 1543.43 1049.32 1576.87 c 0,77,78
 1100.54 1616 1100.54 1616 1179 1616 c 2,79,-1
 1204 1616 l 1,80,-1
 1204 1591 l 2,81,82
 1204 1230.7 1204 1230.7 1197.5 893.252 c 0,83,84
 1190.97 554.532 1190.97 554.532 1172.97 192.338 c 2,85,-1
 1172.5 182.852 l 1,86,-1
 1165.5 176.203 l 2,87,88
 1111.2 124.586 1111.2 124.586 1041.9 86.2109 c 0,89,90
 973.903 48.5518 973.903 48.5518 897.783 20.7881 c 2,91,-1
 860.74 7.07422 l 1,92,-1
 860.74 689.105 l 2,93,94
 860.74 689.842 860.74 689.842 860.665 690.581 c 0,95,96
 857.558 691.447 857.558 691.447 852.221 691.521 c 0,97,98
 817.312 692 817.312 692 807.798 692 c 2,99,-1
 745.131 692 l 2,100,101
 729.643 692 729.643 692 690.897 687.388 c 0,102,103
 650.095 682.53 650.095 682.53 605.459 678.154 c 128,-1,104
 560.86 673.782 560.86 673.782 522.704 670.863 c 0,105,106
 487.039 668.134 487.039 668.134 476.167 665.706 c 2,107,-1
 474.404 665.312 l 1,108,-1
 472.599 665.134 l 2,109,110
 444.663 662.362 444.663 662.362 398.317 653.897 c 0,111,112
 383.247 651.146 383.247 651.146 372.375 648.84 c 1,113,-1
 372.375 156.179 l 1,114,-1
 360.347 149.019 l 2,115,116
 351.423 143.706 351.423 143.706 330.577 129.279 c 0,117,118
 308.693 114.135 308.693 114.135 284.284 98.0205 c 0,119,120
 261.774 82.0947 261.774 82.0947 241.263 67.6152 c 0,121,122
 220.321 52.8311 220.321 52.8311 210.867 46.751 c 2,123,-1
 204.569 42.7002 l 1,124,-1
 203.191 42.7002 l 2,125,126
 202.302 41.8086 202.302 41.8086 201.54 40.9912 c 0,127,128
 192.292 31.1768 192.292 31.1768 190 28.2285 c 2,129,-1
 188.934 26.8574 l 1,130,-1
 187.678 25.6455 l 2,131,132
 177.849 16.1621 177.849 16.1621 152.778 7.0918 c 0,133,134
 139.696 2.18652 139.696 2.18652 133.254 -0.541992 c 1,135,136
 122.153 -9 122.153 -9 112 -9 c 2,137,-1
 100 -9 l 2,138,139
 89.5205 -9 89.5205 -9 78.8232 -0.0859375 c 1,140,141
 58.918 11.8389 58.918 11.8389 47.5625 30.1914 c 2,0,-1
EndSplineSet
EndChar

StartChar: I
Encoding: 73 73 21
Width: 1087
VWidth: 1597
Flags: W
LayerCount: 2
Fore
SplineSet
377.001 416.868 m 0,0,1
 381.414 658.292 381.414 658.292 394.921 730.418 c 0,2,3
 396.792 745.908 396.792 745.908 396.792 895.317 c 2,4,-1
 396.792 912.764 l 2,5,6
 396.792 975.668 396.792 975.668 401.261 1030.8 c 0,7,8
 404.49 1070.63 404.49 1070.63 404.49 1085.28 c 2,9,-1
 404.49 1152.16 l 2,10,11
 404.49 1192.95 404.49 1192.95 401.253 1231.94 c 0,12,13
 398.765 1267.03 398.765 1267.03 398.112 1302.39 c 1,14,-1
 169 1302.39 l 1,15,-1
 169 1326.62 l 2,16,17
 169 1360.58 169 1360.58 172 1395.5 c 1,18,19
 172.069 1424.4 172.069 1424.4 174.054 1453.72 c 0,20,21
 176.106 1484.05 176.106 1484.05 179.193 1507 c 0,22,23
 183.115 1538.68 183.115 1538.68 209.358 1567.14 c 0,24,25
 237.815 1598 237.815 1598 274 1598 c 2,26,-1
 1023 1598 l 2,27,28
 1041.52 1598 1041.52 1598 1054.16 1587.92 c 0,29,30
 1066.48 1578.09 1066.48 1578.09 1070.37 1561.07 c 0,31,32
 1075 1540.82 1075 1540.82 1075 1530 c 0,33,34
 1075 1522.62 1075 1522.62 1071.35 1489.74 c 0,35,36
 1068.52 1464.25 1068.52 1464.25 1068 1458.29 c 2,37,-1
 1068 1457.38 l 1,38,-1
 1067.79 1455.77 l 2,39,40
 1064.6 1431.28 1064.6 1431.28 1057.73 1404.33 c 0,41,42
 1050.52 1376.07 1050.52 1376.07 1043.22 1367.05 c 1,43,44
 1032.08 1348.74 1032.08 1348.74 1005.15 1320.31 c 0,45,46
 1003.46 1318.53 1003.46 1318.53 998.082 1312.71 c 128,-1,47
 992.704 1306.88 992.704 1306.88 990.697 1304.91 c 128,-1,48
 988.69 1302.94 988.69 1302.94 983.99 1298.5 c 128,-1,49
 979.29 1294.07 979.29 1294.07 976.271 1292.34 c 128,-1,50
 973.251 1290.61 973.251 1290.61 968.711 1288.17 c 128,-1,51
 964.172 1285.74 964.172 1285.74 959.623 1284.87 c 128,-1,52
 955.074 1284 955.074 1284 950 1284 c 2,53,-1
 723.301 1284 l 1,54,55
 692.096 1074.11 692.096 1074.11 683.246 865.854 c 0,56,57
 673.919 646.367 673.919 646.367 673.918 425.434 c 2,58,-1
 673.918 338.045 l 2,59,60
 674.831 337.301 674.831 337.301 675.204 337.008 c 0,61,62
 679.965 333.279 679.965 333.279 683.341 331.01 c 1,63,64
 692.517 328.735 692.517 328.735 709.425 325.849 c 0,65,66
 731.159 322.137 731.159 322.137 755.08 319.345 c 0,67,68
 780.049 316.431 780.049 316.431 802.712 313.527 c 0,69,70
 823.278 310.894 823.278 310.894 832 310.894 c 2,71,-1
 857 310.894 l 1,72,-1
 857 250.255 l 2,73,74
 857 164.148 857 164.148 854.485 93.5029 c 0,75,76
 853.041 52.9141 853.041 52.9141 836.353 26.457 c 0,77,78
 818.709 0 818.709 0 780.589 0 c 0,79,80
 734.059 0 734.059 0 645.738 2.00781 c 0,81,82
 558.092 4 558.092 4 473.771 4 c 2,83,-1
 435.832 4 l 2,84,85
 409.782 4 409.782 4 385.388 6.1123 c 0,86,87
 363.595 8 363.595 8 347.305 8 c 2,88,-1
 326.411 8 l 2,89,90
 317.988 8 317.988 8 291.436 11.2197 c 0,91,92
 267.966 14.1836 267.966 14.1836 241.239 17.1533 c 0,93,94
 213.962 20.1836 213.962 20.1836 187.665 23.7236 c 0,95,96
 160.286 27.2959 160.286 27.2959 146.812 30.5605 c 0,97,98
 124.009 36.3262 124.009 36.3262 87.8301 44.4922 c 0,99,100
 87.0869 44.6592 87.0869 44.6592 75.9121 45.2451 c 128,-1,101
 64.7373 45.8311 64.7373 45.8311 56.3008 47.5166 c 128,-1,102
 47.8643 49.2012 47.8643 49.2012 39.9316 57.0557 c 128,-1,103
 32 64.9111 32 64.9111 32 78.2676 c 2,104,-1
 32 322.511 l 1,105,-1
 57 322.511 l 2,106,107
 92.8525 322.511 92.8525 322.511 115.528 315.57 c 0,108,109
 135.478 309.465 135.478 309.465 152.409 302.798 c 0,110,111
 162.754 298.725 162.754 298.725 194.177 301.567 c 0,112,113
 232.837 305.064 232.837 305.064 269 305.064 c 0,114,115
 298.079 305.064 298.079 305.064 320.297 308.514 c 128,-1,116
 342.516 311.963 342.516 311.963 349.942 314.954 c 128,-1,117
 357.369 317.945 357.369 317.945 358.378 319.604 c 0,118,119
 375.99 347.382 375.99 347.382 377.001 416.868 c 0,0,1
EndSplineSet
EndChar

StartChar: J
Encoding: 74 74 22
Width: 1225
VWidth: 1597
Flags: W
LayerCount: 2
Fore
SplineSet
938.672 858.513 m 1,0,-1
 904.018 650.607 l 2,1,2
 894.346 598.549 894.346 598.549 880.389 496.438 c 1,3,4
 868.038 397.747 868.038 397.747 815.511 293.469 c 0,5,6
 765.426 193.398 765.426 193.398 632.922 93.668 c 1,7,8
 543.226 29.2939 543.226 29.2939 460.264 -1.59082 c 0,9,10
 375.859 -34 375.859 -34 265 -34 c 0,11,12
 231.771 -34 231.771 -34 195.047 -30.3789 c 0,13,14
 156.381 -26.5674 156.381 -26.5674 123.394 -14.4717 c 0,15,16
 86.4424 -0.922852 86.4424 -0.922852 62.5 31 c 0,17,18
 38 63.667 38 63.667 38 116 c 0,19,20
 38 158.188 38 158.188 62.8174 197.778 c 0,21,22
 86.2842 235.213 86.2842 235.213 122 262 c 0,23,24
 156.808 288.106 156.808 288.106 198.087 303.857 c 0,25,26
 240.393 320 240.393 320 278 320 c 0,27,28
 311.255 320 311.255 320 336.768 302.642 c 0,29,30
 356.25 289.387 356.25 289.387 374.57 274.024 c 0,31,32
 391.323 259.977 391.323 259.977 408.047 247.403 c 0,33,34
 417.894 240 417.894 240 435.319 240 c 0,35,36
 467.226 240 467.226 240 485.618 258.938 c 0,37,38
 507.714 281.69 507.714 281.69 516.498 316.064 c 0,39,40
 526.239 354.188 526.239 354.188 528.29 393.21 c 0,41,42
 530.43 433.952 530.43 433.952 533.671 458.611 c 1,43,44
 533.957 476.065 533.957 476.065 538.71 512.059 c 0,45,46
 543.494 548.291 543.494 548.291 546.693 590.749 c 0,47,48
 550.279 638.36 550.279 638.36 568.71 672.619 c 0,49,50
 582.296 697.873 582.296 697.873 582.296 707.776 c 2,51,-1
 582.296 709.476 l 1,52,-1
 591.292 765.216 l 1,53,54
 596.698 791.058 596.698 791.058 602.02 824.036 c 2,55,-1
 602.429 826.565 l 1,56,-1
 603.431 828.961 l 2,57,58
 612.556 850.771 612.556 850.771 612.556 879.964 c 2,59,-1
 612.556 934.489 l 2,60,61
 612.556 947.005 612.556 947.005 617.522 997.315 c 0,62,63
 622.381 1046.54 622.381 1046.54 627.782 1102.96 c 0,64,65
 633.15 1159 633.15 1159 636.377 1208.03 c 0,66,67
 639.574 1256.59 639.574 1256.59 639.574 1267.39 c 0,68,69
 639.574 1271.58 639.574 1271.58 641.901 1290.12 c 0,70,71
 643.897 1306.02 643.897 1306.02 643.897 1310.43 c 0,72,73
 643.897 1323.91 643.897 1323.91 642.003 1338.58 c 1,74,75
 639.863 1340.24 639.863 1340.24 635.052 1341.97 c 1,76,77
 616.739 1341.75 616.739 1341.75 577.067 1340.11 c 0,78,79
 530.018 1338.17 530.018 1338.17 477.467 1338.17 c 128,-1,80
 424.98 1338.17 424.98 1338.17 379.443 1340.11 c 0,81,82
 335.205 1342 335.205 1342 318.602 1342 c 0,83,84
 301.259 1342 301.259 1342 258.511 1352.23 c 0,85,86
 220.973 1361.49 220.973 1361.49 209.89 1363.34 c 2,87,-1
 189 1366.82 l 1,88,-1
 189 1402 l 2,89,90
 189 1425.42 189 1425.42 213.547 1463.14 c 0,91,92
 235.297 1496.56 235.297 1496.56 265.883 1528.73 c 0,93,94
 296.882 1560.3 296.882 1560.3 329.475 1585.26 c 0,95,96
 368.311 1615 368.311 1615 397.494 1615 c 2,97,-1
 1199 1615 l 1,98,-1
 1199 1590 l 2,99,100
 1199 1528.56 1199 1528.56 1162.35 1487.79 c 0,101,102
 1130.59 1452.45 1130.59 1452.45 1091.1 1420.21 c 0,103,104
 1053.69 1389.66 1053.69 1389.66 1020.77 1359.17 c 0,105,106
 993.525 1333.94 993.525 1333.94 987.672 1294.22 c 0,107,108
 984.82 1279.47 984.82 1279.47 981.925 1243.45 c 0,109,110
 978.887 1205.65 978.887 1205.65 973.829 1163.96 c 0,111,112
 968.888 1123.23 968.888 1123.23 965.93 1085 c 0,113,114
 963 1047.11 963 1047.11 963 1032.51 c 2,115,-1
 963 1030.94 l 1,116,-1
 938.672 858.513 l 1,0,-1
EndSplineSet
EndChar

StartChar: K
Encoding: 75 75 23
Width: 1195
VWidth: 1597
Flags: W
LayerCount: 2
Fore
SplineSet
45.7119 227.913 m 0,0,1
 49.2461 241.955 49.2461 241.955 51.1611 254.262 c 0,2,3
 52.6582 261.845 52.6582 261.845 55.3154 265.643 c 128,-1,4
 57.9736 269.441 57.9736 269.441 63.1406 272.335 c 128,-1,5
 68.3076 275.229 68.3076 275.229 69.6592 276.36 c 0,6,7
 75.5918 281.324 75.5918 281.324 81.2402 285.392 c 1,8,9
 118.21 426.531 118.21 426.531 122.009 568.254 c 0,10,11
 124.987 678.887 124.987 678.887 125 790.172 c 1,12,13
 124 827.492 124 827.492 124 864.869 c 0,14,15
 123 914.279 123 914.279 123 964.429 c 1,16,17
 124 988.652 124 988.652 124 1013.36 c 2,18,-1
 124 1161.78 l 1,19,20
 126.034 1312.58 126.034 1312.58 158.543 1461.22 c 2,21,-1
 160.08 1468.25 l 1,22,-1
 165.322 1473.33 l 2,23,24
 170.679 1478.52 170.679 1478.52 179.579 1488.5 c 0,25,26
 190.456 1500.71 190.456 1500.71 202.366 1506.11 c 1,27,28
 212.396 1512.14 212.396 1512.14 233.782 1523.14 c 0,29,30
 258.452 1535.83 258.452 1535.83 285.596 1548.51 c 0,31,32
 313.882 1561.42 313.882 1561.42 341.701 1572.37 c 0,33,34
 367.221 1582.41 367.221 1582.41 376.593 1587.44 c 2,35,-1
 417.613 1610.15 l 1,36,-1
 417.613 1566 l 2,37,38
 417.613 1559.28 417.613 1559.28 420.957 1542.53 c 0,39,40
 424.659 1523.98 424.659 1523.98 429.97 1501.92 c 0,41,42
 435.835 1477.56 435.835 1477.56 436.513 1468.16 c 2,43,-1
 437.499 1462.11 l 2,44,45
 441.504 1442.46 441.504 1442.46 441.356 1440.03 c 128,-1,46
 441.208 1437.6 441.208 1437.6 437.83 1418.89 c 0,47,48
 437.153 1415.14 437.153 1415.14 436.83 1411.94 c 1,49,-1
 452.995 1403.42 l 1,50,-1
 439.073 1384.14 l 1,51,52
 443.464 1356.67 443.464 1356.67 444.611 1345.02 c 0,53,54
 445.635 1331.79 445.635 1331.79 449.833 1306.61 c 0,55,56
 453.994 1278.75 453.994 1278.75 455.852 1271.9 c 0,57,58
 466.332 1230.79 466.332 1230.79 448.781 1196.66 c 1,59,60
 446.865 1179.92 446.865 1179.92 446.865 1113 c 0,61,62
 446.865 1033.24 446.865 1033.24 438.669 1014.98 c 1,63,-1
 419.662 797.442 l 1,64,65
 431.878 796 431.878 796 436.031 796 c 0,66,67
 476.088 796 476.088 796 524.912 845.356 c 0,68,69
 580.318 901.367 580.318 901.367 641.414 987.675 c 0,70,71
 703.367 1075.19 703.367 1075.19 767.451 1176.6 c 0,72,73
 832.172 1279.01 832.172 1279.01 894.331 1367.59 c 0,74,75
 954.349 1457.65 954.349 1457.65 1012.59 1517.44 c 0,76,77
 1076.45 1583 1076.45 1583 1137 1583 c 2,78,-1
 1162 1583 l 1,79,-1
 1162 1558.77 l 2,80,81
 1162 1525.63 1162 1525.63 1131.42 1457.51 c 0,82,83
 1102.58 1393.25 1102.58 1393.25 1059.11 1313.4 c 0,84,85
 1015.83 1233.88 1015.83 1233.88 960.981 1144.63 c 0,86,87
 905.454 1055.63 905.454 1055.63 849.373 977.692 c 128,-1,88
 793.368 899.86 793.368 899.86 748.719 841.41 c 0,89,90
 697.73 775.062 697.73 775.062 684.605 760 c 1,91,-1
 686.145 756.192 l 1,92,93
 749.535 702.347 749.535 702.347 802.439 626.625 c 0,94,95
 856.96 548.587 856.96 548.587 909.295 464.699 c 0,96,97
 957.48 381.955 957.48 381.955 1008.12 304.485 c 0,98,99
 1057.22 229.363 1057.22 229.363 1115.57 179.301 c 2,100,-1
 1124 172.068 l 1,101,-1
 1124 161.411 l 2,102,103
 1124.22 158.818 1124.22 158.818 1125.19 152.821 c 0,104,105
 1127 141.74 1127 141.74 1127 133.051 c 0,106,107
 1127 90.7607 1127 90.7607 1088.33 63.1445 c 0,108,109
 1056.65 40.5215 1056.65 40.5215 1013.91 26.7109 c 0,110,111
 972.559 13.3525 972.559 13.3525 934.101 8.69336 c 0,112,113
 894.916 4 894.916 4 871.56 4 c 0,114,115
 816.516 4 816.516 4 778.931 36.168 c 0,116,117
 746.207 64.1758 746.207 64.1758 721.972 102.365 c 0,118,119
 699.167 138.302 699.167 138.302 679.688 176.311 c 0,120,121
 662.741 209.388 662.741 209.388 641.144 229.322 c 2,122,-1
 633.211 236.645 l 1,123,-1
 633.211 240.351 l 1,124,125
 629.787 244.491 629.787 244.491 623.98 250.776 c 0,126,127
 607.877 268.202 607.877 268.202 588.539 291.151 c 0,128,129
 569.799 313.389 569.799 313.389 554.643 330.376 c 2,130,-1
 542.278 345.05 l 1,131,132
 504.084 367.291 504.084 367.291 488.001 398.168 c 0,133,134
 474.462 424.161 474.462 424.161 460.38 451.154 c 0,135,136
 447.631 475.597 447.631 475.597 430.049 495.883 c 0,137,138
 423.553 503.377 423.553 503.377 412.596 510.029 c 1,139,-1
 355.597 108.521 l 2,140,141
 350.472 76.9844 350.472 76.9844 313.462 55.373 c 0,142,143
 284.642 38.5449 284.642 38.5449 250.948 26.1562 c 0,144,145
 218.833 13.8457 218.833 13.8457 184.607 7.42773 c 128,-1,146
 150.323 1 150.323 1 129 1 c 0,147,148
 104.753 1 104.753 1 73.5127 4.12402 c 0,149,150
 49.0986 6.56543 49.0986 6.56543 35.0488 24.375 c 0,151,152
 21 41.6328 21 41.6328 21 65.6787 c 2,153,-1
 21 83.4346 l 1,154,-1
 21.4277 85.6475 l 2,155,156
 24.251 100.238 24.251 100.238 27.1475 125.962 c 0,157,158
 30.248 153.506 30.248 153.506 35.418 180.557 c 0,159,160
 40.5459 207.388 40.5459 207.388 45.7119 227.913 c 0,0,1
EndSplineSet
EndChar

StartChar: L
Encoding: 76 76 24
Width: 1070
VWidth: 1597
Flags: W
LayerCount: 2
Fore
SplineSet
139.056 0.254883 m 1,0,-1
 63.0811 25.7861 l 2,1,2
 54.2119 28.5889 54.2119 28.5889 48.626 33.4277 c 128,-1,3
 43.0391 38.2676 43.0391 38.2676 41.2334 44.001 c 128,-1,4
 39.4268 49.7334 39.4268 49.7334 38.9805 54.2695 c 128,-1,5
 38.5332 58.8047 38.5332 58.8047 39.0625 63.7227 c 128,-1,6
 39.5918 68.6406 39.5918 68.6406 39.5576 69.126 c 0,7,8
 38 91.2764 38 91.2764 38 104.704 c 0,9,10
 38 120.906 38 120.906 40.04 155.507 c 0,11,12
 41.9639 189.083 41.9639 189.083 44.2002 198.684 c 0,13,14
 46.6641 213.577 46.6641 213.577 60.3662 226.078 c 0,15,16
 64.0176 229.41 64.0176 229.41 68.834 232.806 c 1,17,18
 71.0645 253.931 71.0645 253.931 73.5547 290.488 c 0,19,20
 77.0615 341.974 77.0615 341.974 81.5674 401.187 c 0,21,22
 86.0527 460.125 86.0527 460.125 89.041 510.813 c 0,23,24
 92 561.015 92 561.015 92 578.744 c 2,25,-1
 92 1281.56 l 2,26,27
 92 1294.59 92 1294.59 95.165 1321.18 c 0,28,29
 98.2627 1347.21 98.2627 1347.21 103.418 1374.19 c 0,30,31
 108.33 1399.91 108.33 1399.91 111.762 1422.72 c 0,32,33
 115.611 1448.31 115.611 1448.31 121.201 1459.32 c 0,34,35
 128.616 1477.35 128.616 1477.35 155.38 1522.03 c 0,36,37
 183.32 1568.67 183.32 1568.67 196.479 1584.62 c 2,38,-1
 197.946 1586.45 l 1,39,-1
 199.73 1587.98 l 2,40,41
 208.871 1595.82 208.871 1595.82 230.356 1607.12 c 0,42,43
 254.825 1620 254.825 1620 268 1620 c 0,44,45
 284.426 1620 284.426 1620 303.22 1603.18 c 0,46,47
 320.724 1587.98 320.724 1587.98 321.995 1571.43 c 0,48,49
 325.375 1542.32 325.375 1542.32 329.245 1471.79 c 0,50,51
 333.155 1400.52 333.155 1400.52 336.521 1318.76 c 0,52,53
 339.868 1237.42 339.868 1237.42 343.769 1165.82 c 0,54,55
 347.711 1093.47 347.711 1093.47 347.711 1065.75 c 2,56,-1
 347.711 507.168 l 2,57,58
 347.711 501.069 347.711 501.069 352.089 483.758 c 0,59,60
 357.16 463.704 357.16 463.704 362.788 439.769 c 0,61,62
 368.531 415.342 368.531 415.342 371.995 394.791 c 0,63,64
 372.92 389.313 372.92 389.313 373.97 384.01 c 1,65,66
 403.312 379.66 403.312 379.66 453.613 365.345 c 0,67,68
 518.612 346.847 518.612 346.847 584.576 342.229 c 0,69,70
 653.42 337.41 653.42 337.41 717.842 334.517 c 0,71,72
 779.633 331.64 779.633 331.64 801 331.64 c 2,73,-1
 802.207 331.64 l 1,74,-1
 803.408 331.527 l 2,75,76
 831.483 328.893 831.483 328.893 861.071 332.865 c 0,77,78
 895.756 337.522 895.756 337.522 923.961 336.471 c 0,79,80
 959.287 335.153 959.287 335.153 982.099 314.415 c 0,81,82
 1006 292.686 1006 292.686 1006 245.331 c 0,83,84
 1006 201.408 1006 201.408 985.022 163.548 c 0,85,86
 965.496 128.306 965.496 128.306 936.297 97.8916 c 0,87,88
 907.785 68.1924 907.785 68.1924 874.206 43.7686 c 0,89,90
 829.597 9.91113 829.597 9.91113 818.678 -0.677734 c 0,91,92
 809.997 -9.3584 809.997 -9.3584 787.2 -21.3564 c 0,93,94
 782.543 -23.5742 782.543 -23.5742 777.648 -26.4756 c 128,-1,95
 772.754 -29.3779 772.754 -29.3779 770.372 -30.6855 c 128,-1,96
 767.99 -31.9941 767.99 -31.9941 763.595 -32.9971 c 128,-1,97
 759.078 -34 759.078 -34 752.151 -34 c 2,98,-1
 751.302 -34 l 1,99,-1
 139.056 0.254883 l 1,0,-1
EndSplineSet
EndChar

StartChar: M
Encoding: 77 77 25
Width: 1608
VWidth: 1597
Flags: W
LayerCount: 2
Fore
SplineSet
1483.98 558.924 m 1,0,1
 1479.98 490.258 1479.98 490.258 1477.49 411 c 0,2,3
 1474.98 331.025 1474.98 331.025 1471.98 260.499 c 0,4,5
 1468.99 191.885 1468.99 191.885 1464.88 161.693 c 1,6,7
 1457.84 78.8145 1457.84 78.8145 1400.04 30.5 c 0,8,9
 1341.84 -17 1341.84 -17 1247 -17 c 2,10,-1
 1194.9 -17 l 2,11,12
 1169.68 -17 1169.68 -17 1154.14 -10.0303 c 0,13,14
 1136.5 -1.16211 1136.5 -1.16211 1136.5 15 c 2,15,-1
 1136.5 36.1406 l 1,16,-1
 1137.28 39.127 l 2,17,18
 1139.96 48.457 1139.96 48.457 1143.45 81.1455 c 0,19,20
 1147.15 119.146 1147.15 119.146 1151.94 157.879 c 0,21,22
 1156.62 195.056 1156.62 195.056 1159.74 229.711 c 0,23,24
 1162.81 262.683 1162.81 262.683 1162.81 277 c 2,25,-1
 1162.81 320.505 l 1,26,-1
 1182.47 325.381 l 2,27,28
 1185.41 324.411 1185.41 324.411 1186.71 323.247 c 0,29,30
 1187.01 316.422 1187.01 316.422 1187.01 305.5 c 2,31,-1
 1187.01 384.13 l 1,32,-1
 1186.27 404.033 l 2,33,34
 1185.33 407.7 1185.33 407.7 1182.47 411 c 2,35,-1
 1141.43 421.176 l 1,36,-1
 1183.85 459.754 l 1,37,-1
 1183.85 774.725 l 1,38,39
 1179.79 768.761 1179.79 768.761 1176.26 762.174 c 0,40,41
 1160.6 732.875 1160.6 732.875 1145.86 695.688 c 0,42,43
 1130.9 657.936 1130.9 657.936 1119.06 620.759 c 0,44,45
 1106.78 582.217 1106.78 582.217 1093.21 557.445 c 0,46,47
 1088.11 547.509 1088.11 547.509 1075.66 537.451 c 0,48,49
 1074.52 536.53 1074.52 536.53 1072.92 535.17 c 2,50,-1
 1069.75 545 l 2,51,52
 1050.25 516.845 1050.25 516.845 1020.25 446 c 0,53,54
 988.718 375.938 988.718 375.938 947.642 304 c 0,55,56
 905.41 232.269 905.41 232.269 851.252 181.071 c 0,57,58
 799.237 138 799.237 138 734.486 138 c 0,59,60
 723.558 138 723.558 138 712.637 139 c 2,61,-1
 711.66 139.104 l 1,62,-1
 710.694 139 l 2,63,64
 689.848 142.312 689.848 142.312 650.997 160 c 0,65,66
 612.331 176.715 612.331 176.715 603.277 184 c 2,67,-1
 599.766 187.336 l 1,68,-1
 590.41 200 l 2,69,70
 582.565 216.153 582.565 216.153 574.295 238.5 c 0,71,72
 566.236 260.991 566.236 260.991 559.245 283.5 c 0,73,74
 553.076 305.859 553.076 305.859 549.648 319.791 c 1,75,76
 542.533 333.639 542.533 333.639 532.263 367.5 c 0,77,78
 521.687 405.003 521.687 405.003 511.639 443 c 128,-1,79
 501.753 480.996 501.753 480.996 491.224 516.401 c 1,80,-1
 479.713 553.287 l 1,81,82
 463.921 566.27 463.921 566.27 454.245 586.659 c 1,83,84
 452.115 568.435 452.115 568.435 449.657 547.263 c 0,85,86
 442.833 489.479 442.833 489.479 436.018 422 c 0,87,88
 429.174 353.012 429.174 353.012 422.851 292.5 c 0,89,90
 416.534 232.982 416.534 232.982 412.187 207.324 c 0,91,92
 397.788 117.021 397.788 117.021 319.281 61 c 0,93,94
 243.021 5 243.021 5 141 5 c 0,95,96
 97.2275 5 97.2275 5 71.5391 15 c 0,97,98
 37 26.8975 37 26.8975 37 69 c 2,99,-1
 37 107 l 2,100,101
 37 154.8 37 154.8 63.3096 177.644 c 1,102,103
 66.752 212.482 66.752 212.482 74.6143 281.776 c 0,104,105
 84.123 380.947 84.123 380.947 95.6309 493.107 c 0,106,107
 107.123 603.679 107.123 603.679 116.614 701.388 c 0,108,109
 125.958 798.758 125.958 798.758 129 836.016 c 1,110,-1
 129 858.682 l 1,111,112
 132.027 914.175 132.027 914.175 135.521 1000.02 c 0,113,114
 139.019 1085.5 139.019 1085.5 142.017 1168 c 0,115,116
 145.021 1250.93 145.021 1250.93 148.03 1312 c 0,117,118
 150.83 1369.41 150.83 1369.41 151 1375.46 c 2,119,-1
 151 1374.06 l 1,120,-1
 151.306 1376 l 2,121,122
 154.357 1395.12 154.357 1395.12 162.422 1438 c 0,123,124
 163.427 1443.5 163.427 1443.5 165.216 1454 c 0,125,126
 167.006 1463.74 167.006 1463.74 167.794 1467.35 c 0,127,128
 168.582 1470.75 168.582 1470.75 170.17 1476.35 c 0,129,130
 171.758 1479.95 171.758 1479.95 173.634 1482.26 c 128,-1,131
 175.509 1484.63 175.509 1484.63 178.199 1487 c 2,132,-1
 179.571 1485.25 l 1,133,-1
 181.322 1487 l 2,134,135
 185.466 1490.56 185.466 1490.56 199.757 1500 c 0,136,137
 212.92 1510 212.92 1510 228.604 1521.5 c 0,138,139
 244.618 1532.97 244.618 1532.97 258.633 1542 c 0,140,141
 263.734 1546.18 263.734 1546.18 266.957 1549.4 c 1,142,-1
 269.366 1551.27 l 1,143,-1
 275.745 1554.46 l 1,144,145
 281.057 1560.53 281.057 1560.53 292.996 1578.5 c 0,146,147
 294.76 1580.54 294.76 1580.54 298.346 1584.77 c 0,148,149
 301.932 1588.52 301.932 1588.52 303.314 1589.89 c 128,-1,150
 304.697 1591.08 304.697 1591.08 307.595 1593.33 c 0,151,152
 310.493 1594.39 310.493 1594.39 312.613 1594.95 c 0,153,154
 314.734 1596 314.734 1596 317.949 1597.36 c 0,155,156
 321.165 1598.49 321.165 1598.49 324.913 1599.47 c 0,157,158
 334.624 1602.17 334.624 1602.17 356.454 1602.5 c 0,159,160
 375.241 1603 375.241 1603 386.146 1603 c 0,161,162
 451.054 1603 451.054 1603 494.079 1568 c 0,163,164
 533.296 1532.99 533.296 1532.99 552.015 1487 c 2,165,-1
 552.661 1485.23 l 1,166,-1
 553.025 1487 l 2,167,168
 555.896 1471.68 555.896 1471.68 569.11 1429.5 c 0,169,170
 583.206 1386.68 583.206 1386.68 598.037 1341.99 c 0,171,172
 613.289 1296.14 613.289 1296.14 626.525 1255 c 0,173,174
 637.481 1213.93 637.481 1213.93 644.335 1193.34 c 1,175,-1
 668.919 1169.98 l 1,176,-1
 786.088 716.466 l 1,177,178
 802.458 704.869 802.458 704.869 810.441 688.527 c 0,179,180
 818.3 672.444 818.3 672.444 823.635 652.726 c 0,181,182
 827.813 637.288 827.813 637.288 833.739 624.727 c 0,183,184
 834.416 623.292 834.416 623.292 835.36 621.851 c 1,185,186
 838.568 625.305 838.568 625.305 840.532 628.934 c 0,187,188
 849.029 644.634 849.029 644.634 854.689 661.213 c 0,189,190
 861.402 680.88 861.402 680.88 870.857 701.489 c 0,191,192
 881.397 724.466 881.397 724.466 906.031 740.883 c 1,193,-1
 1030.68 1020 l 1,194,-1
 1040.34 1020 l 2,195,196
 1041.08 1020.69 1041.08 1020.69 1041.59 1021.18 c 0,197,198
 1043.08 1022.59 1043.08 1022.59 1044.7 1024.28 c 0,199,200
 1070.84 1078.73 1070.84 1078.73 1100.47 1159 c 0,201,202
 1131.19 1245.02 1131.19 1245.02 1176.44 1323.5 c 0,203,204
 1222.57 1401.84 1222.57 1401.84 1285.47 1457.5 c 0,205,206
 1349.83 1513 1349.83 1513 1444 1513 c 0,207,208
 1479.15 1513 1479.15 1513 1503.35 1501.36 c 0,209,210
 1527.55 1492.09 1527.55 1492.09 1529.93 1473.5 c 0,211,212
 1533 1433.88 1533 1433.88 1533 1385 c 0,213,214
 1533 1234.8 1533 1234.8 1521.33 1132.76 c 0,215,216
 1509.95 1035.47 1509.95 1035.47 1503.98 897.93 c 2,217,-1
 1503.47 886.103 l 1,218,-1
 1500.2 883.648 l 1,219,220
 1497.5 869.365 1497.5 869.365 1493.94 834.2 c 1,221,222
 1487.99 700.987 1487.99 700.987 1483.98 558.924 c 1,0,1
EndSplineSet
EndChar

StartChar: N
Encoding: 78 78 26
Width: 1353
VWidth: 1597
Flags: W
LayerCount: 2
Fore
SplineSet
42.0059 507.841 m 0,0,1
 40 598.235 40 598.235 40 690.074 c 2,2,-1
 40 948.833 l 2,3,4
 40 1030.05 40 1030.05 42.0059 1118 c 0,5,6
 44.001 1205.46 44.001 1205.46 44 1284.15 c 2,7,-1
 44 1394.15 l 2,8,9
 44 1406.51 44 1406.51 51.1055 1428.9 c 0,10,11
 57.1387 1447.9 57.1387 1447.9 63.6689 1467.86 c 128,-1,12
 70.1387 1487.63 70.1387 1487.63 76.1055 1506.43 c 0,13,14
 82.9189 1527.89 82.9189 1527.89 88.2939 1537 c 2,15,-1
 95.4922 1549.21 l 1,16,-1
 101.588 1549.21 l 1,17,18
 108.494 1556.82 108.494 1556.82 115.322 1563.44 c 0,19,20
 123.711 1571.57 123.711 1571.57 152.143 1587.23 c 0,21,22
 175.55 1600.54 175.55 1600.54 180.73 1604.98 c 2,23,-1
 181.876 1605.96 l 1,24,-1
 183.133 1606.8 l 2,25,26
 193.927 1614 193.927 1614 212.909 1622.37 c 0,27,28
 234.728 1632 234.728 1632 244 1632 c 0,29,30
 255.716 1632 255.716 1632 275.369 1622.51 c 0,31,32
 290.792 1615.23 290.792 1615.23 301.213 1606.93 c 0,33,34
 307.058 1603.05 307.058 1603.05 310.734 1599.16 c 128,-1,35
 314.408 1595.26 314.408 1595.26 315.577 1593.14 c 128,-1,36
 316.746 1591.01 316.746 1591.01 318.474 1586.16 c 128,-1,37
 320.203 1581.3 320.203 1581.3 321.028 1579.41 c 0,38,39
 326.97 1565.76 326.97 1565.76 331.895 1558.87 c 2,40,-1
 333.172 1557.08 l 1,41,-1
 334.103 1555.12 l 2,42,43
 391.688 1433.75 391.688 1433.75 444.434 1336.82 c 0,44,45
 496.48 1241.18 496.48 1241.18 563.699 1122.55 c 1,46,47
 567.513 1119.52 567.513 1119.52 572.874 1115.52 c 0,48,49
 587.152 1104.87 587.152 1104.87 591.845 1093.77 c 1,50,51
 666.343 979.251 666.343 979.251 723.885 868.396 c 128,-1,52
 781.455 757.487 781.455 757.487 846.989 636.209 c 0,53,54
 847.192 636.022 847.192 636.022 847.547 635.801 c 2,55,-1
 849.164 634.796 l 1,56,-1
 850.61 633.582 l 2,57,58
 854.679 630.166 854.679 630.166 857.759 627.888 c 1,59,-1
 863.492 626.104 l 1,60,-1
 868.57 619.337 l 2,61,62
 876.883 608.258 876.883 608.258 891.504 583.602 c 128,-1,63
 906.032 559.098 906.032 559.098 919.929 529.542 c 0,64,65
 933.367 500.949 933.367 500.949 945.327 474.588 c 0,66,67
 950.592 462.531 950.592 462.531 954.844 454 c 1,68,-1
 961.31 454 l 1,69,-1
 961.31 724.609 l 1,70,-1
 936.656 744.609 l 1,71,-1
 936.656 755.806 l 2,72,73
 936.447 761.725 936.447 761.725 933.484 810.074 c 0,74,75
 930.264 862.634 930.264 862.634 927.031 936.987 c 0,76,77
 923.821 1010.83 923.821 1010.83 919.543 1086.69 c 128,-1,78
 915.272 1162.42 915.272 1162.42 912.049 1213.53 c 2,79,-1
 910.755 1234.01 l 1,80,-1
 913.816 1185.57 l 1,81,-1
 919.82 1090.52 l 2,82,83
 920.051 1090.74 920.051 1090.74 912.003 1214.27 c 1,84,-1
 912.003 1463.58 l 1,85,-1
 917.648 1470.35 l 2,86,87
 957.035 1517.59 957.035 1517.59 1017.79 1563.87 c 0,88,89
 1080.09 1614 1080.09 1614 1153 1614 c 0,90,91
 1159.93 1614 1159.93 1614 1168.13 1611 c 1,92,-1
 1185.86 1611 l 1,93,-1
 1190.35 1591.65 l 2,94,95
 1216.85 1480.98 1216.85 1480.98 1222.97 1367.4 c 0,96,97
 1228.96 1256.04 1228.96 1256.04 1232.96 1144.65 c 1,98,99
 1236 1109.87 1236 1109.87 1237.99 1037.22 c 0,100,101
 1240 963.888 1240 963.888 1241 871.076 c 0,102,103
 1241.99 778.592 1241.99 778.592 1244.99 677.658 c 0,104,105
 1247.98 577.125 1247.98 577.125 1249.99 484.094 c 0,106,107
 1251.97 393.121 1251.97 393.121 1259.7 344.816 c 0,108,109
 1266.94 299.657 1266.94 299.657 1267.87 266.503 c 1,110,111
 1274.05 254.128 1274.05 254.128 1274.5 226.612 c 0,112,113
 1274.77 209.76 1274.77 209.76 1275.49 201.845 c 1,114,-1
 1277 199.645 l 1,115,-1
 1277 180.676 l 2,116,117
 1277 144.507 1277 144.507 1235.5 109.161 c 0,118,119
 1200.48 79.332 1200.48 79.332 1153.14 53.8379 c 0,120,121
 1106.45 28.6943 1106.45 28.6943 1061.13 12.5371 c 0,122,123
 1012.17 -5 1012.17 -5 988.107 -5 c 0,124,125
 982.546 -5 982.546 -5 971.123 -3.11914 c 0,126,127
 965.606 -2.21094 965.606 -2.21094 963.115 -2 c 2,128,-1
 953.322 -2 l 1,129,-1
 945.723 4.25391 l 2,130,131
 890.486 49.7256 890.486 49.7256 831.508 104.241 c 0,132,133
 770.666 160.479 770.666 160.479 728.177 227.236 c 2,134,-1
 724.421 233.138 l 1,135,-1
 724.421 236.46 l 1,136,137
 722.761 239.866 722.761 239.866 720.476 243.966 c 0,138,139
 713.656 256.201 713.656 256.201 705.246 270.423 c 0,140,141
 696.212 285.697 696.212 285.697 689.37 299.523 c 0,142,143
 684.024 310.333 684.024 310.333 682.053 316.522 c 1,144,145
 634.568 388.37 634.568 388.37 584.924 462.657 c 0,146,147
 559.576 499.67 559.576 499.67 494.63 621.856 c 0,148,149
 491.049 628.538 491.049 628.538 480.532 651.775 c 128,-1,150
 470.081 674.869 470.081 674.869 459.133 702.956 c 0,151,152
 448.806 729.454 448.806 729.454 439.102 748.988 c 0,153,154
 429.787 767.74 429.787 767.74 426.649 772.133 c 2,155,-1
 425.722 773.428 l 2,156,157
 424.141 776.379 424.141 776.379 407.792 789.624 c 0,158,159
 385.554 807.642 385.554 807.642 377.019 820.827 c 0,160,161
 364.171 840.334 364.171 840.334 348.184 881.48 c 0,162,163
 347.249 883.885 347.249 883.885 346.043 886.51 c 1,164,-1
 346.043 108 l 2,165,166
 346.043 100.167 346.043 100.167 343.472 94.2812 c 128,-1,167
 340.9 88.3945 340.9 88.3945 336.569 85.2334 c 128,-1,168
 332.236 82.0732 332.236 82.0732 328.669 80.3721 c 128,-1,169
 325.101 78.6719 325.101 78.6719 320.913 77.6621 c 128,-1,170
 316.726 76.6533 316.726 76.6533 316.639 76.6172 c 0,171,172
 308.824 73.4092 308.824 73.4092 306.363 70.7305 c 2,173,-1
 303.423 67.5293 l 1,174,-1
 299.52 65.4053 l 2,175,176
 286.13 58.1191 286.13 58.1191 264.601 46.8545 c 128,-1,177
 243.187 35.6377 243.187 35.6377 221.748 25.4287 c 0,178,179
 200.681 15.3975 200.681 15.3975 184.611 7.86328 c 0,180,181
 165.354 -1.16309 165.354 -1.16309 157.113 -1.88184 c 0,182,183
 151.707 -2.13477 151.707 -2.13477 143.378 -3.27051 c 0,184,185
 130.696 -5 130.696 -5 123 -5 c 128,-1,186
 115.376 -5 115.376 -5 102.267 -3.29004 c 0,187,188
 92.376 -2 92.376 -2 87 -2 c 2,189,-1
 67.1123 -2 l 1,190,-1
 62.6406 17.3789 l 2,191,192
 59.2236 31.7275 59.2236 31.7275 56.0771 70.3457 c 0,193,194
 53.0859 107.064 53.0859 107.064 49.5947 145.732 c 0,195,196
 46.0303 185.22 46.0303 185.22 45.0098 221.319 c 0,197,198
 44 257.023 44 257.023 44 273.832 c 2,199,-1
 44 350.878 l 2,200,201
 44 417.971 44 417.971 42.0059 507.841 c 0,0,1
EndSplineSet
EndChar

StartChar: O
Encoding: 79 79 27
Width: 1174
VWidth: 1597
Flags: W
LayerCount: 2
Fore
SplineSet
58.6777 430.641 m 0,0,1
 34 531.351 34 531.351 34 596.258 c 0,2,3
 34 617.006 34 617.006 26.1729 675.834 c 0,4,5
 22 713.263 22 713.263 22 752.391 c 0,6,7
 22 778.502 22 778.502 24.0674 805.566 c 0,8,9
 29.0625 871.451 29.0625 871.451 33.0576 928.589 c 0,10,11
 37.0977 986.379 37.0977 986.379 40.165 1012.16 c 2,12,-1
 40.5156 1015.11 l 1,13,-1
 41.5918 1017.89 l 2,14,15
 47.3281 1032.73 47.3281 1032.73 63.1055 1082.45 c 0,16,17
 79.3262 1133.58 79.3262 1133.58 85.4219 1149.34 c 0,18,19
 89.8652 1162.33 89.8652 1162.33 97.9404 1186.05 c 0,20,21
 142.195 1315.97 142.195 1315.97 152.647 1329.91 c 0,22,23
 163.702 1345.22 163.702 1345.22 180.744 1369.04 c 128,-1,24
 197.786 1392.85 197.786 1392.85 205.777 1403.93 c 128,-1,25
 213.769 1415 213.769 1415 225.706 1431.25 c 128,-1,26
 237.644 1447.5 237.644 1447.5 243.873 1455.15 c 128,-1,27
 250.102 1462.8 250.102 1462.8 257.876 1471.8 c 128,-1,28
 265.65 1480.8 265.65 1480.8 271.344 1485.35 c 128,-1,29
 277.22 1489.89 277.22 1489.89 282.557 1492.46 c 0,30,31
 377.303 1535.73 377.303 1535.73 463.159 1566.69 c 0,32,33
 552.77 1599 552.77 1599 672.118 1599 c 0,34,35
 747.521 1599 747.521 1599 814.687 1587.05 c 0,36,37
 884.75 1574.96 884.75 1574.96 950.848 1532.54 c 0,38,39
 994.015 1505.02 994.015 1505.02 1024.92 1449.4 c 0,40,41
 1052.71 1401.29 1052.71 1401.29 1076.66 1358.75 c 1,42,43
 1100.59 1320.42 1100.59 1320.42 1115.45 1258.66 c 1,44,45
 1122.45 1223.76 1122.45 1223.76 1131.57 1176.64 c 2,46,-1
 1131.94 1174.75 l 1,47,-1
 1140.81 860.232 l 1,48,49
 1143 852.816 1143 852.816 1143 846.514 c 0,50,51
 1143 818.309 1143 818.309 1111.24 697.151 c 0,52,53
 1088.58 609.292 1088.58 609.292 1045.33 525.958 c 0,54,55
 1003.72 445.764 1003.72 445.764 958.064 339.953 c 0,56,57
 909.428 227.227 909.428 227.227 831.5 174.64 c 1,58,59
 783.256 144.029 783.256 144.029 742.839 113.661 c 0,60,61
 699.889 81.3887 699.889 81.3887 650.747 55.1816 c 0,62,63
 601.072 28.6895 601.072 28.6895 547.884 12.3604 c 0,64,65
 493.078 -5 493.078 -5 426.618 -5 c 0,66,67
 320.385 -5 320.385 -5 243.803 69.5342 c 0,68,69
 176.079 139.251 176.079 139.251 129.385 235.352 c 0,70,71
 83.2783 330.241 83.2783 330.241 58.6777 430.641 c 0,0,1
358.3 702.644 m 1,72,-1
 355.461 695.456 l 2,73,74
 352.751 688.596 352.751 688.596 352.751 671 c 0,75,76
 352.751 637.392 352.751 637.392 365.24 577.995 c 0,77,78
 368.264 565.002 368.264 565.002 390.769 488.028 c 0,79,80
 396.507 472.155 396.507 472.155 460.426 402.104 c 0,81,82
 493.544 366 493.544 366 573.267 366 c 0,83,84
 650.709 366 650.709 366 698.09 434.422 c 0,85,86
 757.33 520.12 757.33 520.12 773.676 561.504 c 0,87,88
 796.714 620.077 796.714 620.077 848.047 734.69 c 0,89,90
 862.271 765.245 862.271 765.245 863.305 865.116 c 0,91,92
 863.305 868.441 863.305 868.441 867.661 1017.75 c 0,93,94
 869.822 1078.4 869.822 1078.4 869.822 1110 c 0,95,96
 869.822 1129.76 869.822 1129.76 869.076 1136.52 c 1,97,98
 859.928 1153.7 859.928 1153.7 848.705 1174.15 c 128,-1,99
 837.483 1194.59 837.483 1194.59 832.17 1204.35 c 128,-1,100
 826.858 1214.1 826.858 1214.1 821.38 1225.13 c 128,-1,101
 815.902 1236.16 815.902 1236.16 813.75 1242.94 c 128,-1,102
 811.598 1249.72 811.598 1249.72 811.189 1255.78 c 0,103,104
 810.157 1268.34 810.157 1268.34 784.14 1290.68 c 128,-1,105
 758.125 1313.03 758.125 1313.03 706.903 1337.5 c 1,106,107
 689.967 1339.13 689.967 1339.13 628.493 1339.5 c 0,108,109
 546.758 1339.99 546.758 1339.99 534.568 1340 c 1,110,111
 523.273 1338.45 523.273 1338.45 486.695 1323.22 c 0,112,113
 453.869 1309.55 453.869 1309.55 443.899 1304.55 c 0,114,115
 443.676 1304.02 443.676 1304.02 443.302 1304 c 128,-1,116
 442.927 1303.98 442.927 1303.98 442.705 1303.45 c 0,117,118
 441.331 1302.86 441.331 1302.86 438.817 1301.66 c 0,119,120
 434.758 1299.56 434.758 1299.56 423.973 1290.78 c 0,121,122
 410.289 1279.63 410.289 1279.63 394.97 1266.01 c 0,123,124
 386.079 1258.11 386.079 1258.11 384.576 1247.32 c 0,125,126
 381.75 1227.03 381.75 1227.03 377.718 1217.5 c 1,127,128
 373.228 1198.83 373.228 1198.83 357.23 1163 c 0,129,130
 342.461 1129.92 342.461 1129.92 337.96 1087.09 c 0,131,132
 333.092 1040.78 333.092 1040.78 329.309 997.495 c 0,133,134
 325.594 954.996 325.594 954.996 325.594 940 c 0,135,136
 325.594 929.302 325.594 929.302 329.248 897.098 c 0,137,138
 333.034 863.744 333.034 863.744 337.903 825.402 c 0,139,140
 342.745 787.263 342.745 787.263 348.117 753.638 c 0,141,142
 353.353 720.861 353.353 720.861 356.286 710.063 c 2,143,-1
 358.3 702.644 l 1,72,-1
EndSplineSet
EndChar

StartChar: P
Encoding: 80 80 28
Width: 1146
VWidth: 1597
Flags: W
LayerCount: 2
Fore
SplineSet
518.931 611.636 m 128,-1,1
 513.095 608.954 513.095 608.954 502.666 605.563 c 0,2,3
 499.194 604.397 499.194 604.397 465.368 598.818 c 0,4,5
 447.895 595.937 447.895 595.937 439.045 593.591 c 1,6,7
 433.513 585.36 433.513 585.36 429.94 564.506 c 0,8,9
 424.162 530.77 424.162 530.77 422.574 488.854 c 0,10,11
 420.932 445.541 420.932 445.541 419.291 402.71 c 0,12,13
 417.467 355.098 417.467 355.098 404.066 329.158 c 0,14,15
 398.764 319.828 398.764 319.828 387.261 309.076 c 0,16,17
 384.939 306.904 384.939 306.904 382.29 304.657 c 1,18,19
 381.853 295.63 381.853 295.63 380.967 283.163 c 0,20,21
 379.314 259.902 379.314 259.902 377.114 234.252 c 0,22,23
 374.797 207.236 374.797 207.236 368.982 182.169 c 0,24,25
 363.659 159.222 363.659 159.222 359.791 148.112 c 0,26,27
 357.842 142.629 357.842 142.629 355.38 138.656 c 128,-1,28
 352.918 134.684 352.918 134.684 351.339 133.023 c 128,-1,29
 349.761 131.363 349.761 131.363 345.582 127.896 c 128,-1,30
 341.403 124.429 341.403 124.429 339.475 122.665 c 0,31,32
 326.079 110.407 326.079 110.407 310.491 95.2744 c 0,33,34
 294.183 79.4414 294.183 79.4414 278.678 65.5469 c 0,35,36
 268.421 55.6758 268.421 55.6758 251 43.1006 c 0,37,-1
 250.058 42.4531 l 2,38,39
 219.707 22.5908 219.707 22.5908 191.129 20.0908 c 0,40,41
 165.921 18.0742 165.921 18.0742 138.814 16.0664 c 0,42,43
 109.892 14 109.892 14 87 14 c 2,44,-1
 84 14 l 2,45,46
 65.6885 14 65.6885 14 53.1934 24.5029 c 0,47,48
 36 38.5078 36 38.5078 36 66.6523 c 2,49,-1
 36 108.319 l 2,50,51
 36 113.671 36 113.671 37.0225 118.033 c 128,-1,52
 38.0449 122.395 38.0449 122.395 40.7881 126.312 c 128,-1,53
 43.5312 130.23 43.5312 130.23 44.9092 131.971 c 128,-1,54
 46.2871 133.711 46.2871 133.711 50.5498 137.57 c 128,-1,55
 54.8125 141.429 54.8125 141.429 55.3223 141.923 c 0,56,57
 56.8955 143.447 56.8955 143.447 59.0254 145.425 c 1,58,59
 60.0391 152.724 60.0391 152.724 61.874 162.885 c 0,60,61
 65.293 181.815 65.293 181.815 68.2295 202.681 c 0,62,63
 71.2646 224.253 71.2646 224.253 74.3057 242.915 c 0,64,65
 77 259.448 77 259.448 77 263.362 c 0,66,67
 77 279.211 77 279.211 90.8223 292.604 c 0,68,69
 93.0684 294.78 93.0684 294.78 96.7285 297.775 c 1,70,71
 98.6611 309.163 98.6611 309.163 100.68 325.375 c 0,72,73
 104.134 353.105 104.134 353.105 107.1 385.196 c 0,74,75
 110.036 416.976 110.036 416.976 111.014 445.846 c 0,76,77
 112 475.005 112 475.005 112 487.204 c 0,78,79
 112 515.893 112 515.893 115.529 586.251 c 0,80,81
 119.025 655.932 119.025 655.932 122.019 731.838 c 0,82,83
 125.021 807.997 125.021 807.997 128.531 876.02 c 0,84,85
 132 943.252 132 943.252 132 969.773 c 2,86,-1
 132 971.591 l 1,87,-1
 140.13 1023.78 l 1,88,-1
 164.415 1363.04 l 1,89,90
 165.585 1365.25 165.585 1365.25 166.755 1367.46 c 0,91,92
 188.255 1408.09 188.255 1408.09 218.462 1440.49 c 0,93,94
 226.314 1448.86 226.314 1448.86 230.401 1453.99 c 1,95,-1
 233.64 1460.27 l 2,96,97
 238.453 1469.6 238.453 1469.6 255.822 1486.43 c 0,98,99
 269.887 1500.06 269.887 1500.06 284.184 1515.12 c 0,100,101
 300.322 1530.9 300.322 1530.9 314.27 1543.75 c 0,102,103
 330.035 1558.27 330.035 1558.27 341.794 1563.59 c 1,104,105
 361.09 1574.96 361.09 1574.96 384.449 1588.13 c 0,106,107
 425.697 1611.83 425.697 1611.83 440.419 1615.22 c 0,108,109
 466.906 1621.06 466.906 1621.06 513.177 1620 c 0,110,111
 536.831 1620 536.831 1620 560.846 1623.66 c 2,112,-1
 563.08 1624 l 1,113,-1
 736.198 1624 l 1,114,-1
 740.53 1622.63 l 2,115,116
 769.739 1613.43 769.739 1613.43 814.01 1607.78 c 0,117,118
 861.517 1602.21 861.517 1602.21 900.314 1581.53 c 0,119,120
 936.06 1562.87 936.06 1562.87 986.188 1529.01 c 0,121,122
 1046.57 1488.73 1046.57 1488.73 1073.38 1420.22 c 0,123,124
 1080.08 1402.83 1080.08 1402.83 1085.47 1377.63 c 0,125,126
 1087.94 1366.12 1087.94 1366.12 1095.7 1362.54 c 2,127,-1
 1110 1355.94 l 1,128,-1
 1110 1062.23 l 1,129,-1
 1098.25 1055.08 l 2,130,131
 1087.78 1048.71 1087.78 1048.71 1076.91 1029.45 c 0,132,133
 1063.07 1004.9 1063.07 1004.9 1048.78 977.545 c 0,134,135
 1034.2 949.647 1034.2 949.647 1019.61 922.713 c 0,136,137
 1004.76 895.295 1004.76 895.295 990.679 878.794 c 1,138,139
 982.954 866.819 982.954 866.819 955.928 850.923 c 0,140,141
 943.424 843.568 943.424 843.568 937.946 838.89 c 1,142,-1
 936.558 835.734 l 1,143,-1
 931.792 831.954 l 2,144,145
 877.33 788.757 877.33 788.757 817.889 744.393 c 0,146,147
 754.655 698.159 754.655 698.159 682.385 662.984 c 2,148,-1
 676.253 660 l 1,149,-1
 671.256 660 l 1,150,151
 665.18 658.812 665.18 658.812 648.959 654.689 c 0,152,153
 626.943 649.095 626.943 649.095 616.848 645.663 c 0,154,155
 605.705 641.413 605.705 641.413 569.693 634.978 c 0,156,157
 548.888 631.261 548.888 631.261 537.827 629.001 c 1,158,159
 535.895 626.859 535.895 626.859 534.013 624.693 c 0,160,161
 532.83 623.332 532.83 623.332 530.4 619.888 c 128,-1,162
 527.971 616.443 527.971 616.443 526.368 615.38 c 128,-1,0
 524.767 614.316 524.767 614.316 518.931 611.636 c 128,-1,1
416.383 953.374 m 1,163,-1
 483.219 905.149 l 1,164,165
 517.191 894 517.191 894 548.934 894 c 0,166,167
 563.255 894 563.255 894 576.965 896.293 c 0,168,169
 626.599 906.725 626.599 906.725 641.022 911.482 c 1,170,171
 670.371 935.113 670.371 935.113 710.244 942.664 c 0,172,173
 723.833 945.434 723.833 945.434 729.573 948.746 c 2,174,-1
 730.114 949.059 l 2,175,176
 741.451 954.945 741.451 954.945 769.79 970.048 c 0,177,178
 795.076 983.521 795.076 983.521 817.047 1002.4 c 0,179,180
 836.107 1020.02 836.107 1020.02 851.701 1073.19 c 0,181,182
 863.977 1114.82 863.977 1114.82 863.977 1129.84 c 0,183,184
 863.977 1130.25 863.977 1130.25 863.895 1130.35 c 2,185,-1
 862.73 1134.1 l 2,186,187
 855.346 1157.85 855.346 1157.85 845.29 1182.6 c 0,188,189
 835.08 1207.73 835.08 1207.73 824.876 1230.05 c 0,190,191
 816.569 1248.22 816.569 1248.22 809.635 1254.22 c 2,192,-1
 806.951 1256.54 l 1,193,-1
 805.1 1259.41 l 2,194,195
 788.859 1284.58 788.859 1284.58 720.732 1309.86 c 0,196,197
 636.174 1342 636.174 1342 576.282 1342 c 0,198,199
 550.957 1342 550.957 1342 531.435 1336.01 c 1,200,201
 479.683 1317.34 479.683 1317.34 447.338 1215.5 c 0,202,203
 413.291 1105.87 413.291 1105.87 413.291 1011.45 c 0,204,205
 413.291 981.911 413.291 981.911 416.383 953.374 c 1,163,-1
EndSplineSet
EndChar

StartChar: Q
Encoding: 81 81 29
Width: 1181
VWidth: 1597
Flags: W
LayerCount: 2
Fore
SplineSet
1084.54 -56.0898 m 128,-1,1
 1067.35 -79 1067.35 -79 1035 -79 c 0,2,3
 1019.1 -79 1019.1 -79 1007.82 -73.3604 c 2,4,-1
 1004.19 -71.5459 l 1,5,-1
 1001.32 -68.6777 l 2,6,7
 995.604 -62.96 995.604 -62.96 971.901 -40.7383 c 0,8,9
 947.611 -17.9668 947.611 -17.9668 941.19 -11.5459 c 2,10,-1
 908.007 22.6436 l 2,11,12
 886.286 44.6328 886.286 44.6328 880.499 53.5312 c 1,13,-1
 856.987 78.7305 l 2,14,15
 836.667 100.508 836.667 100.508 817.5 124.847 c 0,16,17
 806.57 138.726 806.57 138.726 795.238 151.333 c 1,18,19
 767.05 131.644 767.05 131.644 741.73 111.907 c 0,20,21
 698.561 78.5127 698.561 78.5127 649.204 51.9326 c 0,22,23
 599.514 25.1729 599.514 25.1729 546.324 8.36035 c 0,24,25
 491.402 -9 491.402 -9 424.802 -9 c 0,26,27
 318.404 -9 318.404 -9 242.865 64.9844 c 0,28,29
 175.081 134.257 175.081 134.257 128.363 230.906 c 0,30,31
 82.2529 326.301 82.2529 326.301 58.1562 426.232 c 0,32,33
 34 526.415 34 526.415 34 591.276 c 0,34,35
 34 614.207 34 614.207 37.0332 671.079 c 0,36,37
 40.0479 727.588 40.0479 727.588 45.0654 793.768 c 2,38,-1
 54.0615 915.902 l 2,39,40
 58.1367 973.205 58.1367 973.205 62.3145 998.523 c 2,41,-1
 62.7109 1000.93 l 1,42,-1
 63.5918 1003.21 l 2,43,44
 70.2539 1020.44 70.2539 1020.44 95.1699 1063.72 c 0,45,46
 118.251 1103.83 118.251 1103.83 123.592 1117.64 c 2,47,-1
 124.444 1119.84 l 1,48,-1
 125.719 1121.85 l 2,49,50
 170.233 1191.88 170.233 1191.88 213.245 1273.39 c 0,51,52
 257.808 1357.84 257.808 1357.84 316.786 1427.55 c 0,53,54
 379.046 1498.79 379.046 1498.79 462.545 1545.66 c 0,55,56
 548.667 1594 548.667 1594 671.909 1594 c 0,57,58
 747.341 1594 747.341 1594 814.058 1582.58 c 0,59,60
 883.965 1570.97 883.965 1570.97 949.962 1527.48 c 1,61,62
 993.013 1500.03 993.013 1500.03 1023.5 1445.21 c 0,63,64
 1051.93 1394.1 1051.93 1394.1 1071.08 1341.44 c 0,65,66
 1088.52 1293.46 1088.52 1293.46 1106.25 1267.91 c 0,67,68
 1127.78 1236.87 1127.78 1236.87 1138.86 1202.49 c 2,69,-1
 1140 1198.96 l 1,70,-1
 1140 846.235 l 1,71,-1
 1139.66 844.257 l 2,72,73
 1134.24 812.754 1134.24 812.754 1104.41 736.988 c 0,74,75
 1076.68 664.027 1076.68 664.027 1040.86 554.076 c 0,76,77
 1008.75 454.312 1008.75 454.312 966.765 357.546 c 1,78,-1
 1093.28 200.388 l 1,79,-1
 1093.8 199.635 l 2,80,81
 1107.56 179.631 1107.56 179.631 1109.96 140.119 c 2,82,-1
 1110 139.409 l 1,83,-1
 1110 116.401 l 2,84,85
 1110 93.1885 1110 93.1885 1107.91 66.8457 c 0,86,87
 1102.38 9.72168 1102.38 9.72168 1102 2.70117 c 0,88,0
 1101.72 -33.1797 1101.72 -33.1797 1084.54 -56.0898 c 128,-1,1
346.127 728.73 m 0,89,90
 351.05 700.049 351.05 700.049 354.066 688.82 c 1,91,92
 382.417 616.688 382.417 616.688 394.57 575.38 c 0,93,94
 409.838 523.164 409.838 523.164 436.388 486.577 c 0,95,96
 464.276 448.146 464.276 448.146 506.669 403.917 c 0,97,98
 542.053 367 542.053 367 633.809 367 c 1,99,100
 560.864 449.289 560.864 449.289 555.529 456.248 c 0,101,102
 511.282 515.98 511.282 515.98 499.255 580.47 c 0,103,104
 496.648 592.398 496.648 592.398 496.648 603.617 c 0,105,106
 496.648 663.527 496.648 663.527 553.213 729.448 c 2,107,-1
 572.024 751.372 l 1,108,-1
 594.269 732.031 l 2,109,110
 698.949 641.017 698.949 641.017 796.446 547.317 c 1,111,112
 815.649 627.1 815.649 627.1 817.238 707.66 c 0,113,114
 818.867 790.227 818.867 790.227 818.867 836.447 c 0,115,116
 818.867 923.379 818.867 923.379 811.903 989.999 c 0,117,118
 805.247 1053.67 805.247 1053.67 779.404 1103.01 c 0,119,120
 754.583 1150.4 754.583 1150.4 700.983 1184.6 c 0,121,122
 645.421 1220.06 645.421 1220.06 545.384 1246.33 c 2,123,-1
 538.843 1248.05 l 2,124,125
 538.007 1248.78 538.007 1248.78 522.673 1249.63 c 0,126,127
 497.965 1251 497.965 1251 486.851 1251 c 0,128,129
 474.777 1251 474.777 1251 453.458 1249.64 c 0,130,131
 442.753 1248.96 442.753 1248.96 437.292 1247.98 c 1,132,133
 432.906 1245.69 432.906 1245.69 422.578 1237.4 c 0,134,135
 408.821 1226.36 408.821 1226.36 393.786 1213.29 c 2,136,-1
 364.006 1188.35 l 2,137,138
 357.123 1182.83 357.123 1182.83 354.007 1179.05 c 1,139,140
 350.96 1163.34 350.96 1163.34 346.248 1128.11 c 2,141,-1
 335.375 1043.97 l 2,142,143
 329.997 1000.95 329.997 1000.95 326.765 960.227 c 0,144,145
 323.564 919.877 323.564 919.877 323.564 905.54 c 0,146,147
 323.564 895.226 323.564 895.226 326.725 864.082 c 0,148,149
 329.941 832.397 329.941 832.397 335.312 796.431 c 0,150,151
 340.717 760.242 340.717 760.242 346.127 728.73 c 0,89,90
EndSplineSet
EndChar

StartChar: R
Encoding: 82 82 30
Width: 1187
VWidth: 1597
Flags: W
LayerCount: 2
Fore
SplineSet
951.774 47.8496 m 0,0,1
 940.513 34.6396 940.513 34.6396 935.434 32.2305 c 0,2,3
 920.927 25 920.927 25 908.5 25 c 2,4,-1
 893.864 25 l 2,5,6
 837.025 25 837.025 25 794.677 82.4785 c 0,7,8
 759.04 130.849 759.04 130.849 729.771 191.919 c 0,9,10
 700.882 252.192 700.882 252.192 680.309 312.521 c 0,11,12
 660.873 369.514 660.873 369.514 647.457 397.21 c 1,13,14
 645.145 399.288 645.145 399.288 642.258 401.579 c 0,15,16
 629.544 411.676 629.544 411.676 624.49 416.322 c 2,17,-1
 621.386 419.177 l 1,18,-1
 487.366 664.666 l 1,19,20
 445.321 634.435 445.321 634.435 423.775 590.688 c 0,21,22
 398.949 540.276 398.949 540.276 387.05 486.056 c 0,23,24
 375.015 431.214 375.015 431.214 373.441 370.405 c 0,25,26
 371.841 308.623 371.841 308.623 368.637 254.696 c 1,27,-1
 374.176 208.865 l 1,28,-1
 368.283 164.43 l 1,29,30
 363.189 136.33 363.189 136.33 324.542 108.41 c 0,31,32
 290.635 83.4697 290.635 83.4697 248.481 58.6348 c 0,33,34
 207.354 33.6455 207.354 33.6455 167.094 16.9141 c 0,35,36
 123.988 -1 123.988 -1 99 -1 c 2,37,-1
 87 -1 l 2,38,39
 76 -1 76 -1 65 7 c 2,40,-1
 63.5791 8.06641 l 1,41,-1
 62.3223 9.32227 l 2,42,43
 52.5283 18.8164 52.5283 18.8164 39.6709 51.6719 c 0,44,45
 29 78.1064 29 78.1064 29 95.2803 c 0,46,47
 29 100.848 29 100.848 30.3066 105.913 c 2,48,-1
 129.072 1361.12 l 1,49,50
 150.943 1393.5 150.943 1393.5 152.322 1394.83 c 0,51,52
 168.154 1410.18 168.154 1410.18 187.386 1429.78 c 0,53,54
 207.069 1449.84 207.069 1449.84 227.822 1469.95 c 0,55,56
 249.333 1490.81 249.333 1490.81 267.225 1502 c 1,57,58
 358.165 1569.83 358.165 1569.83 452.108 1589.35 c 0,59,60
 543.788 1609 543.788 1609 656.768 1609 c 0,61,62
 763.568 1609 763.568 1609 851.328 1594.61 c 0,63,64
 938.705 1580.13 938.705 1580.13 999.163 1539.85 c 0,65,66
 1060.95 1498.68 1060.95 1498.68 1093.82 1427.54 c 0,67,68
 1126 1357.88 1126 1357.88 1126 1250.95 c 0,69,70
 1126 1188.41 1126 1188.41 1124.48 1152.08 c 0,71,72
 1122.78 1111.41 1122.78 1111.41 1095.69 1054.7 c 2,73,-1
 1095.24 1053.75 l 1,74,-1
 1093.92 1051.52 l 1,75,-1
 1092.93 1049.85 l 1,76,-1
 1092.17 1048.56 l 1,77,-1
 1091.58 1047.56 l 1,78,-1
 1091.13 1046.79 l 1,79,-1
 1090.52 1045.76 l 1,80,-1
 1090.34 1045.46 l 1,81,-1
 1090.19 1045.19 l 1,82,-1
 1090.36 1045.48 l 1,83,-1
 1090.66 1046 l 1,84,-1
 1091.08 1046.71 l 1,85,-1
 1091.33 1047.14 l 1,86,-1
 1091.6 1047.59 l 1,87,-1
 1091.89 1048.09 l 1,88,-1
 1092.53 1049.17 l 1,89,-1
 1093.24 1050.37 l 1,90,-1
 1093.61 1051 l 1,91,-1
 1094.4 1052.34 l 1,92,-1
 1094.82 1053.04 l 1,93,-1
 1095.24 1053.76 l 1,94,-1
 1095.68 1054.5 l 1,95,-1
 1096.12 1055.26 l 1,96,-1
 1096.58 1056.03 l 1,97,-1
 1097.04 1056.81 l 1,98,-1
 1097.51 1057.61 l 1,99,-1
 1098.48 1059.25 l 1,100,-1
 1098.97 1060.09 l 1,101,-1
 1099.48 1060.94 l 1,102,-1
 1099.98 1061.8 l 1,103,-1
 1100.5 1062.67 l 1,104,-1
 1101.02 1063.55 l 1,105,-1
 1101.54 1064.44 l 1,106,-1
 1102.6 1066.24 l 1,107,-1
 1103.14 1067.16 l 1,108,-1
 1103.68 1068.08 l 1,109,-1
 1104.23 1069 l 1,110,-1
 1104.78 1069.93 l 1,111,-1
 1105.33 1070.87 l 1,112,-1
 1105.89 1071.81 l 1,113,-1
 1106.45 1072.76 l 1,114,-1
 1107.01 1073.71 l 1,115,-1
 1107.57 1074.67 l 1,116,-1
 1108.14 1075.63 l 1,117,-1
 1108.7 1076.59 l 1,118,-1
 1109.27 1077.55 l 1,119,-1
 1110.1 1078.96 l 1,120,-1
 1113.07 1083.99 l 1,121,-1
 1115.49 1088.09 l 1,122,-1
 1117.56 1091.6 l 1,123,-1
 1119.38 1094.7 l 1,124,-1
 1121.02 1097.47 l 1,125,-1
 1122.5 1099.97 l 1,126,-1
 1123.85 1102.26 l 1,127,-1
 1125.09 1104.37 l 1,128,-1
 1126.24 1106.32 l 1,129,-1
 1127.3 1108.12 l 1,130,-1
 1128.29 1109.8 l 1,131,-1
 1129.22 1111.37 l 1,132,-1
 1130.08 1112.83 l 1,133,-1
 1130.89 1114.21 l 1,134,-1
 1131.65 1115.49 l 1,135,-1
 1132.36 1116.7 l 1,136,-1
 1133.03 1117.84 l 1,137,-1
 1133.66 1118.9 l 1,138,-1
 1134.25 1119.91 l 1,139,-1
 1134.81 1120.85 l 1,140,-1
 1135.33 1121.74 l 1,141,-1
 1135.83 1122.58 l 1,142,-1
 1136.73 1124.1 l 1,143,-1
 1137.13 1124.79 l 1,144,-1
 1137.52 1125.45 l 1,145,-1
 1138.22 1126.63 l 2,146,147
 1141.39 1131.94 1141.39 1131.94 1141.31 1131.87 c 129,-1,148
 1141.34 1131.87 1141.34 1131.87 1094.71 1052.85 c 0,149,150
 1073.14 1016.28 1073.14 1016.28 1037.94 981.131 c 0,151,152
 1004.36 947.598 1004.36 947.598 968.725 916.519 c 0,153,154
 935.577 887.607 935.577 887.607 911.068 855.629 c 0,155,156
 889.514 828.146 889.514 828.146 889.514 795.457 c 0,157,158
 889.514 719.476 889.514 719.476 921.864 638.355 c 0,159,160
 954.945 554.138 954.945 554.138 992.39 480.609 c 0,161,162
 1007.35 451.611 1007.35 451.611 1028.5 424.281 c 0,163,164
 1051.63 394.389 1051.63 394.389 1073.18 361.073 c 0,165,166
 1095.42 326.7 1095.42 326.7 1110.26 290.223 c 0,167,168
 1126 251.53 1126 251.53 1126 210.104 c 0,169,170
 1126 168.022 1126 168.022 1107.95 141.158 c 0,171,172
 1090.83 115.675 1090.83 115.675 1061.93 98.7529 c 0,173,174
 1035.84 83.4766 1035.84 83.4766 1006.04 72.9766 c 0,175,176
 980.178 63.8623 980.178 63.8623 956.213 52.7676 c 1,177,178
 954.081 50.5557 954.081 50.5557 951.774 47.8496 c 0,0,1
472.068 1316.21 m 0,179,180
 457.684 1295.13 457.684 1295.13 449.002 1273.58 c 1,181,182
 448.584 1246.8 448.584 1246.8 443.512 1188.51 c 0,183,184
 438.114 1126.47 438.114 1126.47 434.871 1058.41 c 0,185,186
 431.586 989.443 431.586 989.443 426.11 926.506 c 0,187,188
 420.759 864.999 420.759 864.999 420.759 843 c 2,189,-1
 420.759 788.212 l 1,190,191
 449.121 794.941 449.121 794.941 479 814.4 c 0,192,193
 533.208 849.705 533.208 849.705 576.062 865.838 c 1,194,195
 621.107 886.006 621.107 886.006 670.761 905.069 c 0,196,197
 717.518 923.021 717.518 923.021 756.985 948.468 c 0,198,199
 794.421 972.607 794.421 972.607 817.076 1005.4 c 0,200,201
 838.397 1036.27 838.397 1036.27 838.397 1083 c 0,202,203
 838.397 1146.49 838.397 1146.49 810.855 1191.8 c 0,204,205
 782.753 1238.04 782.753 1238.04 736.972 1268.82 c 0,206,207
 690.526 1300.04 690.526 1300.04 629.696 1314.83 c 0,208,209
 567.3 1330 567.3 1330 504.504 1330 c 0,210,211
 481.478 1330 481.478 1330 472.068 1316.21 c 0,179,180
EndSplineSet
EndChar

StartChar: S
Encoding: 83 83 31
Width: 1035
VWidth: 1597
Flags: W
LayerCount: 2
Fore
SplineSet
918.354 1589.55 m 0,0,1
 973.038 1551.65 973.038 1551.65 1010.07 1460.22 c 1,2,3
 1018.61 1447.6 1018.61 1447.6 1018.61 1431 c 0,4,5
 1018.61 1400.64 1018.61 1400.64 990.124 1356.45 c 0,6,7
 964.604 1316.87 964.604 1316.87 929.865 1277.47 c 128,-1,8
 895.029 1237.95 895.029 1237.95 859.975 1209.18 c 0,9,10
 819.561 1176 819.561 1176 791.612 1176 c 0,11,12
 745.587 1176 745.587 1176 722.237 1203.23 c 0,13,14
 706.785 1221.25 706.785 1221.25 690.248 1242.79 c 0,15,16
 676.73 1260.41 676.73 1260.41 654.278 1275.45 c 0,17,18
 635.544 1288 635.544 1288 584.728 1288 c 0,19,20
 541.905 1288 541.905 1288 503.66 1286.58 c 0,21,22
 470.245 1285.34 470.245 1285.34 445.227 1275.31 c 0,23,24
 421.882 1265.96 421.882 1265.96 406.701 1247.56 c 0,25,26
 392.642 1230.52 392.642 1230.52 392.422 1195.82 c 0,27,28
 392.562 1192.83 392.562 1192.83 393.943 1181.26 c 0,29,30
 394.91 1173.18 394.91 1173.18 395.395 1167.07 c 1,31,32
 402.121 1159.67 402.121 1159.67 415.409 1148.17 c 2,33,-1
 459.872 1109.68 l 2,34,35
 482.996 1089.66 482.996 1089.66 504.635 1071.41 c 0,36,37
 519.453 1058.92 519.453 1058.92 528.01 1051.15 c 1,38,39
 538.548 1048.28 538.548 1048.28 553.272 1042.25 c 0,40,41
 574.284 1033.63 574.284 1033.63 587.512 1026.03 c 1,42,43
 596.314 1022.6 596.314 1022.6 622.762 1013.52 c 0,44,45
 655.153 1002.4 655.153 1002.4 689.195 990.324 c 0,46,47
 723.874 978.021 723.874 978.021 754.629 965.203 c 0,48,49
 783.665 952.599 783.665 952.599 789.793 949.649 c 2,50,-1
 791.763 948.702 l 1,51,-1
 793.53 947.438 l 2,52,53
 835.25 917.589 835.25 917.589 870.834 873.639 c 0,54,55
 905.864 830.371 905.864 830.371 932.473 779.165 c 128,-1,56
 959.111 727.902 959.111 727.902 974.272 673.079 c 0,57,58
 989.612 617.606 989.612 617.606 989.612 572.117 c 0,59,60
 989.612 562.56 989.612 562.56 978.405 529.13 c 0,61,62
 967.942 497.922 967.942 497.922 961.123 483.704 c 0,63,64
 918.975 403.56 918.975 403.56 884.005 335.782 c 0,65,66
 847.957 265.912 847.957 265.912 802.01 207.79 c 0,67,68
 753.458 148.836 753.458 148.836 679.212 100.635 c 0,69,70
 605.994 53.0996 605.994 53.0996 498.161 14.9443 c 0,71,72
 488.223 10.5283 488.223 10.5283 468.094 7.33301 c 0,73,74
 444.739 4.10059 444.739 4.10059 438.132 1.60938 c 2,75,-1
 437.469 1.31055 l 1,76,-1
 436.719 1.02148 l 2,77,78
 405.891 -10.8643 405.891 -10.8643 384.651 -7.67969 c 0,79,80
 330.233 0 330.233 0 274.612 0 c 0,81,82
 261.771 0 261.771 0 178.949 12.2695 c 2,83,-1
 177.354 12.5059 l 1,84,-1
 175.805 12.9453 l 2,85,86
 116.136 29.832 116.136 29.832 49.3916 100.883 c 2,87,-1
 29 122.59 l 1,88,-1
 53.9121 138.911 l 2,89,90
 77.6953 154.494 77.6953 154.494 97.1963 190.027 c 0,91,92
 120.021 231.619 120.021 231.619 147.371 275.684 c 0,93,94
 176.224 322.168 176.224 322.168 210.585 353.308 c 1,95,96
 239.596 381 239.596 381 280.154 381 c 0,97,98
 294.927 381 294.927 381 312.365 377.509 c 0,99,100
 338.516 372.66 338.516 372.66 358.329 355.521 c 0,101,102
 372.487 343.274 372.487 343.274 389.965 329.024 c 0,103,104
 404.571 317.117 404.571 317.117 427.346 307.727 c 0,105,106
 448.51 299 448.51 299 484.685 299 c 0,107,108
 574.707 299 574.707 299 617.496 345.353 c 0,109,110
 662.539 394.147 662.539 394.147 662.539 468.544 c 2,111,-1
 662.539 476.764 l 1,112,113
 658.701 485.057 658.701 485.057 649.801 500.835 c 0,114,115
 637.581 522.498 637.581 522.498 623.231 547.362 c 2,116,-1
 596.555 593.602 l 2,117,118
 588.873 606.915 588.873 606.915 583.572 614.93 c 1,119,120
 564.169 622.27 564.169 622.27 530.385 638.096 c 0,121,122
 489.699 657.155 489.699 657.155 444.032 676.704 c 0,123,124
 398.099 696.365 398.099 696.365 355.671 714.75 c 0,125,126
 313.638 732.498 313.638 732.498 297.074 737.881 c 2,127,-1
 294.916 738.582 l 1,128,-1
 292.92 739.582 l 2,129,130
 202.763 788.792 202.763 788.792 160.971 852.578 c 0,131,132
 118.612 917.229 118.612 917.229 118.612 1023.42 c 0,133,134
 118.612 1095.04 118.612 1095.04 123.759 1140.65 c 0,135,136
 129.12 1188.16 129.12 1188.16 144.836 1226.79 c 128,-1,137
 160.512 1265.33 160.512 1265.33 187.906 1301.55 c 0,138,139
 213.786 1335.77 213.786 1335.77 258.29 1388.38 c 0,140,141
 310.559 1445.04 310.559 1445.04 359.66 1489.06 c 0,142,143
 410.371 1534.52 410.371 1534.52 466.622 1564.99 c 0,144,145
 523.461 1595.78 523.461 1595.78 593.017 1612.13 c 0,146,147
 662.177 1629 662.177 1629 759.247 1629 c 0,148,149
 861.424 1629 861.424 1629 918.354 1589.55 c 0,0,1
EndSplineSet
EndChar

StartChar: T
Encoding: 84 84 32
Width: 1363
VWidth: 1597
Flags: W
LayerCount: 2
Fore
SplineSet
38 1367.71 m 1,0,-1
 38 1373.97 l 2,1,2
 38 1436.4 38 1436.4 91.3223 1488.14 c 0,3,4
 141.379 1536.71 141.379 1536.71 195.806 1555.03 c 2,5,-1
 198.474 1555.93 l 1,6,-1
 201.28 1556.22 l 2,7,8
 478.819 1584.44 478.819 1584.44 769.74 1600.95 c 0,9,10
 1061.06 1618 1061.06 1618 1334 1618 c 2,11,-1
 1359 1618 l 1,12,-1
 1359 1593 l 2,13,14
 1359 1505.42 1359 1505.42 1305.18 1453.25 c 0,15,16
 1254.81 1404.43 1254.81 1404.43 1180.67 1377.87 c 0,17,18
 1108.89 1352.25 1108.89 1352.25 1026.22 1341.71 c 0,19,20
 961.151 1333.41 961.151 1333.41 908.669 1325.4 c 1,21,-1
 908.669 1078.12 l 1,22,-1
 903.222 1026.53 l 1,23,-1
 898.926 987.4 l 2,24,25
 893.623 948.75 893.623 948.75 888.35 893.506 c 128,-1,26
 883.067 838.151 883.067 838.151 879.905 780.029 c 128,-1,27
 876.746 721.99 876.746 721.99 872.488 683.555 c 1,28,-1
 872.488 604.337 l 2,29,30
 872.488 575.455 872.488 575.455 867.644 506.824 c 0,31,32
 862.878 439.292 862.878 439.292 859.699 362.079 c 0,33,34
 856.341 280.499 856.341 280.499 831.33 221.471 c 0,35,36
 809.703 170.429 809.703 170.429 809.703 146.838 c 2,37,-1
 809.703 142.339 l 1,38,-1
 807.93 138.14 l 2,39,40
 795.639 109.034 795.639 109.034 763.925 75.335 c 0,41,42
 733.591 43.1006 733.591 43.1006 696.04 15.5352 c 0,43,44
 658.042 -13.2432 658.042 -13.2432 615.961 -32.4805 c 0,45,46
 571.078 -53 571.078 -53 538.346 -53 c 2,47,-1
 511.742 -53 l 1,48,-1
 511.742 -28 l 2,49,50
 511.742 313.657 511.742 313.657 545.909 648.549 c 0,51,52
 578.564 968.621 578.564 968.621 579.8 1292.51 c 1,53,-1
 90.5596 1275.43 l 1,54,-1
 38 1367.71 l 1,0,-1
EndSplineSet
EndChar

StartChar: U
Encoding: 85 85 33
Width: 1112
VWidth: 1597
Flags: W
LayerCount: 2
Fore
SplineSet
31.0879 239.406 m 0,0,1
 26 299.952 26 299.952 26 352 c 0,2,3
 26 610.827 26 610.827 43.0566 866.688 c 0,4,5
 55.999 1057.84 55.999 1057.84 56 1251 c 0,6,7
 56 1315.81 56 1315.81 55.0029 1380.62 c 2,8,-1
 54.9443 1384.44 l 1,9,-1
 56.0342 1388.12 l 2,10,11
 76.4209 1456.79 76.4209 1456.79 120.96 1512.59 c 0,12,13
 164.303 1566.9 164.303 1566.9 216.624 1607.71 c 2,14,-1
 230.853 1618.81 l 1,15,-1
 298.315 1575.38 l 1,16,-1
 298.315 995.151 l 1,17,-1
 304.696 932.052 l 1,18,-1
 313.657 878.885 l 1,19,-1
 312.589 437.993 l 1,20,21
 327.738 426.251 327.738 426.251 337.326 409.669 c 0,22,23
 348.096 391.042 348.096 391.042 357.185 372.894 c 0,24,25
 363.083 361.115 363.083 361.115 373.478 353.917 c 0,26,27
 382.023 348 382.023 348 400.198 348 c 0,28,29
 515.425 348 515.425 348 584.774 404.546 c 0,30,31
 657.568 463.9 657.568 463.9 697.463 549.833 c 0,32,33
 738.693 638.641 738.693 638.641 760.102 728.817 c 128,-1,34
 781.537 819.097 781.537 819.097 784.741 899.731 c 2,35,-1
 784.834 902.081 l 1,36,-1
 797.37 949.091 l 1,37,-1
 802.745 973.616 l 2,38,39
 807.967 997.446 807.967 997.446 811.128 1027.98 c 0,40,41
 814.482 1060.36 814.482 1060.36 820.071 1093.71 c 0,42,43
 825.258 1124.66 825.258 1124.66 825.258 1144.06 c 2,44,-1
 825.258 1144.66 l 1,45,46
 828.559 1202.61 828.559 1202.61 830.193 1276.24 c 0,47,48
 831.892 1352.81 831.892 1352.81 849.655 1421.12 c 0,49,50
 867.179 1493.24 867.179 1493.24 914.736 1542.15 c 0,51,52
 965.15 1594 965.15 1594 1066 1594 c 2,53,-1
 1091 1594 l 1,54,-1
 1091 1569.75 l 2,55,56
 1091 1467.3 1091 1467.3 1085.96 1375.48 c 0,57,58
 1080.96 1284.17 1080.96 1284.17 1074.95 1194.33 c 0,59,60
 1068.9 1103.93 1068.9 1103.93 1057.32 1010.2 c 0,61,62
 1045.86 917.393 1045.86 917.393 1033.79 811.121 c 1,63,64
 1017.21 705.564 1017.21 705.564 951.315 562.883 c 0,65,66
 885.652 420.695 885.652 420.695 780.735 294.764 c 0,67,68
 671.687 168.517 671.687 168.517 539.446 79.7256 c 0,69,70
 402.835 -12 402.835 -12 258 -12 c 0,71,72
 175.914 -12 175.914 -12 128.948 27.334 c 0,73,74
 84.3965 64.6465 84.3965 64.6465 60.0449 121.098 c 0,75,76
 36.4297 175.843 36.4297 175.843 31.0879 239.406 c 0,0,1
EndSplineSet
EndChar

StartChar: V
Encoding: 86 86 34
Width: 1179
VWidth: 1597
Flags: W
LayerCount: 2
Fore
SplineSet
760.355 390.285 m 1,0,-1
 692.564 161.067 l 2,1,2
 663.813 78.1699 663.813 78.1699 582.009 31.0332 c 0,3,4
 492.549 -21 492.549 -21 403.848 -21 c 0,5,6
 391.603 -21 391.603 -21 353.319 -17.5 c 0,7,8
 317.805 -14 317.805 -14 308.345 -14 c 2,9,-1
 305.659 -14 l 1,10,-1
 303.024 -14 l 2,11,12
 291.079 -13.3701 291.079 -13.3701 282.024 -10.1895 c 0,13,14
 272.968 -1.53711 272.968 -1.53711 265.194 16.4922 c 0,15,16
 257.988 38.7803 257.988 38.7803 252.645 60.7002 c 0,17,18
 247.302 83.4053 247.302 83.4053 238.118 123.813 c 0,19,20
 228.934 164.816 228.934 164.816 220.814 196.031 c 0,21,22
 183.22 337.897 183.22 337.897 174.058 469.018 c 0,23,24
 165.175 600.207 165.175 600.207 147.549 682.291 c 128,-1,25
 130.081 764.29 130.081 764.29 122.88 802.014 c 1,26,27
 115.262 822.377 115.262 822.377 108.317 865.528 c 0,28,29
 103.072 898.121 103.072 898.121 86.3184 909.076 c 2,30,-1
 78.5215 914.174 l 1,31,-1
 75.9619 923.132 l 2,32,33
 71.6357 938.274 71.6357 938.274 64.9199 974.436 c 0,34,35
 58.4727 1009.16 58.4727 1009.16 50.0332 1049.37 c 0,36,37
 41.5117 1087.39 41.5117 1087.39 34.4727 1120.83 c 0,38,39
 27.4268 1156.89 27.4268 1156.89 24.3809 1174.31 c 2,40,-1
 24 1176.47 l 1,41,-1
 24 1183 l 2,42,43
 24 1189.44 24 1189.44 22.0176 1242.15 c 0,44,45
 20 1297.23 20 1297.23 20 1324 c 0,46,47
 20 1365.05 20 1365.05 22.0195 1415.5 c 128,-1,48
 24.123 1465.91 24.123 1465.91 36.2617 1511.5 c 0,49,50
 49.4502 1556.79 49.4502 1556.79 84.8223 1587.5 c 0,51,52
 122.643 1618 122.643 1618 190 1618 c 0,53,54
 219.346 1618 219.346 1618 240.147 1614.5 c 0,55,56
 265.336 1610.64 265.336 1610.64 296.91 1590 c 2,57,-1
 338.318 1550.91 l 1,58,-1
 300.87 1544.01 l 1,59,60
 302.244 1523.22 302.244 1523.22 316.464 1473.97 c 0,61,62
 332.796 1400.99 332.796 1400.99 349.131 1320 c 0,63,64
 365.143 1238.87 365.143 1238.87 385.882 1174 c 0,65,66
 406.516 1109.5 406.516 1109.5 415.529 1078.06 c 1,67,68
 424.145 1059.77 424.145 1059.77 430.761 1018.17 c 0,69,70
 436.916 973.731 436.916 973.731 456.624 921.163 c 2,71,-1
 456.951 920.29 l 1,72,-1
 534.778 649.373 l 1,73,74
 538.222 663.672 538.222 663.672 541.605 680.147 c 0,75,76
 545.792 700.541 545.792 700.541 558.431 733.36 c 1,77,78
 558.493 733.34 558.493 733.34 558.669 734.218 c 128,-1,79
 558.845 735.097 558.845 735.097 559.894 737.132 c 128,-1,80
 560.944 739.167 560.944 739.167 562.987 741.771 c 128,-1,81
 565.03 744.377 565.03 744.377 569.724 748.345 c 128,-1,82
 574.419 752.313 574.419 752.313 580.987 756.522 c 0,83,84
 582.648 757.588 582.648 757.588 584.529 758.923 c 1,85,86
 588.44 767.059 588.44 767.059 597.322 782.949 c 0,87,88
 606.037 798.538 606.037 798.538 614.828 818.075 c 0,89,90
 623.902 838.242 623.902 838.242 631.337 856.348 c 0,91,92
 638.143 872.924 638.143 872.924 639.875 880.903 c 2,93,-1
 640.144 882.144 l 1,94,-1
 640.548 883.353 l 2,95,96
 644.892 896.362 644.892 896.362 658.003 934.119 c 0,97,98
 670.916 971.308 670.916 971.308 683.272 1010.91 c 0,99,100
 695.778 1047.23 695.778 1047.23 707.205 1079.5 c 0,101,102
 718.129 1115.54 718.129 1115.54 721.111 1133 c 2,103,-1
 723.424 1127.38 l 1,104,-1
 736.103 1133 l 2,105,106
 754.792 1145.47 754.792 1145.47 762.131 1178 c 0,107,108
 772.138 1207.59 772.138 1207.59 779.631 1230.29 c 1,109,110
 780.961 1240.98 780.961 1240.98 790.015 1265 c 0,111,112
 798.927 1289.92 798.927 1289.92 807.365 1320.5 c 0,113,114
 816.844 1351.88 816.844 1351.88 851.423 1408.5 c 0,115,116
 878.494 1455.66 878.494 1455.66 885.683 1468.42 c 1,117,118
 892.707 1500.6 892.707 1500.6 924.101 1550.5 c 0,119,120
 958.511 1599.45 958.511 1599.45 1006.33 1614.65 c 0,121,122
 1022.13 1620 1022.13 1620 1049 1620 c 0,123,124
 1060.04 1620 1060.04 1620 1072.93 1618.99 c 0,125,126
 1113.87 1616 1113.87 1616 1123 1616 c 2,127,-1
 1148 1616 l 1,128,-1
 1148 1616 l 2,129,130
 1148 1595.08 1148 1595.08 1146.98 1568.08 c 0,131,132
 1145.94 1540.2 1145.94 1540.2 1141.82 1504.57 c 0,133,134
 1137.8 1470.63 1137.8 1470.63 1132.77 1433.71 c 0,135,136
 1127.45 1389.29 1127.45 1389.29 1110.59 1357.53 c 1,137,138
 1103.32 1324.67 1103.32 1324.67 1081.66 1278.76 c 0,139,140
 1046.77 1205.55 1046.77 1205.55 1039.94 1190.05 c 0,141,142
 1028.67 1164.59 1028.67 1164.59 1008.1 1091.67 c 0,143,144
 993.333 1043.42 993.333 1043.42 989.515 1026.1 c 2,145,-1
 989.064 1023.85 l 1,146,-1
 988.212 1021.71 l 2,147,148
 980.25 1001.82 980.25 1001.82 976.145 991.289 c 1,149,150
 977 986.438 977 986.438 977 983 c 0,151,152
 977 960.497 977 960.497 949.703 901.533 c 0,153,154
 917.978 832.479 917.978 832.479 914.643 823.871 c 2,155,-1
 914.441 823.267 l 1,156,-1
 914.108 822.46 l 2,157,158
 866.998 715.052 866.998 715.052 859.872 689.726 c 2,159,-1
 859.439 688.189 l 1,160,-1
 858.799 686.715 l 2,161,162
 854.992 677.948 854.992 677.948 833.71 611.319 c 0,163,164
 830.748 601.071 830.748 601.071 801.088 536.282 c 2,165,-1
 799.616 533.066 l 1,166,167
 794.452 516.811 794.452 516.811 782.225 454.05 c 0,168,169
 780.742 445.594 780.742 445.594 778.807 432.811 c 0,170,171
 776.873 420.893 776.873 420.893 775.806 415.42 c 0,172,173
 774.74 410.454 774.74 410.454 772.701 403.77 c 0,174,175
 770.661 399.319 770.661 399.319 767.724 396.247 c 128,-1,176
 764.787 393.192 764.787 393.192 760.355 390.285 c 1,0,-1
EndSplineSet
EndChar

StartChar: W
Encoding: 87 87 35
Width: 1928
VWidth: 1597
Flags: W
LayerCount: 2
Fore
SplineSet
523.355 829.34 m 0,0,1
 530.536 844.109 530.536 844.109 544.141 855.421 c 0,2,3
 551.491 861.531 551.491 861.531 555.347 864.917 c 1,4,5
 559.315 871.579 559.315 871.579 566.334 885.449 c 0,6,7
 576.276 905.099 576.276 905.099 579.437 911.181 c 2,8,-1
 582.817 917.691 l 1,9,-1
 587.931 920.646 l 1,10,11
 600.7 935.358 600.7 935.358 628.194 1006.75 c 0,12,13
 658.738 1079.27 658.738 1079.27 695.583 1148 c 2,14,-1
 695.883 1147.42 l 1,15,-1
 696.215 1148 l 2,16,17
 730.78 1211.9 730.78 1211.9 747.123 1287.5 c 0,18,19
 764.574 1360.89 764.574 1360.89 801.399 1423.97 c 1,20,21
 805.116 1431.64 805.116 1431.64 816.973 1440 c 0,22,23
 828.363 1447.84 828.363 1447.84 839.716 1451.75 c 1,24,25
 862.718 1468.26 862.718 1468.26 877.812 1487.5 c 0,26,27
 896.839 1506.95 896.839 1506.95 915.971 1523 c 0,28,29
 937.451 1539.03 937.451 1539.03 964.941 1548.5 c 0,30,31
 993.16 1558 993.16 1558 1034.77 1558 c 0,32,33
 1043.07 1558 1043.07 1558 1063.82 1556.5 c 0,34,35
 1082.53 1555 1082.53 1555 1087.74 1555 c 2,36,-1
 1111.24 1555 l 1,37,-1
 1206.93 660.821 l 1,38,39
 1221.12 649.965 1221.12 649.965 1230.88 635.867 c 2,40,-1
 1233.03 632.761 l 2,41,42
 1233.59 630.972 1233.59 630.972 1234.14 629.184 c 0,43,44
 1237.82 617.398 1237.82 617.398 1241.21 594.535 c 0,45,46
 1243.7 577.762 1243.7 577.762 1247.24 559.179 c 1,47,48
 1313.56 712.614 1313.56 712.614 1360.22 845.032 c 0,49,50
 1418.79 1009.33 1418.79 1009.33 1458.96 1225 c 2,51,-1
 1461.1 1219.21 l 1,52,-1
 1471.8 1225 l 2,53,54
 1481.51 1233.47 1481.51 1233.47 1487.32 1248.47 c 1,55,56
 1520.81 1323.77 1520.81 1323.77 1541.4 1386.5 c 0,57,58
 1563.76 1448.76 1563.76 1448.76 1597.33 1495.5 c 0,59,60
 1632.85 1542.11 1632.85 1542.11 1691.99 1568 c 0,61,62
 1750.2 1594 1750.2 1594 1852 1594 c 2,63,-1
 1877 1594 l 1,64,-1
 1877 1594 l 2,65,66
 1877 1573.85 1877 1573.85 1875.47 1543.42 c 0,67,68
 1873.89 1511.45 1873.89 1511.45 1868.64 1479.5 c 0,69,70
 1863.08 1443.94 1863.08 1443.94 1850.73 1414.17 c 0,71,72
 1838.94 1381.38 1838.94 1381.38 1815.36 1363.22 c 1,73,-1
 1703.22 945.811 l 2,74,75
 1702.51 943.025 1702.51 943.025 1701.8 940.24 c 1,76,-1
 1679.16 913.48 l 1,77,-1
 1545.68 549.729 l 1,78,-1
 1538 545 l 2,79,80
 1520.18 529.521 1520.18 529.521 1513.06 496.999 c 0,81,82
 1503.26 465.775 1503.26 465.775 1495.74 442.407 c 0,83,84
 1469.75 369.45 1469.75 369.45 1439.42 287 c 0,85,86
 1408.23 205.108 1408.23 205.108 1359.68 137.5 c 0,87,88
 1309.93 70.0342 1309.93 70.0342 1235.76 27 c 0,89,90
 1159.76 -16 1159.76 -16 1048.27 -16 c 0,91,92
 984.541 -16 984.541 -16 953.564 6.5 c 0,93,94
 923.136 31.0166 923.136 31.0166 919.522 87.3154 c 1,95,-1
 867.571 732.645 l 1,96,97
 861.862 737.107 861.862 737.107 856.963 741.822 c 0,98,99
 842.951 755.313 842.951 755.313 839.641 771.802 c 0,100,101
 836.466 782.604 836.466 782.604 833.518 802.465 c 0,102,103
 831.253 817.728 831.253 817.728 827.831 834.718 c 1,104,105
 813.643 806.937 813.643 806.937 797.757 781.949 c 0,106,107
 761.545 724.991 761.545 724.991 729.882 662.056 c 0,108,109
 689.561 587.834 689.561 587.834 653.229 517.5 c 0,110,111
 616.497 442.132 616.497 442.132 572.375 365.193 c 1,112,113
 542.912 314.139 542.912 314.139 514.944 248.5 c 0,114,115
 485.625 183.038 485.625 183.038 448.262 125.5 c 0,116,117
 409.523 68.0723 409.523 68.0723 354.012 28 c 0,118,119
 294.962 -12 294.962 -12 207 -12 c 0,120,121
 199.991 -12 199.991 -12 194.426 -11.5312 c 0,122,123
 188.861 -11.6514 188.861 -11.6514 186.629 -11.7568 c 0,124,125
 184.396 -10.916 184.396 -10.916 181.059 -9.07812 c 0,126,127
 177.721 -3.55664 177.721 -3.55664 177.324 -3 c 0,128,129
 165.896 5.34863 165.896 5.34863 161.815 12.7031 c 0,130,131
 154.986 27.1865 154.986 27.1865 143.863 65.1162 c 0,132,133
 134.249 98.1992 134.249 98.1992 133.078 112.059 c 2,134,-1
 56.1025 1052.73 l 1,135,-1
 44 1170.23 l 1,136,-1
 44 1452 l 2,137,138
 44 1456.01 44 1456.01 46.8262 1458.3 c 128,-1,139
 49.6523 1460.58 49.6523 1460.58 57.9434 1463.28 c 0,140,141
 66.2344 1472.21 66.2344 1472.21 67.8936 1474.5 c 0,142,143
 85.7627 1494.05 85.7627 1494.05 109.638 1518 c 128,-1,144
 133.603 1542.03 133.603 1542.03 160.043 1566 c 0,145,146
 185.665 1590.07 185.665 1590.07 201.322 1606 c 2,147,-1
 203.499 1604.42 l 1,148,-1
 206.138 1606 l 2,149,150
 218.263 1612.42 218.263 1612.42 248.204 1621.86 c 0,151,152
 270.056 1630 270.056 1630 281.254 1632.73 c 0,153,154
 282.473 1634.2 282.473 1634.2 284.548 1636.22 c 0,155,156
 286.624 1636.31 286.624 1636.31 292.377 1636.42 c 0,157,158
 298.252 1637.5 298.252 1637.5 303.236 1636.6 c 0,159,160
 308.219 1636.75 308.219 1636.75 313.515 1637.57 c 0,161,162
 318.811 1635.97 318.811 1635.97 321.434 1633 c 2,163,-1
 321.918 1631.13 l 1,164,-1
 322.101 1633 l 2,165,166
 343.834 1403.96 343.834 1403.96 356.333 1255.18 c 1,167,-1
 441.442 706.021 l 1,168,169
 444.401 698.373 444.401 698.373 455.038 652.744 c 1,170,171
 465.366 678.082 465.366 678.082 472.726 703.672 c 0,172,173
 491.714 769.683 491.714 769.683 523.355 829.34 c 0,0,1
EndSplineSet
EndChar

StartChar: X
Encoding: 88 88 36
Width: 1198
VWidth: 1597
Flags: W
LayerCount: 2
Fore
SplineSet
1077.53 -66.1709 m 1,0,1
 1064.61 -74 1064.61 -74 1052 -74 c 2,2,-1
 1041.64 -74 l 1,3,-1
 975.328 -14.0771 l 2,4,5
 966.629 -9.51953 966.629 -9.51953 964.068 -4.53613 c 1,6,-1
 962.034 5.9541 l 1,7,-1
 950.182 16.7295 l 1,8,-1
 948.196 14 l 2,9,10
 813.662 240.843 813.662 240.843 664.465 464.444 c 1,11,12
 514.056 195.481 514.056 195.481 338.172 -57 c 2,13,-1
 332.798 -54.3369 l 1,14,-1
 323.304 -57 l 2,15,16
 294.999 -66.502 294.999 -66.502 267.588 -100.916 c 2,17,-1
 203.64 -169.951 l 2,18,19
 169.252 -205.77 169.252 -205.77 132.244 -226.934 c 0,20,21
 107.233 -239 107.233 -239 82 -239 c 0,22,23
 61.4121 -239 61.4121 -239 41.2744 -230.671 c 1,24,25
 -4 -218.465 -4 -218.465 -4 -193 c 2,26,-1
 -4 -177.069 l 1,27,-1
 -3.57227 -174.785 l 2,28,29
 2.69434 -138.993 2.69434 -138.993 19.8467 -96.0371 c 1,30,31
 21.8135 -85.7861 21.8135 -85.7861 27.7812 -75.0918 c 0,32,33
 30.1289 -73.915 30.1289 -73.915 32.0215 -72.3037 c 2,34,-1
 33.0859 -65.1367 l 1,35,-1
 34.6562 -62.9385 l 2,36,37
 38.1533 -58.9238 38.1533 -58.9238 42.5498 -52.5029 c 1,38,39
 47.8564 -34.3076 47.8564 -34.3076 68.9697 5.85938 c 2,40,-1
 119.205 97.7061 l 1,41,-1
 169.274 184.827 l 2,42,43
 190.567 224.592 190.567 224.592 200.837 238.729 c 1,44,-1
 257.935 344.756 l 1,45,-1
 353.043 516.994 l 1,46,-1
 465.471 705.616 l 1,47,-1
 477.71 727.017 l 1,48,49
 291.554 1000.53 291.554 1000.53 149.388 1288.67 c 2,50,-1
 145.114 1297.74 l 1,51,-1
 148.283 1310 l 2,52,53
 152 1324.67 152 1324.67 152 1343 c 0,54,55
 152 1355.74 152 1355.74 146.821 1373.05 c 0,56,57
 134.846 1416.47 134.846 1416.47 120.634 1461.62 c 0,58,59
 105 1515.77 105 1515.77 105 1562 c 0,60,61
 105 1600.67 105 1600.67 147.226 1621.84 c 0,62,63
 167.657 1631 167.657 1631 188 1631 c 0,64,65
 208.81 1631 208.81 1631 228.419 1621.87 c 0,66,67
 258.841 1603.3 258.841 1603.3 285.291 1568.83 c 2,68,-1
 314.783 1525.33 l 1,69,70
 324.995 1513.69 324.995 1513.69 348.866 1474.79 c 2,71,-1
 402.681 1385.9 l 1,72,-1
 456.425 1298.68 l 1,73,74
 480.936 1261.85 480.936 1261.85 486.289 1247.05 c 1,75,-1
 555.711 1141.88 l 1,76,-1
 641.816 1021.26 l 1,77,-1
 670.606 1061.93 l 1,78,-1
 738.75 1170.37 l 1,79,-1
 752.843 1172 l 2,80,81
 774.602 1175.28 774.602 1175.28 798.588 1222 c 0,82,83
 829.961 1268.03 829.961 1268.03 867.339 1314 c 0,84,85
 907.221 1359.92 907.221 1359.92 958.001 1388 c 0,86,87
 986.992 1402 986.992 1402 1021.5 1402 c 0,88,89
 1054.24 1402 1054.24 1402 1091.02 1388 c 2,90,-1
 1092.24 1387.46 l 1,91,-1
 1093.4 1387.72 l 1,92,-1
 1095.05 1384.01 l 1,93,94
 1107.04 1383.56 1107.04 1383.56 1115.68 1381 c 2,95,-1
 1132.99 1363.69 l 1,96,-1
 1119.06 1324.34 l 2,97,98
 1115.26 1311.75 1115.26 1311.75 1111.92 1297.31 c 0,99,100
 1109 1288 1109 1288 1109 1285 c 2,101,-1
 1109 1256.97 l 1,102,-1
 1101.15 1249.12 l 1,103,104
 1096.43 1234.59 1096.43 1234.59 1095 1235.96 c 1,105,-1
 1095 1242.32 l 1,106,-1
 822.799 744.899 l 1,107,-1
 915.493 602.771 l 1,108,-1
 1012.59 449.21 l 2,109,110
 1053.98 379.629 1053.98 379.629 1076.3 349.182 c 2,111,-1
 1084.75 337.426 l 1,112,-1
 1078.76 320 l 2,113,114
 1076 309.332 1076 309.332 1076 296 c 0,115,116
 1076 283.996 1076 283.996 1089.21 266.24 c 0,117,118
 1113.84 215.816 1113.84 215.816 1136.25 158.463 c 0,119,120
 1161 90.1523 1161 90.1523 1161 27 c 0,121,122
 1161 -26.7803 1161 -26.7803 1089.48 -59.6406 c 0,123,-1
 1088.18 -60.3398 l 1,124,-1
 1077.53 -66.1709 l 1,0,1
EndSplineSet
EndChar

StartChar: Y
Encoding: 89 89 37
Width: 1036
VWidth: 1597
Flags: W
LayerCount: 2
Fore
SplineSet
544.536 1096 m 2,0,1
 572.01 1130.67 572.01 1130.67 588.457 1199.27 c 0,2,3
 588.891 1196 588.891 1196 588.893 1196 c 0,4,5
 602.375 1237.41 602.375 1237.41 620.524 1287.57 c 0,6,7
 623.887 1295.63 623.887 1295.63 642.089 1339.89 c 1,8,9
 650.909 1378.1 650.909 1378.1 691.784 1421.84 c 0,10,11
 721.721 1456.97 721.721 1456.97 746.212 1497.96 c 0,12,13
 774.082 1540.56 774.082 1540.56 779.239 1545.77 c 0,14,15
 820.68 1590.21 820.68 1590.21 852.154 1604 c 0,16,17
 884.293 1617 884.293 1617 910 1617 c 0,18,19
 948.865 1617 948.865 1617 971.262 1595.88 c 0,20,21
 1004.87 1556.4 1004.87 1556.4 1009.75 1527 c 0,22,23
 1011 1520.01 1011 1520.01 1011 1513 c 0,24,25
 1011 1467.08 1011 1467.08 986.019 1414.18 c 1,26,27
 969.898 1367.36 969.898 1367.36 950.212 1319.43 c 0,28,29
 928.866 1262.64 928.866 1262.64 894.616 1216.5 c 0,30,31
 865.678 1183.47 865.678 1183.47 851.038 1137.26 c 0,32,33
 835.135 1085.31 835.135 1085.31 816.143 1041.03 c 0,34,35
 814.808 1036.36 814.808 1036.36 813.188 1032.84 c 128,-1,36
 811.568 1029.33 811.568 1029.33 809.07 1026.56 c 128,-1,37
 806.573 1023.78 806.573 1023.78 805.307 1022.55 c 128,-1,38
 804.04 1021.32 804.04 1021.32 800.539 1018.81 c 128,-1,39
 797.039 1016.3 797.039 1016.3 796.286 1015.72 c 2,40,-1
 795 1014.72 l 1,41,-1
 795 1010.49 l 1,42,-1
 783.342 1003.83 l 1,43,44
 780.667 1000.72 780.667 1000.72 777.216 994.034 c 0,45,46
 769.088 978.285 769.088 978.285 759.818 969.602 c 1,47,48
 755.939 962.96 755.939 962.96 749.341 949.152 c 0,49,50
 738.72 926.921 738.72 926.921 722.932 901.743 c 0,51,52
 708.216 878.275 708.216 878.275 696.255 856.819 c 0,53,54
 687.451 841.023 687.451 841.023 682.711 833.59 c 1,55,56
 681.802 828.119 681.802 828.119 679.77 818.393 c 0,57,58
 676.26 801.6 676.26 801.6 670.455 781.291 c 0,59,60
 665.104 762.572 665.104 762.572 661.933 747.393 c 2,61,-1
 661.779 746.66 l 1,62,-1
 661.578 745.937 l 1,63,-1
 656.767 728.677 l 1,64,-1
 656.272 727.456 l 2,65,66
 638.909 684.624 638.909 684.624 613.656 595.989 c 0,67,68
 599.578 552.403 599.578 552.403 592.578 542 c 2,69,-1
 591.801 543.296 l 2,70,71
 590.029 539.66 590.029 539.66 587.501 512 c 0,72,73
 584.18 487.956 584.18 487.956 580.869 459.999 c 128,-1,74
 577.566 432.021 577.566 432.021 575.362 407.053 c 0,75,76
 573.354 384.255 573.354 384.255 573.224 379.616 c 2,77,-1
 573.224 383.653 l 1,78,-1
 571.04 379 l 2,79,80
 535.05 303.099 535.05 303.099 505.716 250 c 0,81,82
 477.665 197.065 477.665 197.065 457.118 136.5 c 0,83,84
 434.361 75.7646 434.361 75.7646 381 20.1064 c 0,85,86
 328.514 -36.6914 328.514 -36.6914 213 -94 c 2,87,-1
 193.937 -104.431 l 1,88,-1
 180.953 -94 l 2,89,90
 142.691 -43.0508 142.691 -43.0508 113.428 -1 c 0,91,92
 82.6748 40.6289 82.6748 40.6289 69.6377 73.123 c 0,93,94
 54.0068 113.933 54.0068 113.933 69.998 151.643 c 0,95,96
 83.9912 190.627 83.9912 190.627 136.02 227.755 c 0,97,98
 141.995 230.813 141.995 230.813 153.709 243.205 c 0,99,100
 169.751 269.327 169.751 269.327 188.78 299.938 c 0,101,102
 208.069 331.405 208.069 331.405 225.887 357.792 c 0,103,104
 242.25 384.744 242.25 384.744 254.275 396.873 c 1,105,106
 289.12 454.734 289.12 454.734 290.623 524.347 c 0,107,108
 292.239 609.724 292.239 609.724 292.289 653.6 c 1,109,110
 268.34 769.335 268.34 769.335 221.788 885.715 c 0,111,112
 174.75 995.598 174.75 995.598 139.861 1101.74 c 1,113,114
 130.722 1115.08 130.722 1115.08 114.788 1159.43 c 0,115,116
 96.4619 1205.99 96.4619 1205.99 78.6973 1262.21 c 0,117,118
 60.9619 1318.2 60.9619 1318.2 47.7598 1370.71 c 0,119,120
 34 1430.52 34 1430.52 34 1448 c 0,121,122
 34 1493.35 34 1493.35 81.6035 1543.94 c 0,123,124
 107.154 1566 107.154 1566 181 1566 c 0,125,126
 219.031 1566 219.031 1566 254.476 1558 c 0,127,128
 296.444 1549.84 296.444 1549.84 330.122 1521 c 2,129,-1
 333.614 1517.37 l 1,130,-1
 335.358 1521 l 2,131,132
 378.776 1407.99 378.776 1407.99 405.895 1314.94 c 1,133,134
 466.612 1167.21 466.612 1167.21 473.716 1126.8 c 0,135,136
 483.614 1065.26 483.614 1065.26 486.14 1055.48 c 2,137,-1
 486.47 1054.35 l 2,138,139
 493.369 1030.77 493.369 1030.77 499.696 1011.37 c 1,140,141
 532.187 1082.19 532.187 1082.19 542.415 1096 c 2,142,-1
 543.368 1094.65 l 1,143,-1
 544.536 1096 l 2,0,1
EndSplineSet
EndChar

StartChar: Z
Encoding: 90 90 38
Width: 1366
VWidth: 1597
Flags: W
LayerCount: 2
Fore
SplineSet
36.9697 102.247 m 1,0,-1
 37.2754 104.125 l 2,1,2
 39.7432 119.268 39.7432 119.268 37.1348 141.176 c 0,3,4
 34.4385 163.816 34.4385 163.816 31.8008 178.057 c 1,5,6
 26.3711 192.867 26.3711 192.867 28.3105 204.139 c 2,7,-1
 28.5996 205.823 l 1,8,-1
 29.1299 207.451 l 2,9,10
 36.9707 231.51 36.9707 231.51 68.292 261.861 c 0,11,12
 95.9062 288.62 95.9062 288.62 119.565 308.557 c 2,13,-1
 120.673 309.489 l 1,14,-1
 141.891 323.508 l 1,15,16
 152.037 333.61 152.037 333.61 172.245 355.747 c 0,17,18
 195.327 381.032 195.327 381.032 222.388 410.167 c 0,19,20
 248.844 438.652 248.844 438.652 268.838 463.226 c 0,21,22
 289.493 487.434 289.493 487.434 297.31 494.958 c 1,23,24
 325.64 529.566 325.64 529.566 393.15 606.306 c 0,25,26
 461.306 683.775 461.306 683.775 532.854 764.507 c 1,27,28
 610.218 857.714 610.218 857.714 669.324 928.94 c 0,29,30
 733.932 1006.75 733.932 1006.75 767.304 1044.98 c 0,31,32
 782.786 1061.73 782.786 1061.73 800.636 1091.98 c 0,33,34
 819.236 1123.5 819.236 1123.5 836.326 1159.83 c 0,35,36
 852.767 1194.77 852.767 1194.77 861.945 1229.7 c 0,37,38
 866.161 1248 866.161 1248 869.242 1263.2 c 1,39,40
 714.08 1263.44 714.08 1263.44 554.4 1266.09 c 0,41,42
 349.896 1269.48 349.896 1269.48 209.51 1271.9 c 2,43,-1
 199.613 1272.08 l 1,44,-1
 144.597 1324.02 l 1,45,-1
 152.943 1387.57 l 2,46,47
 152.715 1392.81 152.715 1392.81 151.635 1401.88 c 0,48,49
 149.946 1416.06 149.946 1416.06 152.75 1431.36 c 1,50,51
 151.97 1441.45 151.97 1441.45 151.97 1450.2 c 0,52,53
 151.97 1480.7 151.97 1480.7 158.433 1512.01 c 0,54,55
 168.773 1564.62 168.773 1564.62 205.151 1581.54 c 2,56,-1
 209.457 1583.6 l 1,57,-1
 214.22 1583.94 l 2,58,59
 272.139 1588 272.139 1588 325.066 1588 c 2,60,-1
 338.898 1588 l 2,61,62
 395.959 1588 395.959 1588 461.065 1587.01 c 1,63,64
 668.965 1593 668.965 1593 868.73 1604.45 c 128,-1,65
 1068.6 1615.92 1068.6 1615.92 1263.39 1635.87 c 2,66,-1
 1270.64 1636.62 l 1,67,-1
 1309.15 1617.36 l 2,68,69
 1337 1603.44 1337 1603.44 1346.67 1582.48 c 2,70,-1
 1347.65 1580.34 l 1,71,-1
 1348.22 1578.06 l 2,72,73
 1350.97 1567.42 1350.97 1567.42 1350.97 1551.84 c 0,74,75
 1350.97 1536.92 1350.97 1536.92 1348.82 1518.15 c 0,76,77
 1344.98 1484.69 1344.98 1484.69 1342.77 1472.96 c 1,78,-1
 1338.97 1428.72 l 1,79,80
 1338.87 1394.45 1338.87 1394.45 1333.26 1372.16 c 0,81,82
 1326.97 1347.18 1326.97 1347.18 1301.44 1317.62 c 1,83,-1
 796.329 702.702 l 1,84,85
 796.404 700.521 796.404 700.521 796.404 699.086 c 0,86,87
 796.404 667.222 796.404 667.222 769.231 631.869 c 0,88,89
 741.152 595.477 741.152 595.477 716.956 567.428 c 0,90,91
 711.722 561.866 711.722 561.866 705.992 553.034 c 0,92,93
 698.698 541.793 698.698 541.793 691.141 533.393 c 1,94,95
 685.047 524.819 685.047 524.819 672.228 504.062 c 0,96,97
 658.094 481.18 658.094 481.18 642.128 455.005 c 0,98,99
 630.799 435.5 630.799 435.5 613.59 410.52 c 0,100,101
 596.9 386.292 596.9 386.292 585.498 367.886 c 0,102,103
 583.062 363.952 583.062 363.952 580.492 359.623 c 1,104,-1
 580.437 358.663 l 1,105,-1
 580.383 357.703 l 1,106,-1
 578.775 329.375 l 1,107,108
 706.232 339.821 706.232 339.821 838.532 351.09 c 0,109,110
 987.191 364.631 987.191 364.631 1128.56 377.253 c 2,111,-1
 1142.54 378.567 l 1,112,-1
 1150.97 367.676 l 2,113,114
 1155.09 362.348 1155.09 362.348 1159.48 354.45 c 0,115,116
 1161.24 351.281 1161.24 351.281 1164.65 347.982 c 2,117,-1
 1171.97 340.887 l 1,118,-1
 1171.97 308.489 l 1,119,-1
 1171.22 305.596 l 2,120,121
 1168.05 293.296 1168.05 293.296 1168.46 278.192 c 0,122,123
 1168.97 259.505 1168.97 259.505 1168.97 249.453 c 2,124,-1
 1168.97 247.846 l 1,125,-1
 1168.75 246.251 l 2,126,127
 1162.47 200.608 1162.47 200.608 1139.33 128.85 c 0,128,129
 1114.5 51.8428 1114.5 51.8428 1060.64 13.2666 c 2,130,-1
 1053.44 8 l 1,131,-1
 1044.31 8 l 2,132,133
 1014.08 8 1014.08 8 947.146 5.02832 c 0,134,135
 879.865 2.04004 879.865 2.04004 794.493 -3.44141 c 0,136,137
 708.531 -8.96191 708.531 -8.96191 616.227 -12.9736 c 0,138,139
 524.384 -16.9648 524.384 -16.9648 453.264 -20.9551 c 0,140,-1
 451.678 -21 l 1,141,142
 415.127 -21 415.127 -21 384.959 -22.4668 c 0,143,144
 355.395 -23.9043 355.395 -23.9043 335.396 -26.7236 c 2,145,-1
 333.434 -27 l 1,146,-1
 280.38 -27 l 2,147,148
 256.474 -27 256.474 -27 228.966 -30.3203 c 0,149,150
 198.473 -34 198.473 -34 184.97 -34 c 0,151,152
 167.95 -34 167.95 -34 142.436 -31.917 c 0,153,154
 118.952 -30 118.952 -30 100.97 -30 c 2,155,-1
 84.0449 -30 l 1,156,-1
 78.1074 -26.4375 l 2,157,158
 64.2549 -18.126 64.2549 -18.126 55.4482 -7.11719 c 0,159,160
 49.9404 -0.233398 49.9404 -0.233398 40.4717 10.1836 c 2,161,-1
 33.9697 17.335 l 1,162,-1
 33.9697 36.4463 l 1,163,-1
 35.2529 40.1758 l 2,164,165
 37.8818 47.8174 37.8818 47.8174 37.4756 65.9043 c 0,166,167
 36.9697 88.4551 36.9697 88.4551 36.9697 100.347 c 2,168,-1
 36.9697 102.247 l 1,0,-1
EndSplineSet
EndChar

StartChar: asciicircum
Encoding: 94 94 39
Width: 748
VWidth: 1597
Flags: W
LayerCount: 2
Fore
SplineSet
13.4295 1261.65 m 0,0,1
 10 1271.94 10 1271.94 10 1284 c 0,2,3
 10 1323.23 10 1323.23 54.9138 1390.95 c 0,4,5
 57.044 1394.16 57.044 1394.16 60.9891 1398.28 c 128,-1,6
 64.9342 1402.4 64.9342 1402.4 73.5765 1409.99 c 128,-1,7
 82.2188 1417.58 82.2188 1417.58 89.1908 1423.5 c 128,-1,8
 96.1627 1429.43 96.1627 1429.43 112.746 1443.37 c 128,-1,9
 129.329 1457.31 129.329 1457.31 140.756 1467 c 0,10,11
 221.524 1536.52 221.524 1536.52 230.551 1541.68 c 0,12,13
 295.054 1578.69 295.054 1578.69 363.078 1592.51 c 0,14,15
 405.514 1601 405.514 1601 434 1601 c 0,16,17
 467.569 1601 467.569 1601 486.291 1588.52 c 0,18,19
 530.063 1556.69 530.063 1556.69 568.902 1526.85 c 0,20,21
 572.554 1524.44 572.554 1524.44 576.207 1521.19 c 128,-1,22
 579.861 1517.94 579.861 1517.94 585.203 1512.11 c 128,-1,23
 590.545 1506.27 590.545 1506.27 595.141 1500.98 c 128,-1,24
 599.736 1495.69 599.736 1495.69 609.229 1484.67 c 128,-1,25
 618.723 1473.66 618.723 1473.66 626.721 1464.57 c 0,26,27
 684.363 1399.84 684.363 1399.84 690.847 1389.8 c 0,28,29
 709.286 1362.71 709.286 1362.71 717.189 1350.21 c 128,-1,30
 725.092 1337.71 725.092 1337.71 731.705 1322.66 c 128,-1,31
 738.319 1307.61 738.319 1307.61 738.965 1295.31 c 2,32,-1
 741.368 1249.77 l 1,33,-1
 741.342 1250.25 l 1,34,-1
 741.327 1250.54 l 1,35,-1
 741.29 1251.24 l 1,36,-1
 741.269 1251.63 l 1,37,-1
 741.223 1252.52 l 1,38,-1
 741.171 1253.51 l 1,39,-1
 741.113 1254.6 l 1,40,-1
 741.051 1255.78 l 1,41,-1
 740.984 1257.04 l 1,42,-1
 740.949 1257.7 l 1,43,-1
 740.876 1259.08 l 1,44,-1
 740.839 1259.8 l 1,45,-1
 740.8 1260.53 l 1,46,-1
 740.721 1262.03 l 1,47,-1
 740.68 1262.81 l 1,48,-1
 740.638 1263.6 l 1,49,-1
 740.553 1265.21 l 1,50,-1
 740.509 1266.04 l 1,51,-1
 740.465 1266.88 l 1,52,-1
 740.42 1267.73 l 1,53,-1
 740.375 1268.59 l 1,54,-1
 740.283 1270.34 l 1,55,-1
 740.236 1271.23 l 1,56,-1
 740.188 1272.13 l 1,57,-1
 740.14 1273.04 l 1,58,-1
 740.092 1273.96 l 1,59,-1
 740.043 1274.88 l 1,60,-1
 739.994 1275.82 l 1,61,-1
 739.944 1276.76 l 1,62,-1
 739.894 1277.7 l 1,63,-1
 739.844 1278.66 l 1,64,-1
 739.793 1279.62 l 1,65,-1
 739.742 1280.58 l 1,66,-1
 739.691 1281.55 l 1,67,-1
 739.64 1282.53 l 1,68,-1
 739.588 1283.51 l 1,69,-1
 739.484 1285.49 l 1,70,-1
 739.431 1286.48 l 1,71,-1
 739.378 1287.48 l 1,72,-1
 739.326 1288.49 l 1,73,-1
 739.272 1289.49 l 1,74,-1
 739.219 1290.5 l 1,75,-1
 739.166 1291.52 l 1,76,-1
 739.112 1292.53 l 1,77,-1
 739.059 1293.55 l 1,78,-1
 739.005 1294.57 l 1,79,-1
 738.951 1295.59 l 1,80,-1
 738.897 1296.61 l 1,81,-1
 738.843 1297.63 l 1,82,-1
 738.789 1298.65 l 1,83,-1
 738.735 1299.68 l 1,84,-1
 738.681 1300.7 l 1,85,-1
 738.627 1301.73 l 1,86,-1
 738.573 1302.75 l 1,87,-1
 738.519 1303.78 l 1,88,-1
 738.465 1304.8 l 1,89,-1
 738.411 1305.82 l 1,90,-1
 738.357 1306.84 l 1,91,-1
 738.304 1307.86 l 1,92,-1
 738.25 1308.87 l 1,93,-1
 738.197 1309.89 l 1,94,-1
 738.143 1310.9 l 1,95,-1
 738.09 1311.9 l 1,96,-1
 737.988 1313.84 l 1,97,-1
 737.727 1318.79 l 2,98,99
 735.866 1340.76 735.866 1340.76 736.453 1342.95 c 1,100,101
 735.968 1340.77 735.968 1340.77 739 1294.66 c 1,102,-1
 739 1294 l 2,103,104
 739 1250.55 739 1250.55 681.255 1221.68 c 0,105,106
 621.003 1191 621.003 1191 581 1191 c 0,107,108
 569.327 1191 569.327 1191 558.417 1193.87 c 0,109,110
 552.056 1195.77 552.056 1195.77 545.589 1199.34 c 128,-1,111
 539.122 1202.91 539.122 1202.91 529.346 1210.54 c 128,-1,112
 519.571 1218.18 519.571 1218.18 511.95 1224.62 c 128,-1,113
 504.329 1231.06 504.329 1231.06 487.369 1245.69 c 128,-1,114
 470.41 1260.33 470.41 1260.33 457.866 1270.9 c 0,115,116
 400.575 1319.42 400.575 1319.42 376.697 1341.28 c 1,117,118
 360.65 1326.46 360.65 1326.46 332.095 1299.76 c 2,119,-1
 244.343 1217.11 l 1,120,-1
 242.25 1215.8 l 2,121,122
 188.173 1182 188.173 1182 149 1182 c 0,123,124
 141.331 1182 141.331 1182 132.418 1183.59 c 0,125,126
 36.4877 1200.17 36.4877 1200.17 13.4295 1261.65 c 0,0,1
EndSplineSet
Validated: 33
EndChar

StartChar: underscore
Encoding: 95 95 40
Width: 904
VWidth: 1597
Flags: W
LayerCount: 2
Fore
SplineSet
28.567 -41.3108 m 0,0,1
 72.9763 -15.7755 72.9763 -15.7755 153.93 -6.18882 c 0,2,3
 186.394 -2 186.394 -2 349 -2 c 2,4,-1
 378 -2 l 2,5,6
 508.899 -2 508.899 -2 575.566 -5 c 1,7,-1
 838.669 -5 l 1,8,-1
 842.184 -6.05434 l 2,9,10
 872.37 -15.1101 872.37 -15.1101 891.813 -34.6534 c 128,-1,11
 911.256 -54.1967 911.256 -54.1967 915.621 -81.6051 c 0,12,13
 917 -89.1896 917 -89.1896 917 -95 c 0,14,15
 917 -139.354 917 -139.354 872.678 -183.678 c 0,16,17
 852.564 -203.792 852.564 -203.792 793.733 -210.851 c 0,18,19
 782.247 -212 782.247 -212 758 -212 c 0,20,21
 735.045 -212 735.045 -212 699.452 -211.022 c 1,22,-1
 511.64 -223.01 l 1,23,-1
 273.362 -220.007 l 1,24,25
 225.071 -222 225.071 -222 187.5 -222 c 0,26,27
 149.139 -222 149.139 -222 119.304 -219.942 c 0,28,29
 51.9352 -215.452 51.9352 -215.452 30 -199 c 0,30,31
 -12 -167 -12 -167 -12 -112 c 0,32,33
 -12 -64.492 -12 -64.492 28.567 -41.3108 c 0,0,1
EndSplineSet
Validated: 1
EndChar

StartChar: a
Encoding: 97 97 41
Width: 1072
VWidth: 1597
Flags: W
LayerCount: 2
Fore
SplineSet
779 1059 m 1,0,1
 700.425 1049.82 700.425 1049.82 605.063 1020.78 c 0,2,3
 473.46 981.175 473.46 981.175 389.976 936.579 c 0,4,5
 336.787 907.868 336.787 907.868 212.879 774.379 c 0,6,7
 180.807 739.827 180.807 739.827 151.749 670.627 c 0,8,9
 136.013 632.216 136.013 632.216 113.304 586.132 c 0,10,11
 97.6152 553.256 97.6152 553.256 77.1455 485.186 c 1,12,13
 66.984 457.023 66.984 457.023 54.9619 416.943 c 2,14,-1
 53.751 412.906 l 2,15,16
 52.6182 409.129 52.6182 409.129 40.9229 382.41 c 2,17,-1
 40.6025 381.678 l 1,18,-1
 39 378.014 l 1,19,-1
 39 373.37 l 2,20,21
 39 368.008 39 368.008 33.1289 351.272 c 0,22,23
 30.8594 344.326 30.8594 344.326 28.6836 339.972 c 1,24,-1
 23.3398 337.791 l 1,25,-1
 19.5918 328.27 l 2,26,27
 15 316.605 15 316.605 15 291.331 c 2,28,-1
 15 289.639 l 1,29,-1
 15.251 287.964 l 2,30,31
 15.7207 284.83 15.7207 284.83 16 275.138 c 2,32,-1
 16.0381 273.816 l 0,33,34
 17.9497 241.042 17.9497 241.042 17.0635 229.207 c 2,35,-1
 17 228.359 l 1,36,-1
 17 227.51 l 2,37,38
 17 206.492 17 206.492 20.5908 166.426 c 0,39,40
 24.1494 126.719 24.1494 126.719 30.2031 116.159 c 1,41,42
 34.3213 106.844 34.3213 106.844 51.3223 90.6484 c 0,43,44
 66.8916 75.8184 66.8916 75.8184 85.9824 55.7686 c 0,45,46
 106.346 34.3818 106.346 34.3818 126.803 16.8936 c 0,47,48
 143.215 2.16406 143.215 2.16406 156.652 -8.74902 c 2,49,-1
 160.174 -11.8115 l 2,50,51
 163.699 -14.8767 163.699 -14.8767 169.531 -17.9375 c 128,-1,52
 175.368 -21 175.368 -21 180 -21 c 2,53,-1
 188.291 -21 l 1,54,55
 237.596 -19.8535 237.596 -19.8535 281.479 3.09375 c 0,56,57
 372.268 50.3838 372.268 50.3838 456.671 111.543 c 1,58,59
 467.776 115.054 467.776 115.054 515.179 136.36 c 0,60,61
 539.33 147.215 539.33 147.215 557.24 147.952 c 1,62,-1
 555.045 -36 l 1,63,-1
 582.199 -36 l 2,64,65
 601.384 -36 601.384 -36 619.635 -31.3242 c 1,66,67
 658.466 -24.0144 658.466 -24.0144 678.25 -15.7266 c 2,68,-1
 739.135 9.7793 l 1,69,-1
 737.453 22.3037 l 1,70,71
 747.187 29.9363 747.187 29.9363 772.811 40.3877 c 2,72,-1
 775.411 41.4482 l 1,73,-1
 777.701 42.9707 l 2,74,75
 810.74 64.9367 810.74 64.9367 833.883 76.5361 c 0,76,77
 866.122 92.6963 866.122 92.6963 888.899 142.952 c 1,78,79
 899.933 160.547 899.933 160.547 896.799 186.355 c 2,80,-1
 889.273 248.33 l 2,81,82
 887.301 264.572 887.301 264.572 888.279 277.573 c 0,83,84
 890.149 300.789 890.149 300.789 891.02 305.819 c 0,85,86
 894.944 324.117 894.944 324.117 886.779 347.37 c 1,87,88
 887.58 350.72 887.58 350.72 889.965 359.529 c 128,-1,89
 892.35 368.34 892.35 368.34 894.442 375.75 c 0,90,91
 896.205 382 896.205 382 896.631 383.132 c 2,92,-1
 912.682 425.832 l 2,93,94
 921.384 448.982 921.384 448.982 944.143 543.333 c 0,95,96
 967.309 639.379 967.309 639.379 977 683.295 c 0,97,98
 986.161 725.292 986.161 725.292 989.495 734.026 c 2,99,-1
 990.084 735.569 l 1,100,-1
 990.445 737.175 l 2,101,102
 993.742 751.84 993.742 751.84 997.379 786.98 c 0,103,104
 1000.83 820.332 1000.83 820.332 1006.25 856.959 c 0,105,106
 1011.72 893.849 1011.72 893.849 1017.18 926.02 c 0,107,108
 1023 960.302 1023 960.302 1023 975.547 c 2,109,-1
 1023 981.871 l 1,110,-1
 1019.71 987.362 l 2,111,112
 1014.07 996.781 1014.07 996.781 1001.18 1009.06 c 0,113,114
 988.565 1021.07 988.565 1021.07 977.933 1026.71 c 2,115,-1
 975.049 1028.24 l 1,116,-1
 971.85 1029.07 l 2,117,118
 943.508 1036.42 943.508 1036.42 880.526 1048.95 c 0,119,120
 814.382 1062.32 814.382 1062.32 811 1062 c 2,121,-1
 779 1059 l 1,0,1
356.5 355.5 m 6,122,123
 357.695 379.925 357.695 379.925 357.694 380 c 0,124,125
 358.835 478.086 358.835 478.086 376.398 552.108 c 0,126,127
 394.528 628.525 394.528 628.525 436.889 682.806 c 0,128,129
 478.641 736.306 478.641 736.306 546.805 767.574 c 0,130,131
 604.794 794.177 604.794 794.177 689.64 798.313 c 1,132,133
 687.993 788.383 687.993 788.383 685.689 776.129 c 0,134,135
 660.023 639.622 660.023 639.622 653.573 627.978 c 1,136,137
 642.732 611.706 642.732 611.706 632.329 569.743 c 0,138,139
 625.105 541.875 625.105 541.875 624.355 537.588 c 0,140,141
 620.869 519.817 620.869 519.817 617.772 509 c 1,142,-1
 608.154 509 l 1,143,-1
 606.936 485.189 l 2,144,145
 605.138 450.037 605.138 450.037 578.053 411.778 c 0,146,147
 529.853 343.977 529.853 343.977 512.954 321.362 c 0,148,149
 484.526 284 484.526 284 373.807 284 c 2,150,-1
 368.753 284 l 1,151,152
 365.147 285.269 365.147 285.269 363.777 288.409 c 0,153,154
 357.116 303.671 357.116 303.671 356.493 318.425 c 0,155,156
 355.77 335.553 355.77 335.553 355.546 336 c 0,157,158
 355.55 336.004 355.55 336.004 356.5 355.5 c 6,122,123
EndSplineSet
EndChar

StartChar: b
Encoding: 98 98 42
Width: 1156
VWidth: 1597
Flags: W
LayerCount: 2
Fore
SplineSet
116.621 619.627 m 2,0,-1
 128.474 649.203 l 1,1,2
 128 659.436 128 659.436 128 673.194 c 0,3,4
 128 704.04 128 704.04 141.025 731.25 c 1,5,-1
 147.601 765.309 l 1,6,-1
 163.326 820.633 l 1,7,-1
 187.214 1051.39 l 1,8,-1
 244.072 1375.29 l 1,9,-1
 321.162 1512.01 l 1,10,-1
 416.803 1517.94 l 1,11,-1
 417.72 1518 l 1,12,-1
 436.405 1518 l 1,13,-1
 541.738 1483.65 l 1,14,-1
 541.738 1397 l 2,15,16
 541.738 1363.66 541.738 1363.66 522.706 1336.48 c 0,17,18
 515.905 1326.77 515.905 1326.77 513.459 1321.02 c 1,19,20
 514.504 1312.15 514.504 1312.15 514.504 1310 c 2,21,-1
 514.504 1307.92 l 1,22,-1
 491.703 1183.29 l 1,23,-1
 492.526 1182.53 l 1,24,-1
 475.926 988.498 l 1,25,-1
 496.192 959.84 l 1,26,-1
 503.791 964.49 l 2,27,28
 516.458 972.104 516.458 972.104 553.268 976.766 c 0,29,30
 606.267 983.477 606.267 983.477 615.732 985.451 c 1,31,32
 678.29 1015.14 678.29 1015.14 683.662 1016.34 c 0,33,34
 696.255 1018.78 696.255 1018.78 793.842 1043.12 c 0,35,36
 821.333 1050 821.333 1050 878.353 1050 c 2,37,-1
 889 1050 l 2,38,39
 945.775 1050 945.775 1050 958.192 1045.26 c 0,40,41
 965.275 1042.56 965.275 1042.56 977.829 1037.73 c 128,-1,42
 990.384 1032.9 990.384 1032.9 996.975 1030.33 c 2,43,-1
 997.571 1030.1 l 1,44,-1
 1044.85 1009.09 l 1,45,-1
 1084.64 984.962 l 1,46,-1
 1102.07 955.883 l 1,47,-1
 1104.83 937.514 l 1,48,49
 1125.11 910.511 1125.11 910.511 1126 882.577 c 1,50,-1
 1132 828.229 l 1,51,-1
 1132 826.979 l 2,52,53
 1132 712.781 1132 712.781 1084.17 642.763 c 1,54,55
 1071.26 622.055 1071.26 622.055 1067.25 606.773 c 0,56,57
 1064.59 596.611 1064.59 596.611 1044.36 558.058 c 2,58,-1
 1041.58 552.765 l 1,59,-1
 1037.35 549.887 l 1,60,61
 1034.16 546.008 1034.16 546.008 1029.51 535.568 c 0,62,63
 1021.04 516.582 1021.04 516.582 1012.27 507.424 c 1,64,65
 1007.96 498.632 1007.96 498.632 996.321 480.508 c 0,66,67
 982.462 458.935 982.462 458.935 972.197 449.803 c 1,68,69
 952.757 417.776 952.757 417.776 929.955 385.127 c 2,70,-1
 904.12 346.303 l 2,71,72
 883.49 315.598 883.49 315.598 857.519 292.36 c 0,73,74
 835.242 272.429 835.242 272.429 827.341 262.265 c 0,75,76
 817.003 248.964 817.003 248.964 799.372 231.998 c 0,77,78
 782.32 215.589 782.32 215.589 743.971 183.984 c 0,79,80
 720.399 164.559 720.399 164.559 712.293 156.386 c 1,81,-1
 711.185 151.536 l 1,82,-1
 702.221 146.058 l 2,83,84
 623.298 97.8223 623.298 97.8223 586.803 72.9395 c 0,85,86
 542.381 42.6504 542.381 42.6504 508.512 42.6504 c 0,87,88
 483.547 42.6504 483.547 42.6504 450.413 43.6172 c 0,89,90
 405.372 44.9307 405.372 44.9307 392.453 69.8936 c 1,91,92
 358.884 98.9209 358.884 98.9209 352.56 114.923 c 1,93,94
 346.961 121.562 346.961 121.562 327.273 134.3 c 1,95,96
 314.229 141.187 314.229 141.187 301.934 148.16 c 1,97,-1
 262.34 117.598 l 1,98,-1
 210.438 35.1572 l 2,99,100
 185.154 -5 185.154 -5 122 -5 c 0,101,102
 90.5537 -5 90.5537 -5 67.7012 12.0566 c 0,103,104
 44.8486 28.3311 44.8486 28.3311 35.1172 57.4248 c 0,105,106
 31 70.5186 31 70.5186 31 89.2852 c 0,107,108
 31 102.317 31 102.317 33.1885 117.977 c 0,109,110
 37.1357 150.933 37.1357 150.933 40.6143 185.54 c 0,111,112
 44.2539 221.753 44.2539 221.753 56.6436 261.794 c 1,113,-1
 91.9463 449.325 l 1,114,115
 90 456.135 90 456.135 90 464.724 c 0,116,117
 90 478.291 90 478.291 98.041 503.498 c 0,118,119
 104.771 525.516 104.771 525.516 108.551 541.742 c 2,120,-1
 114.854 571.057 l 1,121,122
 105.9 592.35 105.9 592.35 116.621 619.627 c 2,0,-1
454.866 653.755 m 1,123,-1
 432.348 567.313 l 1,124,125
 428.035 539.663 428.035 539.663 421.649 500.554 c 0,126,127
 420.071 488.185 420.071 488.185 421.537 480.11 c 2,128,-1
 421.683 479.303 l 1,129,-1
 426.265 437.247 l 1,130,-1
 426.265 436 l 2,131,132
 426.265 424.509 426.265 424.509 421.481 414.995 c 1,133,-1
 418.521 399.779 l 1,134,-1
 421.568 392.987 l 1,135,136
 427.54 385.068 427.54 385.068 432.159 372.821 c 0,137,138
 434.664 367.447 434.664 367.447 436.285 365.157 c 2,139,-1
 439.582 362.13 l 1,140,-1
 454.06 329.736 l 1,141,142
 459.548 328.389 459.548 328.389 464.278 327.41 c 1,143,-1
 474.873 342 l 1,144,-1
 489.448 342 l 2,145,146
 498.185 342 498.185 342 501.897 343.312 c 0,147,148
 507.237 346.966 507.237 346.966 524.142 365.07 c 2,149,-1
 551.587 395.74 l 1,150,-1
 554.164 397.317 l 1,151,152
 558.574 401.621 558.574 401.621 566.645 413.35 c 0,153,154
 582.159 435.899 582.159 435.899 591.177 442.521 c 2,155,-1
 591.665 442.881 l 1,156,-1
 628.292 467.333 l 2,157,158
 655.409 484.851 655.409 484.851 660.795 489.646 c 0,159,160
 666.602 495.5 666.602 495.5 687.93 524.867 c 0,161,162
 712.314 558.443 712.314 558.443 719.305 567 c 2,163,-1
 720.84 568.879 l 1,164,-1
 767.537 608.018 l 1,165,-1
 782.446 649.987 l 1,166,-1
 783.681 652.048 l 2,167,168
 816.259 706.42 816.259 706.42 816.259 738 c 0,169,170
 816.259 771 816.259 771 801.008 784.5 c 128,-1,171
 785.757 798 785.757 798 746.539 798 c 0,172,173
 676.887 798 676.887 798 545.886 750.992 c 1,174,-1
 476.66 721.663 l 2,175,176
 466.257 716.323 466.257 716.323 464.577 711.866 c 1,177,-1
 466.572 695.385 l 1,178,-1
 466.572 694 l 2,179,180
 466.572 671.151 466.572 671.151 454.866 653.755 c 1,123,-1
EndSplineSet
EndChar

StartChar: c
Encoding: 99 99 43
Width: 958
VWidth: 1597
Flags: W
LayerCount: 2
Fore
SplineSet
363.067 -2 m 2,0,-1
 355.457 -7 l 1,1,-1
 203.099 -7 l 1,2,-1
 197.819 -4.36035 l 2,3,4
 81.791 51.0488 81.791 51.0488 53.8662 149.733 c 0,5,6
 28 241.141 28 241.141 28 356.058 c 0,7,8
 28 463.727 28 463.727 46.5879 544.109 c 0,9,10
 65.3633 625.298 65.3633 625.298 106.088 696.108 c 0,11,12
 145.912 765.354 145.912 765.354 204.938 841.171 c 0,13,14
 264.321 917.447 264.321 917.447 357.324 990.534 c 0,15,16
 433.621 1050.19 433.621 1050.19 517.486 1059.29 c 0,17,18
 594.097 1068 594.097 1068 695 1068 c 2,19,-1
 755.5 1068 l 2,20,21
 778.081 1068 778.081 1068 796.635 1066.41 c 0,22,23
 813.061 1065 813.061 1065 819 1065 c 2,24,-1
 823.69 1065 l 1,25,-1
 828.062 1063.3 l 2,26,27
 857.705 1051.77 857.705 1051.77 864.574 1027.24 c 0,28,29
 869 1011.43 869 1011.43 869 990 c 0,30,31
 869 970.989 869 970.989 865.918 932.979 c 0,32,33
 862.029 885.019 862.029 885.019 835.349 864.267 c 2,34,-1
 830.877 860.788 l 1,35,-1
 825.343 859.577 l 2,36,37
 726.693 838 726.693 838 700 838 c 2,38,-1
 696.167 838 l 1,39,-1
 695.337 838.056 l 2,40,41
 681.165 839 681.165 839 665.552 838.999 c 0,42,43
 624.785 839 624.785 839 584.115 832.757 c 0,44,45
 547.759 826.92 547.759 826.92 477.631 793.957 c 0,46,-1
 476.037 793.262 l 1,47,48
 435.877 777.065 435.877 777.065 413.913 739.216 c 0,49,50
 389.484 697.118 389.484 697.118 380.425 648.715 c 0,51,52
 371.057 598.665 371.057 598.665 371.057 548.632 c 2,53,-1
 371.057 384.154 l 2,54,55
 371.057 359.938 371.057 359.938 372.709 339.03 c 0,56,57
 373.991 322.796 373.991 322.796 374.356 314.338 c 1,58,59
 388.949 287.968 388.949 287.968 402.722 284.783 c 0,60,61
 427.484 279.058 427.484 279.058 463.515 279.058 c 2,62,-1
 495.475 279.058 l 2,63,64
 501.593 279.058 501.593 279.058 508.369 280.723 c 1,65,66
 542.333 298.441 542.333 298.441 580.274 341.471 c 0,67,68
 623.449 390.437 623.449 390.437 670.621 439.361 c 0,69,70
 713.284 488.899 713.284 488.899 754.714 528.432 c 0,71,72
 802.556 574.081 802.556 574.081 856 574.081 c 0,73,74
 876.631 574.081 876.631 574.081 892.885 563.799 c 128,-1,75
 909.138 553.517 909.138 553.517 914.96 535.094 c 0,76,77
 923 509.65 923 509.65 923 486.423 c 0,78,79
 923 444.378 923 444.378 912.106 422.634 c 0,80,81
 901.875 402.212 901.875 402.212 860.71 363.281 c 1,82,83
 848.416 348.829 848.416 348.829 819.238 319.495 c 0,84,85
 788.718 288.811 788.718 288.811 750.687 254.876 c 0,86,87
 713.224 221.447 713.224 221.447 679.769 191.326 c 0,88,89
 646 164.406 646 164.406 626.633 152.51 c 1,90,91
 612.063 134.554 612.063 134.554 567.064 108.864 c 0,92,93
 524.783 84.7266 524.783 84.7266 515.063 73.7812 c 2,94,-1
 506.511 64.1523 l 1,95,-1
 494.656 64.1523 l 1,96,97
 489.85 62.8496 489.85 62.8496 480.66 59.5303 c 2,98,-1
 444.134 46.334 l 2,99,100
 426.542 39.9795 426.542 39.9795 411.214 33.6504 c 0,101,102
 401.513 29.6455 401.513 29.6455 394.415 27.4209 c 1,103,104
 390.167 23.1416 390.167 23.1416 384.347 17.4199 c 0,105,106
 370.255 2.72266 370.255 2.72266 363.067 -2 c 2,0,-1
EndSplineSet
EndChar

StartChar: d
Encoding: 100 100 44
Width: 989
VWidth: 1597
Flags: W
LayerCount: 2
Fore
SplineSet
571.037 1021.33 m 0,0,1
 638.011 1044.41 638.011 1044.41 652.911 1106.32 c 0,2,3
 656.805 1121.85 656.805 1121.85 660.21 1132.7 c 1,4,5
 660.492 1144.8 660.492 1144.8 662.504 1168.38 c 0,6,7
 664.793 1195.28 664.793 1195.28 668.796 1227.72 c 128,-1,8
 672.808 1260.23 672.808 1260.23 677.396 1286.67 c 0,9,10
 682.186 1316.39 682.186 1316.39 686.18 1328.18 c 2,11,-1
 688.512 1335.08 l 1,12,-1
 694.623 1339.81 l 2,13,14
 726.97 1365.57 726.97 1365.57 746.099 1394.72 c 0,15,16
 768.06 1428.18 768.06 1428.18 790.709 1453.99 c 0,17,18
 815.038 1481.71 815.038 1481.71 847.262 1499.8 c 0,19,20
 881.466 1519 881.466 1519 941 1519 c 2,21,-1
 966 1519 l 1,22,-1
 966 1494 l 2,23,24
 966 1472.55 966 1472.55 963.985 1413.65 c 0,25,26
 961.99 1355.32 961.99 1355.32 960.494 1287.94 c 0,27,28
 958.991 1220.31 958.991 1220.31 956.985 1161.65 c 0,29,30
 955.019 1104.14 955.019 1104.14 951.998 1081.28 c 1,31,32
 951.847 1029.53 951.847 1029.53 944.917 948.696 c 0,33,34
 937.889 866.715 937.889 866.715 928.849 788.525 c 0,35,36
 919.859 710.758 919.859 710.758 912.826 654.598 c 0,37,38
 911.675 645.435 911.675 645.435 910.548 630.712 c 128,-1,39
 909.42 615.99 909.42 615.99 908.531 609.573 c 128,-1,40
 907.642 603.156 907.642 603.156 904.262 594.97 c 128,-1,41
 900.882 586.784 900.882 586.784 894.678 580.858 c 2,42,-1
 880.714 567.521 l 1,43,44
 879.958 552.166 879.958 552.166 877.4 524.932 c 0,45,46
 873.895 487.613 873.895 487.613 870.418 446.812 c 0,47,48
 866.897 405.5 866.897 405.5 862.858 369.777 c 0,49,50
 859.062 336.272 859.062 336.272 855.979 320.291 c 1,51,52
 855.708 305.634 855.708 305.634 852.285 280.872 c 0,53,54
 848.801 255.679 848.801 255.679 845.313 228.559 c 0,55,56
 841.747 200.819 841.747 200.819 838.16 180.268 c 0,57,58
 835.39 164.395 835.39 164.395 835 159.934 c 2,59,-1
 835 156.972 l 1,60,-1
 834.038 153.756 l 2,61,62
 828.41 134.943 828.41 134.943 801.398 106.901 c 0,63,64
 777.441 82.0312 777.441 82.0312 749.887 59.1914 c 128,-1,65
 722.186 36.2295 722.186 36.2295 690.482 18.1992 c 0,66,67
 652.91 -4 652.91 -4 628.571 -4 c 2,68,-1
 596.89 -4 l 1,69,-1
 590.09 -0.291016 l 2,70,71
 578.658 5.94336 578.658 5.94336 555.226 12 c 0,72,73
 554.963 12.0684 554.963 12.0684 547.785 13.7129 c 128,-1,74
 540.607 15.3574 540.607 15.3574 537.278 16.3838 c 128,-1,75
 533.948 17.4102 533.948 17.4102 527.263 20.5039 c 128,-1,76
 520.578 23.5977 520.578 23.5977 517.152 27.0889 c 128,-1,77
 513.725 30.5811 513.725 30.5811 510.78 36.5938 c 128,-1,78
 507.834 42.6074 507.834 42.6074 507.834 50 c 2,79,-1
 507.834 51.3945 l 1,80,-1
 523.529 175.705 l 1,81,82
 492.394 159.279 492.394 159.279 461.682 133.762 c 0,83,84
 422.575 101.27 422.575 101.27 373.762 79.6396 c 0,85,86
 329.116 59.8564 329.116 59.8564 289.534 40.5879 c 0,87,88
 247.415 18 247.415 18 202 18 c 0,89,90
 152.645 18 152.645 18 116.822 52.1221 c 0,91,92
 84.7744 82.6484 84.7744 82.6484 66.8711 124.218 c 0,93,94
 49.8311 163.78 49.8311 163.78 42.3652 204.927 c 0,95,96
 35 245.518 35 245.518 35 275.184 c 0,97,98
 35 286.007 35 286.007 38.6484 317.779 c 0,99,100
 42.1387 348.18 42.1387 348.18 45.6318 380.495 c 128,-1,101
 49.1387 412.952 49.1387 412.952 52.6484 443.513 c 0,102,103
 56 472.703 56 472.703 56 484.74 c 2,104,-1
 56 508.554 l 1,105,-1
 79.1436 508.554 l 2,106,107
 80.3535 509.243 80.3535 509.243 81.6514 510.205 c 0,108,109
 82 510.463 82 510.463 82 513.316 c 0,110,111
 82 542.971 82 542.971 117.393 642.126 c 0,112,113
 137.931 696.903 137.931 696.903 163.05 745.734 c 0,114,115
 188.905 795.996 188.905 795.996 225.889 837.766 c 0,116,117
 261.987 878.534 261.987 878.534 322.376 919.997 c 0,118,119
 335.106 929.472 335.106 929.472 385.773 952.059 c 0,120,121
 435.746 974.336 435.746 974.336 465.926 988.49 c 2,122,-1
 468.217 989.565 l 1,123,-1
 470.705 990.266 l 2,124,125
 500.533 998.658 500.533 998.658 571.037 1021.33 c 0,0,1
290.058 384 m 0,126,127
 290.058 348.315 290.058 348.315 303.709 329.413 c 0,128,129
 308.991 322 308.991 322 321.652 322 c 0,130,131
 341.463 322 341.463 322 375.33 335.721 c 0,132,133
 429.386 357.831 429.386 357.831 466.448 390.678 c 2,134,-1
 470.006 393.83 l 1,135,-1
 474.574 395.699 l 2,136,137
 478.985 397.503 478.985 397.503 490.583 407.51 c 128,-1,138
 502.18 417.516 502.18 417.516 522.69 438.897 c 128,-1,139
 543.2 460.278 543.2 460.278 565.252 486.845 c 0,140,141
 583.615 508.816 583.615 508.816 600.64 613.509 c 0,142,143
 614.491 701.491 614.491 701.491 638.836 770.329 c 0,144,145
 652.373 810.316 652.373 810.316 654.267 864.856 c 1,146,147
 570.664 842.458 570.664 842.458 525.219 816.898 c 0,148,149
 436.492 766.941 436.492 766.941 376.798 647.906 c 0,150,151
 290.058 472.751 290.058 472.751 290.058 384 c 0,126,127
EndSplineSet
EndChar

StartChar: e
Encoding: 101 101 45
Width: 844
VWidth: 1597
Flags: W
LayerCount: 2
Fore
SplineSet
793.732 776.327 m 1,0,-1
 793.038 774.005 l 2,1,2
 771.352 701.475 771.352 701.475 707.033 645.458 c 1,3,4
 668.563 602.071 668.563 602.071 618.012 572.889 c 0,5,6
 543.683 529.813 543.683 529.813 533.05 525.975 c 0,7,8
 425.137 476.371 425.137 476.371 395.392 460.769 c 0,9,10
 339.605 431.568 339.605 431.568 339.605 407.916 c 0,11,12
 339.605 335.376 339.605 335.376 349.854 315.688 c 1,13,14
 369.195 307.43 369.195 307.43 431.333 297.539 c 2,15,-1
 433.128 297.253 l 1,16,17
 447.308 297.287 447.308 297.287 486.968 314.193 c 0,18,19
 586.866 360.005 586.866 360.005 596.277 363.423 c 0,20,21
 602.515 366.681 602.515 366.681 622.457 379.579 c 0,22,23
 637.973 390.744 637.973 390.744 674.664 420.269 c 1,24,25
 707.346 447.892 707.346 447.892 743.254 447.1 c 0,26,27
 759.104 446.85 759.104 446.85 773.544 441.832 c 2,28,-1
 778.756 440.021 l 1,29,-1
 782.678 436.273 l 2,30,31
 791 428.322 791 428.322 791 415.561 c 0,32,33
 791 400.367 791 400.367 782.356 377.076 c 128,-1,34
 773.713 353.785 773.713 353.785 750.059 299.312 c 0,35,36
 737.317 270.537 737.317 270.537 705.97 242.202 c 0,37,38
 700.406 235.986 700.406 235.986 665.188 195.768 c 0,39,40
 614.112 137.205 614.112 137.205 557.063 99.0146 c 1,41,42
 504.552 57.8203 504.552 57.8203 426.879 28.6045 c 0,43,44
 345.514 -2 345.514 -2 265 -2 c 0,45,46
 224.291 -2 224.291 -2 209.295 15.9951 c 0,47,48
 202.142 24.1748 202.142 24.1748 172.502 55.248 c 2,49,-1
 171.971 55.8047 l 1,50,-1
 171.479 56.3916 l 2,51,52
 134.902 99.9629 134.902 99.9629 110.382 134.043 c 0,53,54
 84.5098 170 84.5098 170 70.4131 208.237 c 0,55,56
 56.5596 245.815 56.5596 245.815 50.21 291.199 c 0,57,58
 44 337.56 44 337.56 44 379.102 c 2,59,-1
 44 393.729 l 1,60,61
 50.0576 600.601 50.0576 600.601 54.333 625.047 c 0,62,63
 92.375 847.481 92.375 847.481 143.43 908.561 c 0,64,65
 216.695 996.602 216.695 996.602 314.997 1030.38 c 2,66,-1
 316.401 1030.8 l 1,67,-1
 317.848 1031.12 l 2,68,69
 503.918 1072 503.918 1072 601 1072 c 2,70,-1
 617.61 1072 l 1,71,72
 715.055 1067.46 715.055 1067.46 749.463 999.356 c 0,73,74
 795 911.326 795 911.326 795 804.455 c 0,75,76
 795 792.067 795 792.067 793.927 778.735 c 2,77,-1
 793.732 776.327 l 1,0,-1
539.04 898.546 m 1,78,79
 532.863 901.04 532.863 901.04 458.66 879.35 c 1,80,81
 420.644 869.396 420.644 869.396 375.515 826.741 c 2,82,-1
 332.372 786.106 l 1,83,84
 326.717 775.704 326.717 775.704 316.07 738.192 c 1,85,-1
 316.07 675 l 2,86,87
 316.07 665.157 316.07 665.157 318.145 655.728 c 1,88,89
 369.094 685.811 369.094 685.811 410.301 698.96 c 1,90,91
 459.122 717.641 459.122 717.641 497.73 735.796 c 128,-1,92
 536.336 753.952 536.336 753.952 552.162 763.937 c 0,93,94
 565.501 773.92 565.501 773.92 567.347 777.574 c 0,95,96
 580 804.568 580 804.568 580 841 c 0,97,98
 580 857.286 580 857.286 564.711 893.536 c 1,99,100
 559.49 896.813 559.49 896.813 544.813 898.109 c 2,101,-1
 539.04 898.546 l 1,78,79
EndSplineSet
EndChar

StartChar: f
Encoding: 102 102 46
Width: 1067
VWidth: 1597
Flags: W
LayerCount: 2
Fore
SplineSet
927 1264 m 0,0,1
 914.571 1264 914.571 1264 903.327 1275.81 c 1,2,3
 901.464 1276.27 901.464 1276.27 899.837 1276.65 c 0,4,5
 877.742 1281.79 877.742 1281.79 857.714 1287.44 c 0,6,7
 845.716 1290.82 845.716 1290.82 840.362 1292 c 1,8,9
 817.66 1291.71 817.66 1291.71 812.107 1287.71 c 0,10,11
 804.913 1282.69 804.913 1282.69 801.873 1276.43 c 0,12,13
 792.29 1256.69 792.29 1256.69 758.339 1238.1 c 0,14,15
 734.796 1225.21 734.796 1225.21 720.188 1213 c 0,16,17
 698.696 1193.3 698.696 1193.3 696.036 1181.85 c 0,18,19
 689.625 1154.25 689.625 1154.25 660.61 1132.67 c 0,20,21
 644.38 1120.6 644.38 1120.6 635.444 1101.32 c 0,22,23
 626.01 1080.96 626.01 1080.96 626.01 1047 c 0,24,25
 626.01 1032.35 626.01 1032.35 630.927 1027.41 c 128,-1,26
 635.844 1022.46 635.844 1022.46 651.999 1020.87 c 0,27,28
 684.723 1018 684.723 1018 728.626 1018 c 2,29,-1
 777.652 1018 l 1,30,31
 802.461 1019 802.461 1019 824 1019 c 2,32,-1
 842 1019 l 2,33,34
 879.204 1019 879.204 1019 911.513 1015.87 c 0,35,36
 982.238 1008.78 982.238 1008.78 1013.36 949.462 c 2,37,-1
 1025.22 926.864 l 1,38,-1
 1000.85 916.911 l 2,39,40
 994.906 914.485 994.906 914.485 972.938 903.106 c 0,41,42
 953.116 892.84 953.116 892.84 948.678 888.61 c 2,43,-1
 944.505 884.634 l 1,44,-1
 941.505 883.682 l 1,45,46
 937.934 880.278 937.934 880.278 933 874.01 c 0,47,48
 918.992 856.212 918.992 856.212 898.349 840.912 c 0,49,50
 882.99 829.529 882.99 829.529 873 816.835 c 2,51,-1
 872.403 816.077 l 1,52,-1
 871.746 815.367 l 2,53,54
 850.176 792.072 850.176 792.072 813.831 795.164 c 1,55,56
 787.635 785.413 787.635 785.413 749.539 782.169 c 128,-1,57
 711.562 778.935 711.562 778.935 671.964 772.464 c 0,58,59
 635.009 766.425 635.009 766.425 607.071 754.15 c 0,60,61
 590.701 746.958 590.701 746.958 590.701 728.214 c 2,62,-1
 590.701 716.925 l 1,63,-1
 580.584 709.776 l 2,64,65
 575.038 705.857 575.038 705.857 568.905 690.639 c 128,-1,66
 562.771 675.421 562.771 675.421 557.004 642.651 c 128,-1,67
 551.237 609.882 551.237 609.882 549.859 568.241 c 0,68,69
 545.423 476.295 545.423 476.295 538.781 388.36 c 0,70,71
 531.033 287.027 531.033 287.027 523.342 178.828 c 2,72,-1
 522.796 171.15 l 1,73,-1
 364.329 4 l 1,74,-1
 351.601 4 l 2,75,76
 347.738 3.78125 347.738 3.78125 333.72 2.19336 c 0,77,78
 314.361 0 314.361 0 304.92 0 c 0,79,80
 283.371 0 283.371 0 252.453 3.68652 c 0,81,82
 231.084 6.31055 231.084 6.31055 215.936 20.1777 c 0,83,84
 200.788 33.3789 200.788 33.3789 195.698 53.4551 c 2,85,-1
 195 56.208 l 1,86,-1
 195 59.04 l 2,87,88
 195 82.9951 195 82.9951 200.608 140.263 c 0,89,90
 206.062 195.958 206.062 195.958 209.535 257.846 c 0,91,92
 213.057 320.579 213.057 320.579 218.091 376.647 c 0,93,94
 223 431.327 223 431.327 223 450.303 c 2,95,-1
 223 710.041 l 1,96,97
 151.372 729.104 151.372 729.104 98.8193 754.117 c 0,98,99
 28 787.826 28 787.826 28 887.262 c 0,100,101
 28 939.775 28 939.775 72.3496 968.761 c 0,102,103
 107.804 991.932 107.804 991.932 154.466 1011.4 c 0,104,105
 200.26 1031.46 200.26 1031.46 248.63 1046.39 c 0,106,107
 281.963 1056.44 281.963 1056.44 297.55 1086.5 c 1,108,109
 297.196 1091.24 297.196 1091.24 297.196 1095 c 0,110,111
 297.196 1118.78 297.196 1118.78 307.795 1161.47 c 0,112,113
 310.657 1173.14 310.657 1173.14 339.526 1228.61 c 0,114,115
 354.121 1257.05 354.121 1257.05 358.987 1266.97 c 1,116,-1
 358.987 1269.71 l 1,117,-1
 363.781 1276.08 l 2,118,119
 379.247 1296.64 379.247 1296.64 386.005 1305.91 c 1,120,121
 389.98 1316.42 389.98 1316.42 419.147 1360.79 c 0,122,123
 450.561 1408.58 450.561 1408.58 463.995 1418.46 c 0,124,125
 470.305 1423.81 470.305 1423.81 489.576 1438.58 c 0,126,127
 506.977 1451.93 506.977 1451.93 516.613 1468.6 c 0,128,129
 531.733 1494.76 531.733 1494.76 557.338 1511.7 c 0,130,131
 571.594 1521.12 571.594 1521.12 578.519 1525.75 c 1,132,133
 582.246 1529.51 582.246 1529.51 586.718 1532.35 c 128,-1,134
 591.189 1535.19 591.189 1535.19 593.978 1536.75 c 128,-1,135
 596.767 1538.31 596.767 1538.31 603.113 1539.71 c 128,-1,136
 609.461 1541.12 609.461 1541.12 611.005 1541.43 c 128,-1,137
 612.549 1541.74 612.549 1541.74 620.864 1542.71 c 128,-1,138
 629.178 1543.67 629.178 1543.67 629.965 1543.77 c 0,139,140
 646.159 1545.79 646.159 1545.79 653.938 1547.67 c 1,141,-1
 660.363 1553.49 l 1,142,-1
 673.98 1551.76 l 2,143,144
 736.543 1543.8 736.543 1543.8 788.625 1538.34 c 0,145,146
 844.297 1532.09 844.297 1532.09 886.557 1501.82 c 0,147,148
 924.504 1474.65 924.504 1474.65 971.404 1433.87 c 0,149,150
 1021.7 1390.13 1021.7 1390.13 1048.96 1326.9 c 2,151,-1
 1053.07 1317.36 l 1,152,-1
 1049.21 1307.71 l 2,153,154
 1034.29 1270.41 1034.29 1270.41 1005.34 1264.08 c 0,155,156
 986.706 1260 986.706 1260 966 1260 c 0,157,158
 957.016 1260 957.016 1260 942.55 1262.31 c 0,159,160
 932.011 1264 932.011 1264 927 1264 c 0,0,1
EndSplineSet
EndChar

